<?xml version="1.0" encoding="utf-8"?>
<!-- Generator: Adobe Illustrator 19.2.1, SVG Export Plug-In . SVG Version: 6.00 Build 0)  -->
<!DOCTYPE svg PUBLIC "-//W3C//DTD SVG 1.1//EN" "http://www.w3.org/Graphics/SVG/1.1/DTD/svg11.dtd">
<svg version="1.1" id="Layer_1" xmlns="http://www.w3.org/2000/svg" xmlns:xlink="http://www.w3.org/1999/xlink" x="0px" y="0px"
	 viewBox="0 0 100 100" style="enable-background:new 0 0 100 100;" xml:space="preserve">
<style type="text/css">
	.st0{fill:#010101;}
</style>
<g>
	<path class="st0" d="M61,23C61,23,60.9,23,61,23c-13.8,0-25,11.2-25,24.9c0,13.8,11.1,25,24.9,25c0,0,0,0,0.1,0
		c6.6,0,12.9-2.6,17.6-7.3c4.7-4.7,7.3-11,7.3-17.6c0,0,0,0,0,0C85.9,34.2,74.7,23,61,23z M82.3,47.9c0,5.7-2.2,11.1-6.3,15.1
		c-4,4-9.4,6.2-15.1,6.2c0,0,0,0,0,0c-11.8,0-21.4-9.6-21.3-21.4c0-11.8,9.6-21.3,21.4-21.3c0,0,0,0,0,0
		C72.7,26.5,82.3,36.1,82.3,47.9L82.3,47.9z"/>
	<path class="st0" d="M93.2,37.3C87.3,19.6,68.1,9.9,50.3,15.7c-8.6,2.8-15.6,8.9-19.7,17C26.8,40.3,26,49,28.3,57.2L5.9,70.5
		c-0.8,0.5-1.1,1.6-0.6,2.4l7,12.2c0.2,0.4,0.6,0.7,1.1,0.8c0.1,0,0.3,0.1,0.4,0.1c0.3,0,0.6-0.1,0.9-0.2l22.6-13.4
		c6.3,6.1,14.8,9.6,23.6,9.6c0,0,0,0,0,0c3.6,0,7.2-0.6,10.6-1.7c8.6-2.8,15.6-8.9,19.7-17C95.4,55.1,96,45.9,93.2,37.3z M88.1,61.6
		c-3.7,7.3-9.9,12.6-17.6,15.2c-3.1,1-6.3,1.5-9.5,1.5c0,0,0,0,0,0c-8.3,0-16.3-3.5-22-9.5c-0.6-0.7-1.7-0.7-2.4-0.2c0,0,0,0,0,0
		l-22,13l-5.3-9.1l22.1-13.1c0.7-0.4,1-1.3,0.8-2.1c-2.5-7.7-1.9-16,1.7-23.2c3.7-7.2,9.9-12.6,17.6-15.2
		c15.9-5.2,33.1,3.4,38.4,19.4C92.4,46.2,91.8,54.4,88.1,61.6z"/>
</g>
</svg>
