<?xml version="1.0" encoding="utf-8"?>
<!-- Generator: Adobe Illustrator 19.2.1, SVG Export Plug-In . SVG Version: 6.00 Build 0)  -->
<!DOCTYPE svg PUBLIC "-//W3C//DTD SVG 1.1//EN" "http://www.w3.org/Graphics/SVG/1.1/DTD/svg11.dtd">
<svg version="1.1" id="Layer_1" xmlns="http://www.w3.org/2000/svg" xmlns:xlink="http://www.w3.org/1999/xlink" x="0px" y="0px"
	 viewBox="0 0 100 100" style="enable-background:new 0 0 100 100;" xml:space="preserve">
<path id="Rounded_Rectangle_3_copy_23" d="M79.2,7L72,93.7c-0.3,2.4-2.5,4.2-4.9,3.9H30.1c-2.5,0-3.9-1.7-4.4-4.3l-1.3-5.4
	c0.6-2.5,2.8-4.2,5.3-4.3h25.9l0.1-2.1h-29c-2.5,0-3.7-1.4-4.3-4.3l-0.7-5.4c0.6-2.5,2.8-4.2,5.3-4.3h29.3l0.1-2.1H25.8
	c-2.5,0-3.9-1.6-4.3-4.3l-0.7-5.4c0.6-2.5,2.8-4.2,5.3-4.3h31l0.1-2.3H27.9c-2.5,0-4.1-1.4-4.3-4.3l1.8-5.4c0.8-2.7,2.8-4.3,5.3-4.3
	H58l1.3-27.1c0.2-2.3,1.9-3.9,5-4.3l10.6-1.6C77.4,2.4,79.3,4.5,79.2,7C79.2,6.9,79.2,7,79.2,7z"/>
</svg>
