<?xml version="1.0" standalone="no"?>
<!DOCTYPE svg PUBLIC "-//W3C//DTD SVG 20010904//EN"
 "http://www.w3.org/TR/2001/REC-SVG-20010904/DTD/svg10.dtd">
<svg version="1.0" xmlns="http://www.w3.org/2000/svg"
 width="500.000000pt" height="500.000000pt" viewBox="0 0 500.000000 500.000000"
 preserveAspectRatio="xMidYMid meet">
<metadata>
Created by potrace 1.11, written by Peter Selinger 2001-2013
</metadata>
<g transform="translate(0.000000,500.000000) scale(0.100000,-0.100000)"
fill="#000000" stroke="none">
<path d="M550 4831 c-197 -53 -352 -210 -405 -411 -13 -47 -15 -318 -15 -1910
0 -1280 3 -1874 11 -1915 6 -33 28 -97 50 -142 68 -143 196 -248 357 -294 65
-18 121 -19 1952 -16 1037 1 1892 5 1900 8 8 3 29 9 45 14 118 31 265 152 328
272 71 136 67 -6 66 2063 0 1748 -1 1869 -18 1930 -54 200 -215 357 -416 405
-51 12 -340 14 -1925 14 -1747 0 -1869 -1 -1930 -18z"/>
</g>
</svg>
