<?xml version="1.0" encoding="utf-8"?>
<!-- Generator: Adobe Illustrator 19.2.1, SVG Export Plug-In . SVG Version: 6.00 Build 0)  -->
<!DOCTYPE svg PUBLIC "-//W3C//DTD SVG 1.1//EN" "http://www.w3.org/Graphics/SVG/1.1/DTD/svg11.dtd">
<svg version="1.1" id="Layer_1" xmlns="http://www.w3.org/2000/svg" xmlns:xlink="http://www.w3.org/1999/xlink" x="0px" y="0px"
	 viewBox="0 0 100 100" style="enable-background:new 0 0 100 100;" xml:space="preserve">
<style type="text/css">
	.st0{fill:#010101;}
</style>
<path id="home" class="st0" d="M50,11.1c0,0-27.1,23.1-42.2,35.6c-1,0.8-1.5,2-1.6,3.3c0,2.4,2,4.3,4.4,4.3c0,0,0,0,0,0h8.7v30.2
	c0,2.4,2,4.3,4.4,4.3c0,0,0,0,0,0h13.1c2.4,0,4.4-1.9,4.4-4.3c0,0,0,0,0,0V67.3h17.5v17.3c0,2.4,2,4.3,4.4,4.3c0,0,0,0,0,0h13.1
	c2.4,0,4.4-1.9,4.4-4.3c0,0,0,0,0,0V54.3h8.7c2.4,0,4.4-1.9,4.4-4.3c0,0,0,0,0,0c0-1.3-0.6-2.5-1.7-3.3C77.1,34.2,50,11.1,50,11.1z"
	/>
</svg>
