<?xml version="1.0" encoding="utf-8"?>
<!-- Generator: Adobe Illustrator 19.2.1, SVG Export Plug-In . SVG Version: 6.00 Build 0)  -->
<!DOCTYPE svg PUBLIC "-//W3C//DTD SVG 1.1//EN" "http://www.w3.org/Graphics/SVG/1.1/DTD/svg11.dtd">
<svg version="1.1" id="Layer_1" xmlns="http://www.w3.org/2000/svg" xmlns:xlink="http://www.w3.org/1999/xlink" x="0px" y="0px"
	 viewBox="0 0 100 100" style="enable-background:new 0 0 100 100;" xml:space="preserve">
<path d="M98.8,67c-0.5-2.1-1.7-3.9-3.5-5.1c-0.2-0.1-0.4-0.3-0.7-0.4L53.2,39.8L56,35c2.6,0.7,5.5-0.4,6.9-2.8c0.8-1.4,1-3,0.6-4.6
	c-0.4-1.6-1.4-2.9-2.8-3.7L36.9,10.2c-2.9-1.7-6.6-0.7-8.3,2.2c-1.2,2-1,4.4,0.1,6.3L16.3,40.1c-0.5,0-0.9,0.1-1.4,0.2
	c-1.6,0.4-2.9,1.5-3.6,2.9c-1.6,2.9-0.6,6.5,2.2,8.2c0,0,0,0,0,0l23.8,13.7c1.4,0.8,3,1,4.6,0.6c1.6-0.4,2.9-1.5,3.7-2.9
	c1.4-2.5,0.8-5.7-1.3-7.6l2.8-4.8l39.6,25c1.3,0.9,2.8,1.3,4.3,1.3c0.6,0,1.1-0.1,1.7-0.2c2.1-0.5,3.9-1.7,5.1-3.5
	C98.9,71.2,99.3,69.1,98.8,67z M32.3,14.6c0.5-0.8,1.6-1.1,2.4-0.7l23.8,13.7c0.4,0.2,0.7,0.6,0.8,1.1c0.1,0.4,0.1,0.9-0.2,1.3
	c-0.5,0.8-1.6,1.1-2.4,0.7L33,16.9l0,0l0,0l0,0C32.1,16.5,31.8,15.4,32.3,14.6z M41.8,60.7c-0.2,0.4-0.6,0.7-1.1,0.8
	c-0.5,0.1-0.9,0.1-1.3-0.2L15.6,47.7c-0.8-0.5-1.1-1.5-0.6-2.4c0.2-0.4,0.6-0.7,1.1-0.8c0.4-0.1,0.9-0.1,1.2,0.1l23,13.2
	c0,0,0.1,0,0.1,0.1l0.8,0.4C42,58.8,42.3,59.9,41.8,60.7z M48.3,39.6L40.6,53L20.5,41.5l11.6-20L52.1,33L48.3,39.6
	C48.3,39.6,48.3,39.6,48.3,39.6z M94.1,70.7c-0.5,0.8-1.4,1.4-2.3,1.6c-1,0.2-2,0-2.8-0.5L49.2,46.8l1.8-3.2l41.6,21.8c0,0,0,0,0,0
	c0.1,0.1,0.2,0.1,0.3,0.2c0.8,0.5,1.4,1.4,1.6,2.3C94.8,68.9,94.6,69.9,94.1,70.7z"/>
<path d="M54.8,85.2l-2-0.1c0-0.6-0.1-1.2-0.1-1.8c0,0,0,0,0,0c0-3.3-2.7-6-6.1-6c0,0,0,0,0,0H11.3c0,0,0,0,0,0
	c-1.6,0-3.1,0.6-4.3,1.8c-1.1,1.1-1.8,2.7-1.8,4.3v1.7l-1.9,0c-0.6,0-1.2,0.2-1.6,0.6c-0.4,0.4-0.6,1-0.6,1.6l0.1,4
	c0,1.2,1,2.1,2.2,2.1h51c1.1,0,2.1-0.9,2.1-2l0.2-3.7c0-0.6-0.2-1.1-0.6-1.6C55.9,85.4,55.3,85.2,54.8,85.2z M8.6,88.9
	c0.1-0.1,0.2-0.1,0.3-0.2c0.4-0.4,0.6-1,0.6-1.5v-3.9c0-0.5,0.2-0.9,0.5-1.2c0.3-0.3,0.8-0.5,1.2-0.5c0,0,0,0,0,0h35.3c0,0,0,0,0,0
	c1,0,1.8,0.8,1.8,1.8c0,1.4,0.1,2.8,0.3,4.2c0.1,0.6,0.4,1.2,0.9,1.5H8.6z"/>
</svg>
