<?xml version="1.0" encoding="utf-8"?>
<!-- Generator: Adobe Illustrator 19.2.1, SVG Export Plug-In . SVG Version: 6.00 Build 0)  -->
<!DOCTYPE svg PUBLIC "-//W3C//DTD SVG 1.1//EN" "http://www.w3.org/Graphics/SVG/1.1/DTD/svg11.dtd">
<svg version="1.1" id="Layer_1" xmlns="http://www.w3.org/2000/svg" xmlns:xlink="http://www.w3.org/1999/xlink" x="0px" y="0px"
	 viewBox="0 0 56 66" style="enable-background:new 0 0 56 66;" xml:space="preserve">
<path d="M28,35.9C28,35.9,28,35.9,28,35.9c9.2,0,16.7-7.5,16.7-16.7c0-4.5-1.7-8.7-4.9-11.8C36.7,4.2,32.5,2.5,28,2.5c0,0,0,0,0,0
	c-9.2,0-16.7,7.5-16.7,16.7c0,4.5,1.7,8.7,4.9,11.8C19.4,34.2,23.6,35.9,28,35.9z"/>
<path d="M34.4,40.9H21.6c-6.7,0-19.1,5.4-19.1,13V62c0,0.8,0.7,1.5,1.5,1.5h48c0.8,0,1.5-0.7,1.5-1.5v-8.1
	C53.5,46.3,41.1,40.9,34.4,40.9z"/>
</svg>
