<?xml version="1.0" encoding="utf-8"?>
<!-- Generator: Adobe Illustrator 19.2.1, SVG Export Plug-In . SVG Version: 6.00 Build 0)  -->
<!DOCTYPE svg PUBLIC "-//W3C//DTD SVG 1.1//EN" "http://www.w3.org/Graphics/SVG/1.1/DTD/svg11.dtd">
<svg version="1.1" id="Layer_1" xmlns="http://www.w3.org/2000/svg" xmlns:xlink="http://www.w3.org/1999/xlink" x="0px" y="0px"
	 viewBox="0 0 100 100" style="enable-background:new 0 0 100 100;" xml:space="preserve">
<path id="facebook" d="M72.5,14C79.9,14,86,20.1,86,27.5v45C86,79.9,79.9,86,72.5,86h-8.8V58.1H73l1.4-10.9H63.7v-6.9
	c-0.1-1.4,0.3-2.8,1.1-3.9c0.7-0.9,2.2-1.3,4.3-1.3l5.7,0v-9.7c-2.8-0.3-5.6-0.5-8.3-0.4c-4.2,0-7.6,1.2-10.2,3.8s-3.8,6-3.8,10.6v8
	h-9.4v10.9h9.4V86H27.5C20,86,14,79.9,14,72.5v-45C14,20.1,20,14,27.5,14H72.5z"/>
</svg>
