<?xml version="1.0" encoding="utf-8"?>
<!-- Generator: Adobe Illustrator 19.2.1, SVG Export Plug-In . SVG Version: 6.00 Build 0)  -->
<!DOCTYPE svg PUBLIC "-//W3C//DTD SVG 1.1//EN" "http://www.w3.org/Graphics/SVG/1.1/DTD/svg11.dtd">
<svg version="1.1" id="Layer_1" xmlns="http://www.w3.org/2000/svg" xmlns:xlink="http://www.w3.org/1999/xlink" x="0px" y="0px"
	 viewBox="0 0 100 100" style="enable-background:new 0 0 100 100;" xml:space="preserve">
<style type="text/css">
	.st0{fill:#010101;}
</style>
<path class="st0" d="M90.2,45.6c-13.8-11.5-38.8-32.8-39.1-33c-0.6-0.5-1.6-0.5-2.2,0c-0.3,0.2-25.3,21.6-39.2,33
	c-1.3,1.1-2,2.7-2,4.4c0,3.2,2.6,5.7,5.7,5.7c0,0,0,0,0,0h6.4v26.4c0,1.5,0.6,3,1.7,4c1.1,1.1,2.6,1.7,4.1,1.7h12.2c0,0,0,0,0,0
	c1.5,0,2.9-0.6,4-1.7c1.1-1.1,1.7-2.5,1.7-4.1V67.7h12.9v14.4c0,1.5,0.6,3,1.7,4c1.1,1.1,2.5,1.7,4,1.7c0,0,0,0,0,0h12.2
	c0,0,0,0,0,0c3.1,0,5.7-2.5,5.7-5.7V55.7h6.4c0,0,0,0,0,0c3.1,0,5.7-2.5,5.7-5.7C92.3,48.2,91.5,46.6,90.2,45.6z M76.8,82.1
	c0,1.3-1.1,2.3-2.4,2.3c0,0,0,0,0,0H62.2c0,0,0,0,0,0c-0.6,0-1.2-0.2-1.6-0.7c-0.4-0.4-0.7-1-0.7-1.6V66.1c0-0.9-0.8-1.7-1.7-1.7
	H41.9c-0.9,0-1.7,0.8-1.7,1.7v16c0,0.6-0.3,1.2-0.7,1.7c-0.4,0.4-1.1,0.6-1.7,0.7H25.6c0,0,0,0,0,0c-0.6,0-1.2-0.2-1.6-0.7
	c-0.4-0.4-0.7-1-0.7-1.6V54c0-0.9-0.8-1.7-1.7-1.7h-8.1c0,0,0,0,0,0c-1.3,0-2.3-1-2.3-2.3c0-0.7,0.3-1.4,0.8-1.8
	C24.1,38.1,45,20.4,50,16.1c5,4.3,25.9,22,38.1,32.2c0.6,0.4,0.9,1.1,0.9,1.7c0,1.3-1.1,2.3-2.4,2.3c0,0,0,0,0,0h-8.1
	c-0.9,0-1.7,0.8-1.7,1.7V82.1z"/>
</svg>
