<?xml version="1.0" encoding="utf-8"?>
<!-- Generator: Adobe Illustrator 19.2.1, SVG Export Plug-In . SVG Version: 6.00 Build 0)  -->
<!DOCTYPE svg PUBLIC "-//W3C//DTD SVG 1.1//EN" "http://www.w3.org/Graphics/SVG/1.1/DTD/svg11.dtd">
<svg version="1.1" id="Layer_1" xmlns="http://www.w3.org/2000/svg" xmlns:xlink="http://www.w3.org/1999/xlink" x="0px" y="0px"
	 viewBox="0 0 100 100" style="enable-background:new 0 0 100 100;" xml:space="preserve">
<path d="M95.9,36.7C89.7,18,69.6,7.9,51,14.1c-18.6,6.1-28.8,26.2-22.6,44.9l-26,15.4l7.8,13.5l26.2-15.6l0,0
	c6.7,7.1,16,11.1,25.8,11.1c3.8,0,7.5-0.6,11.1-1.8C91.9,75.4,102,55.3,95.9,36.7z M87.6,47.8c0,14.1-11.5,25.6-25.6,25.5
	c-14.1,0-25.6-11.5-25.5-25.6c0-14.1,11.5-25.6,25.6-25.5C76.2,22.2,87.7,33.6,87.6,47.8C87.6,47.7,87.6,47.8,87.6,47.8z"/>
</svg>
