<?xml version="1.0" encoding="utf-8"?>
<!-- Generator: Adobe Illustrator 19.2.1, SVG Export Plug-In . SVG Version: 6.00 Build 0)  -->
<!DOCTYPE svg PUBLIC "-//W3C//DTD SVG 1.1//EN" "http://www.w3.org/Graphics/SVG/1.1/DTD/svg11.dtd">
<svg version="1.1" id="Layer_1" xmlns="http://www.w3.org/2000/svg" xmlns:xlink="http://www.w3.org/1999/xlink" x="0px" y="0px"
	 viewBox="0 0 56 66" style="enable-background:new 0 0 56 66;" xml:space="preserve">
<g id="Rounded_Rectangle_4">
	<path d="M52,63.5H4c-0.8,0-1.5-0.7-1.5-1.5v-8.1c0-7.7,12.4-13,19.1-13h12.9c6.7,0,19.1,5.4,19.1,13V62
		C53.5,62.8,52.8,63.5,52,63.5z M5.5,60.5h45v-6.6c0-5.2-10-10-16.1-10H21.6c-6,0-16.1,4.9-16.1,10V60.5z M28,35.9
		c-4.5,0-8.6-1.7-11.8-4.9c-3.2-3.2-4.9-7.3-4.9-11.8C11.3,10,18.8,2.5,28,2.5l0,0c0,0,0,0,0,0c4.5,0,8.6,1.7,11.8,4.9
		c3.2,3.2,4.9,7.3,4.9,11.8C44.7,28.4,37.3,35.9,28,35.9C28,35.9,28,35.9,28,35.9z M28,5.5c-7.5,0-13.7,6.1-13.7,13.7
		c0,7.6,6.2,13.7,13.7,13.7c0,0,0,0,0,0c7.6,0,13.7-6.2,13.7-13.7c0-3.7-1.4-7.1-4-9.7C35.1,6.9,31.7,5.5,28,5.5
		C28,5.5,28,5.5,28,5.5z"/>
</g>
</svg>
