<?xml version="1.0" standalone="no"?>
<!DOCTYPE svg PUBLIC "-//W3C//DTD SVG 1.1//EN" "http://www.w3.org/Graphics/SVG/1.1/DTD/svg11.dtd" >
<svg>
<metadata>
Created by FontForge 20090914 at Sun Jan 31 21:03:27 2016
 By www-data
Copyright (c) 2014 by TypeTogether. All rights reserved.
</metadata>
<defs>
<font id="EbonyW01-Bold" horiz-adv-x="620" >
  <font-face 
    font-family="EbonyW01-Bold"
    font-weight="700"
    font-stretch="normal"
    units-per-em="1000"
    panose-1="2 0 5 3 0 0 0 2 0 4"
    ascent="800"
    descent="-200"
    x-height="482"
    cap-height="719"
    bbox="-52 -239.007 1042 964.999"
    underline-thickness="50"
    underline-position="-125"
    unicode-range="U+0020-U+2122"
  />
<missing-glyph horiz-adv-x="500" 
 />
    <glyph glyph-name=".notdef" horiz-adv-x="500" 
 />
    <glyph glyph-name="space" unicode=" " horiz-adv-x="191" 
 />
    <glyph glyph-name="exclam" unicode="!" horiz-adv-x="364" 
d="M261 719v-189l-9 -294h-140l-9 294v189h158zM83 76c0 28.667 8.66699 50.5 26 65.5s40 22.5 68 22.5c32 0 56.333 -7.5 73 -22.5s25 -36.5 25 -64.5c0 -58.667 -32.333 -88 -97 -88c-29.333 0 -52.5 7.5 -69.5 22.5s-25.5 36.5 -25.5 64.5z" />
    <glyph glyph-name="quotedbl" unicode="&#x22;" horiz-adv-x="426" 
d="M188 719l-8 -259h-108l-10 259h126zM364 719l-8 -259h-108l-10 259h126z" />
    <glyph glyph-name="numbersign" unicode="#" 
d="M151 452l13 150h107l-13 -150h117l13 150h107l-13 -150h104l-7 -91h-106l-11 -123h103l-7 -93h-104l-12 -145h-107l12 145h-117l-12 -145h-107l12 145h-104l7 93h105l11 123h-102l7 91h104zM238 238h117l11 123h-117z" />
    <glyph glyph-name="dollar" unicode="$" horiz-adv-x="525" 
d="M44 149l4.00195 0.000976562c25.333 -12.667 55.5 -22.667 90.5 -30s67.5 -11 97.5 -11c79.333 0 119 26.667 119 80c0 10 -1.16699 19 -3.5 27s-7.33301 15.667 -15 23s-18.334 14.333 -32.001 21s-31.834 13.334 -54.501 20.001
c-29.333 8.66699 -57.333 18.334 -84 29.001s-50.167 24.167 -70.5 40.5s-36.666 36.166 -48.999 59.499s-18.5 52.333 -18.5 87c0 54 14 98.667 42 134s69 59.333 123 72v103h149v-99c22 -3.33301 41.833 -7.83301 59.5 -13.5s33.167 -11.167 46.5 -16.5l10 -123h-5
c-20.667 10.667 -44.167 19.5 -70.5 26.5s-57.5 10.5 -93.5 10.5c-21.333 0 -39.333 -2 -54 -6s-26.5 -9.5 -35.5 -16.5s-15.333 -15.5 -19 -25.5s-5.5 -21 -5.5 -33c0 -13.333 2.33301 -24.333 7 -33s12 -16.334 22 -23.001s22.5 -12.834 37.5 -18.501
s32.833 -11.5 53.5 -17.5c36 -11.333 67.167 -23.5 93.5 -36.5s48 -28 65 -45s29.5 -36.333 37.5 -58s12 -46.5 12 -74.5c0 -49.333 -12.833 -92.166 -38.5 -128.499s-66.5 -61.833 -122.5 -76.5v-93h-149v83c-27.333 2.66699 -53.833 7.16699 -79.5 13.5
s-45.834 14.166 -60.501 23.499z" />
    <glyph glyph-name="percent" unicode="%" horiz-adv-x="907" 
d="M688 715l93 -91l-537 -584l-97 86zM220 377c-33.333 0 -61.166 4.83105 -83.499 14.498s-40.166 22.5 -53.499 38.5s-22.833 34.667 -28.5 56s-8.5 43.666 -8.5 66.999c0 52 15.833 94.5 47.5 127.5s77.5 49.5 137.5 49.5c30.667 0 57 -4.33301 79 -13
s39.667 -20.5 53 -35.5s23.166 -33 29.499 -54s9.5 -43.833 9.5 -68.5c0 -25.333 -3.33301 -49.166 -10 -71.499s-17.334 -41.666 -32.001 -57.999s-33.5 -29.166 -56.5 -38.499s-50.833 -14 -83.5 -14zM224 461.998c17.333 0 31.833 7.16699 43.5 21.5s17.5 37.5 17.5 69.5
s-4.83301 55 -14.5 69s-25.167 21 -46.5 21c-17.333 0 -32.333 -7 -45 -21s-19 -37 -19 -69c0 -34 6 -57.667 18 -71s27.333 -20 46 -20zM678 -11.002c-33.333 0 -61 4.50098 -83 13.501s-39.667 21.167 -53 36.5s-22.833 33.666 -28.5 54.999s-8.5 44.666 -8.5 69.999
s3.66699 48.833 11 70.5s18.5 40.5 33.5 56.5s33.833 28.5 56.5 37.5s49.667 13.5 81 13.5s58 -4.33301 80 -13s39.833 -20.667 53.5 -36s23.667 -33.5 30 -54.5s9.5 -43.833 9.5 -68.5c0 -25.333 -3.66699 -49 -11 -71s-18.5 -41.167 -33.5 -57.5s-34 -29.166 -57 -38.499
s-49.833 -14 -80.5 -14zM683 74.999c18 0 33 7.50098 45 22.501s18 37.833 18 68.5c0 28 -4.83301 50.167 -14.5 66.5s-25.5 24.5 -47.5 24.5c-17.333 0 -32 -7.16699 -44 -21.5s-18 -37.5 -18 -69.5c0 -18 1.5 -33 4.5 -45s7.33301 -21.333 13 -28
s12.167 -11.334 19.5 -14.001s15.333 -4 24 -4z" />
    <glyph glyph-name="ampersand" unicode="&#x26;" horiz-adv-x="804" 
d="M495 583l-4.99902 0.000976562c-27.333 10.667 -52.5 17.5 -75.5 20.5s-42.833 4.5 -59.5 4.5c-33.333 0 -59.5 -5.83301 -78.5 -17.5s-28.5 -30.834 -28.5 -57.501c0 -25.333 10.667 -45 32 -59s52 -21 92 -21h53l17 -120h-82c-27.333 0 -50 -3.5 -68 -10.5
s-32.333 -15.833 -43 -26.5s-18.167 -22.834 -22.5 -36.501s-6.5 -26.834 -6.5 -39.501c0 -18 3.33301 -33.5 10 -46.5s16 -23.833 28 -32.5s26 -15.167 42 -19.5s33.333 -6.5 52 -6.5c32.667 0 60.834 3.83301 84.501 11.5s43.167 20.834 58.5 39.501
s26.666 43.834 33.999 75.501s11 71.5 11 119.5v94h217l17 -120h-84v-13c0 -57.333 -8.16699 -107 -24.5 -149s-39.5 -76.667 -69.5 -104s-65.833 -47.666 -107.5 -60.999s-87.834 -20 -138.501 -20c-89.333 0 -158.333 18.5 -207 55.5s-73 92.167 -73 165.5
c0 27.333 4 51.666 12 72.999s18.833 39.833 32.5 55.5s29.334 28.5 47.001 38.5s36.5 17.333 56.5 22c-40 13.333 -70.5 32.333 -91.5 57s-31.5 58.334 -31.5 101.001c0 21.333 4.33301 42.5 13 63.5s22.167 39.667 40.5 56s42.166 29.666 71.499 39.999s65 15.5 107 15.5
c37.333 0 69.5 -2.83301 96.5 -8.5s47.167 -11.167 60.5 -16.5z" />
    <glyph glyph-name="quotesingle" unicode="'" horiz-adv-x="250" 
d="M188 719l-8 -259h-108l-10 259h126z" />
    <glyph glyph-name="parenleft" unicode="(" horiz-adv-x="365" 
d="M43 290c0 94.667 16.999 180.668 50.999 258.001s79.333 149 136 215l99 -50c-47.333 -58.667 -82.333 -123 -105 -193s-34 -146.333 -34 -229c0 -48.667 3.66699 -93.667 11 -135s17.333 -79.333 30 -114s27.334 -66.334 44.001 -95.001s34.667 -54.334 54 -77.001
l-99 -49c-21.333 24 -43 51.667 -65 83s-42 66.5 -60 105.5s-32.833 81.833 -44.5 128.5s-17.5 97.334 -17.5 152.001z" />
    <glyph glyph-name="parenright" unicode=")" horiz-adv-x="365" 
d="M322 293c0 -94.667 -17 -180.665 -51 -257.998s-79.333 -149 -136 -215l-99 50c47.333 58.667 82.333 123 105 193s34 146.333 34 229c0 48.667 -3.66699 93.667 -11 135s-17.333 79.333 -30 114s-27.5 66.167 -44.5 94.5s-34.833 54.166 -53.5 77.499l99 49
c21.333 -24 43 -51.667 65 -83s42 -66.5 60 -105.5s32.833 -81.833 44.5 -128.5s17.5 -97.334 17.5 -152.001z" />
    <glyph glyph-name="asterisk" unicode="*" horiz-adv-x="410" 
d="M77 482l69 83l-104 25l28 87l102 -45l-10 108h95l-8 -107l101 44l28 -87l-105 -26l71 -82l-75 -54l-59 96l-60 -96z" />
    <glyph glyph-name="plus" unicode="+" 
d="M369 469v-127h135v-114h-135v-128h-114v128h-139l12 114h127v127h114z" />
    <glyph glyph-name="comma" unicode="," horiz-adv-x="285" 
d="M93 141h150l-97 -268h-108z" />
    <glyph glyph-name="hyphen" unicode="-" horiz-adv-x="325" 
d="M30 341h265v-114h-265v114z" />
    <glyph glyph-name="period" unicode="." horiz-adv-x="315" 
d="M62 76c0 28.667 8.5 50.5 25.5 65.5s39.833 22.5 68.5 22.5c32 0 56.167 -7.5 72.5 -22.5s24.5 -36.5 24.5 -64.5c0 -58.667 -32 -88 -96 -88c-30 0 -53.333 7.5 -70 22.5s-25 36.5 -25 64.5z" />
    <glyph glyph-name="slash" unicode="/" horiz-adv-x="440" 
d="M258 763l128 -24l-219 -874l-129 24z" />
    <glyph glyph-name="zero" unicode="0" horiz-adv-x="641" 
d="M323 731c42.667 0 81.165 -7.16895 115.498 -21.502s63.333 -36.5 87 -66.5s41.834 -68.167 54.501 -114.5s19 -101.5 19 -165.5c0 -66 -6.5 -122.667 -19.5 -170s-31.833 -86.166 -56.5 -116.499s-54.334 -52.666 -89.001 -66.999s-73.667 -21.5 -117 -21.5
c-45.333 0 -85.166 7 -119.499 21s-63 36 -86 66s-40.333 68.5 -52 115.5s-17.5 103.5 -17.5 169.5c0 64 6.66699 119.333 20 166s32.333 85.167 57 115.5s54.334 52.833 89.001 67.5s73 22 115 22zM318.998 109.998c18 0 35.001 3.49805 51.001 10.498s30 19.833 42 38.5
s21.333 44.334 28 77.001s10 74.334 10 125.001c0 50 -3.33301 91 -10 123s-15.667 57.167 -27 75.5s-25 31.166 -41 38.499s-33.333 11 -52 11c-17.333 0 -33.833 -4 -49.5 -12s-29.334 -21.5 -41.001 -40.5s-21 -44.333 -28 -76s-10.5 -71.167 -10.5 -118.5
c0 -49.333 3 -90.166 9 -122.499s14.667 -58 26 -77s24.833 -32.5 40.5 -40.5s33.167 -12 52.5 -12z" />
    <glyph glyph-name="one" unicode="1" horiz-adv-x="460" 
d="M72 124h108v395h-116l10 116h106l11 84h138v-595h96v-124h-353v124z" />
    <glyph glyph-name="two" unicode="2" horiz-adv-x="504" 
d="M35 694c32 14 63.6689 23.6699 95.002 29.0029s61 8 89 8c40 0 74.333 -5 103 -15s52.5 -23.833 71.5 -41.5s33 -39 42 -64s13.5 -52.5 13.5 -82.5c0 -26.667 -3 -53.334 -9 -80.001s-17 -55 -33 -85s-37.833 -62.333 -65.5 -97s-62.834 -73.334 -105.501 -116.001
l-11 -17h236v-133h-431v106l26 28l104.5 114c30.333 34 55.666 65.5 75.999 94.5s35.833 56.667 46.5 83s16 53.166 16 80.499c0 31.333 -9.5 56.333 -28.5 75s-46.833 28 -83.5 28c-30 0 -56.833 -3.83301 -80.5 -11.5s-48.5 -18.5 -74.5 -32.5h-8z" />
    <glyph glyph-name="three" unicode="3" horiz-adv-x="543" 
d="M51 572l12.001 125.998c12.667 5.33301 26.834 10.166 42.501 14.499s31.667 7.83301 48 10.5s32.666 4.66699 48.999 6s31.5 2 45.5 2c74 0 129 -15.333 165 -46s54 -71.334 54 -122.001c0 -40 -10.5 -75.167 -31.5 -105.5s-52.833 -52.166 -95.5 -65.499
c21.333 -5.33301 40.833 -12.5 58.5 -21.5s32.667 -20.667 45 -35s22 -31.666 29 -51.999s10.5 -44.5 10.5 -72.5c0 -32.667 -6 -62.667 -18 -90s-29.333 -50.833 -52 -70.5s-50.167 -35 -82.5 -46s-68.833 -16.5 -109.5 -16.5c-34 0 -66.833 3 -98.5 9
s-59.167 13.667 -82.5 23l-2 134c60 -24.667 115 -37 165 -37c24.667 0 45.334 2.83301 62.001 8.5s30.167 13.5 40.5 23.5s17.666 21.833 21.999 35.5s6.5 28.5 6.5 44.5c0 22 -4.5 40 -13.5 54s-21.333 24.833 -37 32.5s-34.334 12.334 -56.001 14.001
s-45.5 0.5 -71.5 -3.5l16 124c50 -3.33301 86.833 2.83398 110.5 18.501s35.5 37.167 35.5 64.5c0 16 -3 29 -9 39s-14 17.667 -24 23s-21.667 9 -35 11s-27 3 -41 3c-23.333 0 -47 -2.83301 -71 -8.5s-50 -15.167 -78 -28.5h-9z" />
    <glyph glyph-name="four" unicode="4" horiz-adv-x="595" 
d="M345 464h129v-205h92v-116h-93v-143h-128v143h-319v102l204 474h150l-189 -460h154v205z" />
    <glyph glyph-name="five" unicode="5" horiz-adv-x="552" 
d="M255 341c-24 0 -44.3301 -3.99805 -60.9971 -11.998s-33.334 -18.667 -50.001 -32l-93 36l28 386h406v-122h-280l-13 -161c9.33301 7.33301 24.166 14.333 44.499 21s43.5 10 69.5 10c70.667 0 123.334 -19.333 158.001 -58s52 -95.334 52 -170.001
c0 -77.333 -23.833 -138.5 -71.5 -183.5s-116.834 -67.5 -207.501 -67.5c-37.333 0 -71.833 2.5 -103.5 7.5s-60.167 13.5 -85.5 25.5l-2 134c28.667 -12.667 57.167 -22.167 85.5 -28.5s57.5 -9.5 87.5 -9.5c48 0 83 11 105 33s33 50.667 33 86
c0 31.333 -7.33301 56.666 -22 75.999s-41.334 29 -80.001 29z" />
    <glyph glyph-name="six" unicode="6" horiz-adv-x="576" 
d="M521 568l-3.00293 -0.998047c-20.667 11.333 -45 21.166 -73 29.499s-56 12.5 -84 12.5c-29.333 0 -54.166 -4.83301 -74.499 -14.5s-36.833 -23.667 -49.5 -42s-22.167 -40.5 -28.5 -66.5s-10.166 -55 -11.499 -87c14.667 20 35.334 36.667 62.001 50
s55.334 20 86.001 20c36.667 0 67.834 -6 93.501 -18s46.667 -28.333 63 -49s28.166 -44.5 35.499 -71.5s11 -55.833 11 -86.5c0 -39.333 -5.83301 -74.833 -17.5 -106.5s-28.334 -58.5 -50.001 -80.5s-48.167 -39 -79.5 -51s-67 -18 -107 -18
c-38 0 -72.833 5.83301 -104.5 17.5s-59 30.667 -82 57s-41 60.333 -54 102s-19.5 92.5 -19.5 152.5c0 72.667 7.16699 135.167 21.5 187.5s35 95.166 62 128.499s59.667 58 98 74s81.5 24 129.5 24c35.333 0 66.333 -3.66699 93 -11s50.667 -16 72 -26zM298.997 349.002
c-32.667 0 -58.334 -10.333 -77.001 -31s-28 -51 -28 -91c0 -43.333 9.16699 -74.166 27.5 -92.499s41.5 -27.5 69.5 -27.5c30.667 0 55.334 10 74.001 30s28 51.667 28 95c0 35.333 -7.16699 63.666 -21.5 84.999s-38.5 32 -72.5 32z" />
    <glyph glyph-name="seven" unicode="7" horiz-adv-x="542" 
d="M24 719h498v-127l-222 -592h-160l222 592h-208v-103l-130 -10v240z" />
    <glyph glyph-name="eight" unicode="8" horiz-adv-x="599" 
d="M31 193c0 42.667 9.66797 78.8301 29.001 108.497s46.666 51.5 81.999 65.5c-30 14.667 -52.833 35.167 -68.5 61.5s-23.5 56.5 -23.5 90.5c0 35.333 6.5 66.333 19.5 93s30.833 48.834 53.5 66.501s49.667 30.834 81 39.501s65 13 101 13c35.333 0 67.5 -4 96.5 -12
s53.833 -20.167 74.5 -36.5s36.667 -37 48 -62s17 -54.5 17 -88.5c0 -13.333 -1.5 -27 -4.5 -41s-8 -28 -15 -42s-16.333 -27.667 -28 -41s-26.5 -25.666 -44.5 -36.999c39.333 -11.333 69 -31.333 89 -60s30 -63 30 -103c0 -70 -24 -124.167 -72 -162.5
s-114.667 -57.5 -200 -57.5c-91.333 0 -158.333 18.667 -201 56s-64 87 -64 149zM225.001 300.996c-14.667 -11.333 -26.001 -24.668 -34.001 -40.001s-12 -33.333 -12 -54c0 -27.333 9.33301 -50.5 28 -69.5s49.667 -28.5 93 -28.5c22.667 0 41.834 2.83301 57.501 8.5
s28.5 13.334 38.5 23.001s17.167 20.667 21.5 33s6.5 25.5 6.5 39.5c0 16.667 -2.5 30.5 -7.5 41.5s-11.667 20 -20 27s-18 12 -29 15s-22.833 4.5 -35.5 4.5h-107zM192 514.994c0 -15.333 2.49805 -28.5 7.49805 -39.5s11.667 -20 20 -27s17.833 -12.167 28.5 -15.5
s21.334 -5 32.001 -5h79c14 11.333 24.167 25 30.5 41s9.5 33.333 9.5 52c0 30 -8.16699 52.5 -24.5 67.5s-42.166 22.5 -77.499 22.5c-36 0 -62.5 -8.5 -79.5 -25.5s-25.5 -40.5 -25.5 -70.5z" />
    <glyph glyph-name="nine" unicode="9" horiz-adv-x="576" 
d="M57 154l3.00098 1.00195c16 -9.33301 38.167 -18.5 66.5 -27.5s60.5 -13.5 96.5 -13.5c28.667 0 52.5 5 71.5 15s34.5 23.833 46.5 41.5s21 38.667 27 63s10 50.5 12 78.5c-18 -19.333 -39 -35.166 -63 -47.499s-52 -18.5 -84 -18.5
c-35.333 0 -66.166 5.66699 -92.499 17s-48.166 27.166 -65.499 47.499s-30.5 44.333 -39.5 72s-13.5 58.167 -13.5 91.5c0 44 6.66699 82.167 20 114.5s31.666 59 54.999 80s50.333 36.667 81 47s63.667 15.5 99 15.5c84.667 0 148.5 -27.333 191.5 -82
s64.5 -135.334 64.5 -242.001c0 -58.667 -4.33301 -113.5 -13 -164.5s-23.834 -95.333 -45.501 -133s-51.334 -67.334 -89.001 -89.001s-85.5 -32.5 -143.5 -32.5c-32.667 0 -62.5 2.33301 -89.5 7s-55.167 13.667 -84.5 27zM275.001 371.002c32 0 57 10.5 75 31.5
s27 51.5 27 91.5c0 38 -8.33301 67.167 -25 87.5s-41.334 30.5 -74.001 30.5c-31.333 0 -56.666 -9.83301 -75.999 -29.5s-29 -51.167 -29 -94.5c0 -78 34 -117 102 -117z" />
    <glyph glyph-name="colon" unicode=":" horiz-adv-x="317" 
d="M63 383c0 28.667 8.5 50.5 25.5 65.5s39.833 22.5 68.5 22.5c32 0 56.167 -7.5 72.5 -22.5s24.5 -36.5 24.5 -64.5c0 -58.667 -32 -88 -96 -88c-30 0 -53.333 7.5 -70 22.5s-25 36.5 -25 64.5zM63 76c0 28.667 8.5 50.5 25.5 65.5s39.833 22.5 68.5 22.5
c32 0 56.167 -7.5 72.5 -22.5s24.5 -36.5 24.5 -64.5c0 -58.667 -32 -88 -96 -88c-30 0 -53.333 7.5 -70 22.5s-25 36.5 -25 64.5z" />
    <glyph glyph-name="semicolon" unicode=";" horiz-adv-x="317" 
d="M83 141h150l-97 -268h-108zM63 383c0 28.667 8.5 50.5 25.5 65.5s39.833 22.5 68.5 22.5c32 0 56.167 -7.5 72.5 -22.5s24.5 -36.5 24.5 -64.5c0 -58.667 -32 -88 -96 -88c-30 0 -53.333 7.5 -70 22.5s-25 36.5 -25 64.5z" />
    <glyph glyph-name="less" unicode="&#x3c;" 
d="M106 368l386 131l22 -118l-279 -88v-2l279 -84l-20 -104l-388 112v153z" />
    <glyph glyph-name="equal" unicode="=" 
d="M130 241h373v-114h-386zM130 419h373v-114h-386z" />
    <glyph glyph-name="greater" unicode="&#x3e;" 
d="M514 215l-388 -112l-20 104l279 84v2l-279 88l22 118l386 -131v-153z" />
    <glyph glyph-name="question" unicode="?" horiz-adv-x="484" 
d="M128 374l55.999 36c30 19.333 53.167 39.333 69.5 60s24.5 43.334 24.5 68.001c0 25.333 -7.16699 44.666 -21.5 57.999s-37.5 20 -69.5 20c-23.333 0 -45.666 -2 -66.999 -6s-40.666 -8.66699 -57.999 -14l18 117c14.667 5.33301 34 9.83301 58 13.5s55 5.5 93 5.5
c66.667 0 117.167 -15.5 151.5 -46.5s51.5 -74.833 51.5 -131.5c0 -36.667 -9.33301 -71 -28 -103s-48.334 -62 -89.001 -90l-48 -33l-7 -92h-129zM99.999 76c0 28.667 8.5 50.5 25.5 65.5s39.833 22.5 68.5 22.5c32 0 56.167 -7.5 72.5 -22.5s24.5 -36.5 24.5 -64.5
c0 -58.667 -32 -88 -96 -88c-30 0 -53.333 7.5 -70 22.5s-25 36.5 -25 64.5z" />
    <glyph glyph-name="at" unicode="@" horiz-adv-x="1004" 
d="M453 502c34.667 0 65.665 -3.32812 92.998 -9.99512s50.5 -17.834 69.5 -33.501s33.5 -35.834 43.5 -60.501s15 -55 15 -91v-160c0 -15.333 1.66699 -25.833 5 -31.5s9 -8.5 17 -8.5c10 0 20.667 1.66699 32 5l-6 -106c-7.33301 -3.33301 -16.333 -6.5 -27 -9.5
s-26 -4.5 -46 -4.5c-24.667 0 -45.5 5.66699 -62.5 17s-28.167 27.333 -33.5 48c-13.333 -19.333 -31.333 -35 -54 -47s-52.667 -18 -90 -18c-25.333 0 -47.5 3.83301 -66.5 11.5s-34.667 18.167 -47 31.5s-21.5 28.5 -27.5 45.5s-9 35.167 -9 54.5
c0 29.333 5.33301 53.666 16 72.999s24.667 34.833 42 46.5s37 20.167 59 25.5s44 8.66602 66 9.99902l92 6v23c0 25.333 -7.66699 45 -23 59s-43 21 -83 21c-25.333 0 -53.333 -2.83301 -84 -8.5s-59.334 -17.5 -86.001 -35.5s-49 -43.667 -67 -77s-27 -77.333 -27 -132
c0 -41.333 6.5 -78.833 19.5 -112.5s32.667 -62.5 59 -86.5s59.333 -42.667 99 -56s85.834 -20 138.501 -20c54 0 103.167 8.5 147.5 25.5s82.333 41.333 114 73s56.167 70.5 73.5 116.5s26 98 26 156c0 43.333 -6.33301 85.833 -19 127.5s-33 78.667 -61 111
s-64.333 58.333 -109 78s-98.667 29.5 -162 29.5c-56 0 -110 -6.5 -162 -19.5s-98.333 -29.5 -139 -49.5l-7 3l24 102c10.667 4.66699 25.5 10.334 44.5 17.001s41.5 13.167 67.5 19.5s55 11.666 87 15.999s66.667 6.5 104 6.5c72 0 135.5 -11 190.5 -33
s101.333 -52 139 -90s66 -82.833 85 -134.5s28.5 -106.834 28.5 -165.501c0 -62 -7.16699 -117 -21.5 -165s-33.666 -89.833 -57.999 -125.5s-52.5 -65.667 -84.5 -90s-65.667 -44 -101 -59s-71.333 -25.667 -108 -32s-71.667 -9.5 -105 -9.5
c-64.667 0 -123 7.66699 -175 23s-96.333 38.166 -133 68.499s-64.834 67.833 -84.501 112.5s-29.5 96 -29.5 154c0 52 6.83301 97.167 20.5 135.5s31.834 71 54.501 98s48.334 49 77.001 66s57.834 30.333 87.501 40s58.667 16.334 87 20.001s53.166 5.5 74.499 5.5z
M459.998 97.0049c24 0 42.5 6.16895 55.5 18.502s19.5 29.166 19.5 50.499v43l-60 -3c-21.333 -1.33301 -39 -6 -53 -14s-21 -22.667 -21 -44c0 -14.667 4 -26.834 12 -36.501s23.667 -14.5 47 -14.5z" />
    <glyph glyph-name="A" unicode="A" horiz-adv-x="701" 
d="M258 719h189l242 -719h-159l-55 168h-252l-53 -168h-159zM253 284h195l-100 305z" />
    <glyph glyph-name="B" unicode="B" horiz-adv-x="644" 
d="M78 719l273.999 0.00585938c41.333 0 76.333 -4 105 -12s51.834 -19.333 69.501 -34s30.5 -32.834 38.5 -54.501s12 -45.834 12 -72.501c0 -46.667 -10.833 -84.167 -32.5 -112.5s-52.5 -47.833 -92.5 -58.5v-2c23.333 -2 44.833 -6.5 64.5 -13.5s36.5 -17.333 50.5 -31
s25 -30.834 33 -51.501s12 -45.667 12 -75c0 -30.667 -5.16699 -58.334 -15.5 -83.001s-26.333 -45.834 -48 -63.501s-49.5 -31.334 -83.5 -41.001s-74.333 -14.5 -121 -14.5h-266v719zM324.999 124.006c40 0 71.168 6.5 93.501 19.5s33.5 38.167 33.5 75.5
c0 19.333 -3.5 34.666 -10.5 45.999s-16 19.833 -27 25.5s-23.333 9.33398 -37 11.001s-26.834 2.5 -39.501 2.5h-105v-180h92zM309 424.006c36 0 65.333 7 88 21s34 38 34 72c0 32 -8.66699 53 -26 63s-41 15 -71 15h-101v-171h76z" />
    <glyph glyph-name="C" unicode="C" horiz-adv-x="612" 
d="M404 118c29.333 0 59.3359 2.99512 90.0029 8.99512s57.667 13.667 81 23h5l-15 -130c-9.33301 -4 -20.833 -7.83301 -34.5 -11.5s-28.834 -7 -45.501 -10s-34.167 -5.5 -52.5 -7.5s-36.166 -3 -53.499 -3c-56 0 -105 8.83301 -147 26.5s-77 42.334 -105 74.001
s-49.167 69.5 -63.5 113.5s-21.5 92.333 -21.5 145c0 53.333 7.33301 103.333 22 150s36.167 87.334 64.5 122.001s63.666 62 105.999 82s91.5 30 147.5 30c40 0 75.167 -3.33301 105.5 -10s53.833 -13 70.5 -19l13 -132h-5c-10 4 -21.833 7.83301 -35.5 11.5
s-27.834 7 -42.501 10s-29.5 5.33301 -44.5 7s-29.167 2.5 -42.5 2.5c-28.667 0 -55.167 -4.66699 -79.5 -14s-45.333 -23.666 -63 -42.999s-31.5 -44.166 -41.5 -74.499s-15 -66.833 -15 -109.5c0 -25.333 2.33301 -52.166 7 -80.499s14.167 -54.5 28.5 -78.5
s34.666 -43.833 60.999 -59.5s61.5 -23.5 105.5 -23.5z" />
    <glyph glyph-name="D" unicode="D" horiz-adv-x="713" 
d="M78 719l262.002 0.000976562c44 0 85.833 -6 125.5 -18s74.667 -31.167 105 -57.5s54.5 -60.833 72.5 -103.5s27 -94.667 27 -156c0 -69.333 -8.5 -128.333 -25.5 -177s-41.833 -88.334 -74.5 -119.001s-72.834 -53 -120.501 -67s-101.834 -21 -162.501 -21h-209v719z
M300.002 117.001c26.667 0 52.668 3.5 78.001 10.5s47.666 20 66.999 39s35 45 47 78s18 75.5 18 127.5c0 56.667 -7 100.5 -21 131.5s-32.167 53.833 -54.5 68.5s-47.333 23.5 -75 26.5s-55.5 4.5 -83.5 4.5h-43v-486h67z" />
    <glyph glyph-name="E" unicode="E" horiz-adv-x="584" 
d="M78 719h454v-125h-299v-170h257v-121h-257v-178h299v-125h-454v719z" />
    <glyph glyph-name="F" unicode="F" horiz-adv-x="562" 
d="M78 719h454v-125h-299v-193h257v-120h-257v-281h-155v719z" />
    <glyph glyph-name="G" unicode="G" horiz-adv-x="682" 
d="M388 112c24.667 0 43.5 1.83301 56.5 5.5s20.5 6.16699 22.5 7.5v131h-107v113h260v-334c-10 -6 -23.667 -11.667 -41 -17s-36.833 -10.333 -58.5 -15s-45 -8.33398 -70 -11.001s-50.167 -4 -75.5 -4c-58 0 -108 9.16699 -150 27.5s-76.5 43.833 -103.5 76.5
s-47 71.5 -60 116.5s-19.5 94.167 -19.5 147.5c0 50 7.16699 97.5 21.5 142.5s36.333 84.833 66 119.5s67.334 62.167 113.001 82.5s100.167 30.5 163.5 30.5c40 0 75.667 -3.33301 107 -10s55.333 -13 72 -19l13 -135h-4c-20.667 8 -47 15.667 -79 23s-64 11 -96 11
c-26 0 -51.833 -3.5 -77.5 -10.5s-48.834 -19.667 -69.501 -38s-37.5 -43.333 -50.5 -75s-19.5 -72.5 -19.5 -122.5c0 -81.333 16 -142.166 48 -182.499s78 -60.5 138 -60.5z" />
    <glyph glyph-name="H" unicode="H" horiz-adv-x="746" 
d="M514 719h154v-719h-154v291h-281v-291h-155v719h155v-294h281v294z" />
    <glyph glyph-name="I" unicode="I" horiz-adv-x="311" 
d="M233 0h-155v719h155v-719z" />
    <glyph glyph-name="J" unicode="J" horiz-adv-x="486" 
d="M70 719h348v-522c0 -33.333 -3.66699 -63 -11 -89s-19.333 -47.833 -36 -65.5s-38.667 -31.167 -66 -40.5s-61.333 -14 -102 -14c-34 0 -66.167 2.83301 -96.5 8.5s-52.833 11.5 -67.5 17.5l-8 124h4c20.667 -7.33301 41.5 -13 62.5 -17s43.833 -6 68.5 -6
c18.667 0 34.167 1.66699 46.5 5s22.333 9.5 30 18.5s13.167 21.167 16.5 36.5s5 35 5 59v360h-194v125z" />
    <glyph glyph-name="K" unicode="K" horiz-adv-x="666" 
d="M233 366l239 353h173l-247 -344l262 -375h-180l-247 358v-358h-155v719h155v-353z" />
    <glyph glyph-name="L" unicode="L" horiz-adv-x="572" 
d="M78 719h155v-594h289v-125h-444v719z" />
    <glyph glyph-name="M" unicode="M" horiz-adv-x="908" 
d="M830 0h-145v602h-3l-143 -542h-176l-136 542h-3v-602h-146v719h243l131 -534h4l130 534h244v-719z" />
    <glyph glyph-name="N" unicode="N" horiz-adv-x="750" 
d="M531 719h141v-719h-190l-260 513h-3v-513h-141v719h198l252 -519h3v519z" />
    <glyph glyph-name="O" unicode="O" horiz-adv-x="745" 
d="M368 -12c-59.333 0 -109.666 10.001 -150.999 30.001s-75 46.833 -101 80.5s-44.833 72 -56.5 115s-17.5 87.5 -17.5 133.5c0 54.667 7 105.5 21 152.5s35.333 87.667 64 122s64.167 61.166 106.5 80.499s92.166 29 149.499 29s106.166 -9.83301 146.499 -29.5
s73.333 -46 99 -79s44.334 -71.333 56.001 -115s17.5 -89.5 17.5 -137.5c0 -50.667 -6.16699 -99.167 -18.5 -145.5s-31.833 -87 -58.5 -122s-61.167 -62.833 -103.5 -83.5s-93.5 -31 -153.5 -31zM373 115.001c58.667 0 102.5 21.168 131.5 63.501s43.5 104.833 43.5 187.5
c0 36 -2.83301 68.667 -8.5 98s-15.167 54.333 -28.5 75s-30.833 36.667 -52.5 48s-48.5 17 -80.5 17c-58.667 0 -103.5 -21 -134.5 -63s-46.5 -104 -46.5 -186c0 -82.667 15.167 -143.334 45.5 -182.001s73.833 -58 130.5 -58z" />
    <glyph glyph-name="P" unicode="P" horiz-adv-x="648" 
d="M78 0l-0.00195312 719.002h265c52.667 0 96.834 -5.66699 132.501 -17s64.334 -27.5 86.001 -48.5s37 -46.5 46 -76.5s13.5 -63.333 13.5 -100c0 -41.333 -6.66699 -78.333 -20 -111s-32.333 -60.334 -57 -83.001s-54.667 -39.834 -90 -51.501s-75 -17.5 -119 -17.5h-102
v-214h-155zM326.998 339.002c42.667 0 75.667 10.833 99 32.5s35 55.5 35 101.5c0 43.333 -9.83301 74.5 -29.5 93.5s-47.5 28.5 -83.5 28.5h-115v-256h94z" />
    <glyph glyph-name="Q" unicode="Q" horiz-adv-x="745" 
d="M290 -58c0 6.66699 0.337891 13.998 1.00488 21.998s2 18 4 30c-46 8 -85 23.167 -117 45.5s-58.167 49.5 -78.5 81.5s-35 67.333 -44 106s-13.5 78.667 -13.5 120c0 54.667 7 105.5 21 152.5s35.333 87.667 64 122s64.167 61.166 106.5 80.499s92.166 29 149.499 29
s106.166 -9.83301 146.499 -29.5s73.333 -46 99 -79s44.334 -71.333 56.001 -115s17.5 -89.5 17.5 -137.5c0 -45.333 -4.83301 -88.666 -14.5 -129.999s-24.834 -78.833 -45.501 -112.5s-47.334 -62.167 -80.001 -85.5s-72 -39 -118 -47
c-1.33301 -5.33301 -2.16602 -10.166 -2.49902 -14.499s-0.5 -7.5 -0.5 -9.5c0 -12 3.66699 -20.333 11 -25s22.666 -7 45.999 -7c8 0 17.667 0.333008 29 1s23.166 1.66699 35.499 3s24.5 3 36.5 5s23 4.66699 33 8h5l-14 -120c-6.66699 -2 -16.334 -3.83301 -29.001 -5.5
s-26.5 -3.16699 -41.5 -4.5s-30.667 -2.33301 -47 -3s-31.5 -1 -45.5 -1c-23.333 0 -45.333 1.5 -66 4.5s-38.667 8.83301 -54 17.5s-27.5 20.834 -36.5 36.501s-13.5 36.167 -13.5 61.5zM373.005 114.998c58.667 0 102.5 21.168 131.5 63.501s43.5 104.833 43.5 187.5
c0 36 -2.83301 68.667 -8.5 98s-15.167 54.333 -28.5 75s-30.833 36.667 -52.5 48s-48.5 17 -80.5 17c-58.667 0 -103.5 -21 -134.5 -63s-46.5 -104 -46.5 -186c0 -82.667 15.167 -143.334 45.5 -182.001s73.833 -58 130.5 -58z" />
    <glyph glyph-name="R" unicode="R" horiz-adv-x="665" 
d="M78 0v719h263c54.667 0 99.667 -5.5 135 -16.5s63.5 -26.5 84.5 -46.5s35.667 -44 44 -72s12.5 -59 12.5 -93c0 -49.333 -11.167 -91.333 -33.5 -126s-53.5 -61.667 -93.5 -81l152 -284h-167l-124 251h-118v-251h-155zM328 370c38 0 69 9.33301 93 28s36 49 36 91
c0 40.667 -9.83301 68.5 -29.5 83.5s-47.5 22.5 -83.5 22.5h-111v-225h95z" />
    <glyph glyph-name="S" unicode="S" horiz-adv-x="507" 
d="M31 152l4.99805 -0.000976562c12.667 -6 27 -11.667 43 -17s32.5 -9.66602 49.5 -12.999s33.5 -6 49.5 -8s30.333 -3 43 -3c34.667 0 62.834 6.66699 84.501 20s32.5 35.666 32.5 66.999c0 23.333 -7.66699 41.666 -23 54.999s-34.5 24.833 -57.5 34.5
s-47.833 19.5 -74.5 29.5s-51.5 23 -74.5 39s-42.167 36.833 -57.5 62.5s-23 59.5 -23 101.5c0 26 4.5 51.5 13.5 76.5s23.333 47.5 43 67.5s45 36.167 76 48.5s68.5 18.5 112.5 18.5c14.667 0 30 -0.833008 46 -2.5s31.5 -3.83398 46.5 -6.50098
s29.167 -5.83398 42.5 -9.50098s25 -7.5 35 -11.5l9 -123h-4c-23.333 9.33301 -49.5 17 -78.5 23s-55.833 9 -80.5 9c-40 0 -69.167 -6.66699 -87.5 -20s-27.5 -32.666 -27.5 -57.999c0 -22 7.66699 -39.333 23 -52s34.5 -23.834 57.5 -33.501s48 -19.5 75 -29.5
s52 -23.167 75 -39.5s42.167 -37.5 57.5 -63.5s23 -59.667 23 -101c0 -24 -4 -49.167 -12 -75.5s-21.667 -50.666 -41 -72.999s-45.333 -40.666 -78 -54.999s-73.334 -21.5 -122.001 -21.5c-17.333 0 -35.666 1.16699 -54.999 3.5s-37.833 5.33301 -55.5 9
s-33.667 7.83398 -48 12.501s-25.166 9.33398 -32.499 14.001z" />
    <glyph glyph-name="T" unicode="T" horiz-adv-x="579" 
d="M10 719h559v-134h-197v-585h-155v585h-207v134z" />
    <glyph glyph-name="U" unicode="U" horiz-adv-x="704" 
d="M351 -12c-51.333 0 -95.0029 5.66895 -131.003 17.002s-65.167 31 -87.5 59s-38.666 66 -48.999 114s-15.5 109 -15.5 183v358h155v-443c0 -24.667 1.83301 -46.834 5.5 -66.501s10.334 -36.5 20.001 -50.5s23 -24.667 40 -32s39.167 -11 66.5 -11
c26.667 0 48.334 4.16699 65.001 12.5s29.5 19.666 38.5 33.999s15 31 18 50s4.5 39.5 4.5 61.5v445h155v-360c0 -60 -4 -113 -12 -159s-22.667 -84.833 -44 -116.5s-50.5 -55.5 -87.5 -71.5s-84.167 -24 -141.5 -24z" />
    <glyph glyph-name="V" unicode="V" horiz-adv-x="655" 
d="M418 0h-190l-227 719h160l165 -575h3l175 575h151z" />
    <glyph glyph-name="W" unicode="W" horiz-adv-x="916" 
d="M357 719h156l137 -556h4l121 556h148l-179 -719h-193l-93 351h-3l-88 -351h-174l-201 719h159l142 -555l3 -1l103 406z" />
    <glyph glyph-name="X" unicode="X" horiz-adv-x="630" 
d="M28 719h163l136 -252l150 252h149l-216 -358l221 -361h-169l-148 246l-157 -246h-155l233 363z" />
    <glyph glyph-name="Y" unicode="Y" horiz-adv-x="619" 
d="M-4 719h169l146 -339h3l142 339h167l-238 -481v-238h-154v237z" />
    <glyph glyph-name="Z" unicode="Z" horiz-adv-x="576" 
d="M53 719h485v-125l-325 -466h331v-128h-508v122l326 465h-309v132z" />
    <glyph glyph-name="bracketleft" unicode="[" horiz-adv-x="359" 
d="M88 733h236l9 -103h-116v-676h116l-9 -103h-236v882z" />
    <glyph glyph-name="backslash" unicode="\" horiz-adv-x="440" 
d="M402 -111l-129 -24l-219 874l128 24z" />
    <glyph glyph-name="bracketright" unicode="]" horiz-adv-x="359" 
d="M271 -151h-236l-9 103h116v676h-116l9 103h236v-882z" />
    <glyph glyph-name="asciicircum" unicode="^" horiz-adv-x="630" 
d="M384 663l206 -378h-153l-120 256h-4l-121 -256h-153l201 378h144z" />
    <glyph glyph-name="underscore" unicode="_" horiz-adv-x="545" 
d="M0 -115h545v-114h-545v114z" />
    <glyph glyph-name="grave" unicode="`" horiz-adv-x="500" 
d="M329 555h-119l-136 163h156z" />
    <glyph glyph-name="a" unicode="a" horiz-adv-x="528" 
d="M78 468c10.667 3.33301 23.3291 6.50488 37.9961 9.50488s30.167 5.83301 46.5 8.5s33 4.66699 50 6s33.167 2 48.5 2c32 0 60.333 -3 85 -9s45.334 -16.167 62.001 -30.5s29.334 -33.5 38.001 -57.5s13 -54 13 -90v-164c0 -15.333 1.66699 -25.833 5 -31.5
s9 -8.5 17 -8.5c11.333 0 22 1.66699 32 5l-5 -106c-7.33301 -3.33301 -18 -6.5 -32 -9.5s-30.667 -4.5 -50 -4.5c-25.333 0 -46.5 5.66699 -63.5 17s-28.167 27.666 -33.5 48.999c-13.333 -20 -32.166 -36 -56.499 -48s-55.166 -18 -92.499 -18
c-28 0 -51.833 3.83301 -71.5 11.5s-35.667 18.167 -48 31.5s-21.333 28.666 -27 45.999s-8.5 35.666 -8.5 54.999c0 29.333 5 53.666 15 72.999s23.833 34.833 41.5 46.5s38.167 20.167 61.5 25.5s48.333 9 75 11l93 6v24c0 13.333 -1.83301 24 -5.5 32s-9 14 -16 18
s-15.5 6.66699 -25.5 8s-21 2 -33 2c-24 0 -50 -2.83301 -78 -8.5s-53.667 -11.834 -77 -18.501h-5zM234.995 93.0049c24.667 0 43.666 6.33203 56.999 18.999s20 29.667 20 51v44l-61 -4c-21.333 -1.33301 -39.166 -6.16602 -53.499 -14.499s-21.5 -23.166 -21.5 -44.499
c0 -14.667 4 -26.834 12 -36.501s23.667 -14.5 47 -14.5z" />
    <glyph glyph-name="b" unicode="b" horiz-adv-x="568" 
d="M207 719v-277l4 -1c29.333 35.333 74 53 134 53c24.667 0 48.5 -4 71.5 -12s43.333 -21.333 61 -40s31.834 -43.167 42.501 -73.5s16 -67.833 16 -112.5c0 -40.667 -5 -77.5 -15 -110.5s-24.333 -61.167 -43 -84.5s-41.5 -41.333 -68.5 -54s-57.5 -19 -91.5 -19
c-22.667 0 -45.334 4.16699 -68.001 12.5s-41.667 20.833 -57 37.5l-7 -38h-128v719h149zM382 258c0 44.667 -7.66699 76.167 -23 94.5s-38 27.5 -68 27.5c-25.333 0 -45.666 -6.83301 -60.999 -20.5s-23 -33.5 -23 -59.5v-166c6 -6 15.667 -11.667 29 -17
s27.666 -8 42.999 -8c36 0 62.167 12.167 78.5 36.5s24.5 61.833 24.5 112.5z" />
    <glyph glyph-name="c" unicode="c" horiz-adv-x="458" 
d="M304 106c20.667 0 41.666 2.16504 62.999 6.49805s40.666 10.5 57.999 18.5h5l-11 -116c-9.33301 -4.66699 -20.166 -8.66699 -32.499 -12s-24.833 -6.16602 -37.5 -8.49902s-25 -4 -37 -5s-22 -1.5 -30 -1.5c-46 0 -84.833 6.5 -116.5 19.5s-57.5 31 -77.5 54
s-34.333 49.833 -43 80.5s-13 64 -13 100c0 38 5.5 72.5 16.5 103.5s27.167 57.5 48.5 79.5s47.833 39 79.5 51s68.167 18 109.5 18c10 0 21 -0.5 33 -1.5s24.167 -2.66699 36.5 -5s24 -5.16602 35 -8.49902s20.5 -7 28.5 -11l7 -119h-4
c-19.333 8.66699 -39.666 15.167 -60.999 19.5s-41.666 6.5 -60.999 6.5c-17.333 0 -33.333 -2 -48 -6s-27.167 -11 -37.5 -21s-18.5 -23.167 -24.5 -39.5s-9 -36.5 -9 -60.5c0 -52 11.167 -88.667 33.5 -110s52.166 -32 89.499 -32z" />
    <glyph glyph-name="d" unicode="d" horiz-adv-x="568" 
d="M510 0l-130.001 -0.000976562l-6 54h-4c-10 -17.333 -26.333 -32.666 -49 -45.999s-51 -20 -85 -20c-28.667 0 -55.5 4.5 -80.5 13.5s-46.667 23.333 -65 43s-32.666 45 -42.999 76s-15.5 68.833 -15.5 113.5c0 40 5.33301 76.167 16 108.5s25.667 59.666 45 81.999
s42.5 39.5 69.5 51.5s56.833 18 89.5 18c19.333 0 38.5 -2.16699 57.5 -6.5s36.167 -12.166 51.5 -23.499v255h149v-719zM360.999 351.999c-8.66699 6.66699 -19.168 12.334 -31.501 17.001s-26.166 7 -41.499 7c-14.667 0 -28.167 -2.5 -40.5 -7.5s-23 -13 -32 -24
s-16 -25.5 -21 -43.5s-7.5 -40 -7.5 -66c0 -89.333 31.333 -134 94 -134c25.333 0 45 7.16699 59 21.5s21 34.166 21 59.499v170z" />
    <glyph glyph-name="e" unicode="e" horiz-adv-x="518" 
d="M189 203c0.666992 -13.333 3.33203 -25.833 7.99902 -37.5s12 -21.834 22 -30.501s22.833 -15.5 38.5 -20.5s35.167 -7.5 58.5 -7.5c12.667 0 25.834 0.833008 39.501 2.5s27.167 4 40.5 7s26 6.16699 38 9.5s22 7 30 11h5l-13 -117
c-15.333 -7.33301 -37.5 -14.5 -66.5 -21.5s-61.5 -10.5 -97.5 -10.5c-47.333 0 -87.333 6.33301 -120 19s-59.5 30.167 -80.5 52.5s-36.167 48.833 -45.5 79.5s-14 64.334 -14 101.001c0 43.333 6.33301 81 19 113s29.834 58.5 51.501 79.5s47.167 36.5 76.5 46.5
s60.666 15 93.999 15c38.667 0 71.5 -5.66699 98.5 -17s49 -27 66 -47s29.333 -43.667 37 -71s11.5 -57 11.5 -89c0 -9.33301 -0.166992 -20.5 -0.5 -33.5s-0.833008 -24.167 -1.5 -33.5h-295zM270.998 388c-24.667 0 -44.5 -7.83203 -59.5 -23.499
s-22.833 -38.834 -23.5 -69.501h156c0.666992 30 -4.5 53 -15.5 69s-30.167 24 -57.5 24z" />
    <glyph glyph-name="f" unicode="f" horiz-adv-x="362" 
d="M237 375v-375.001h-149v375h-78v107h78v72c0 37.333 5.5 67.333 16.5 90s25 40 42 52s35.333 20 55 24s38.167 6 55.5 6c19.333 0 38 -1.66699 56 -5s32.667 -7 44 -11l12 -113h-5c-11.333 4 -23 7.16699 -35 9.5s-23.667 3.5 -35 3.5c-12.667 0 -22.667 -1.33301 -30 -4
s-13 -6.66699 -17 -12s-6.66699 -12.166 -8 -20.499s-2 -18.5 -2 -30.5v-61h109l7 -107h-116z" />
    <glyph glyph-name="g" unicode="g" horiz-adv-x="566" 
d="M510 40c0 -43.333 -6.83398 -79.166 -20.501 -107.499s-31.667 -51 -54 -68s-48.166 -29 -77.499 -36s-59.666 -10.5 -90.999 -10.5c-30.667 0 -62 2 -94 6s-58.667 9.66699 -80 17l-14 114h5c24.667 -7.33301 52 -13.666 82 -18.999s57.667 -8 83 -8
c40.667 0 69.5 9.16699 86.5 27.5s25.5 43.5 25.5 75.5v28l-4 1c-8 -11.333 -21.667 -23 -41 -35s-46 -18 -80 -18c-28.667 0 -55.5 3.83301 -80.5 11.5s-46.667 20.667 -65 39s-32.666 42.666 -42.999 72.999s-15.5 68.166 -15.5 113.499c0 32.667 4.66699 64 14 94
s23.166 56.5 41.499 79.5s41.166 41.5 68.499 55.5s59.333 21 96 21c27.333 0 51 -4.5 71 -13.5s37.333 -21.167 52 -36.5l9 38h126v-442zM360.999 345c-8.66699 8.66699 -19.168 15.667 -31.501 21s-26.166 8 -41.499 8c-29.333 0 -53.5 -9.66699 -72.5 -29
s-28.5 -53.333 -28.5 -102c0 -44 8 -75.5 24 -94.5s39.333 -28.5 70 -28.5c25.333 0 45 7.33301 59 22s21 34.667 21 60v143z" />
    <glyph glyph-name="h" unicode="h" horiz-adv-x="571" 
d="M343 494c32 0 59.166 -4.66895 81.499 -14.002s40.333 -22.166 54 -38.499s23.5 -36 29.5 -59s9 -48.167 9 -75.5v-307h-149v288c0 28.667 -5.16699 49.834 -15.5 63.501s-28.833 20.5 -55.5 20.5c-27.333 0 -49.166 -7 -65.499 -21s-24.5 -35.667 -24.5 -65v-286h-149
v719h149v-283l2 -1c12 16.667 28.833 30.667 50.5 42s49.5 17 83.5 17z" />
    <glyph glyph-name="i" unicode="i" horiz-adv-x="266" 
d="M207 482v-482h-149v482h149zM45 646c0 26.667 7.83301 46.833 23.5 60.5s36.167 20.5 61.5 20.5c59.333 0 89 -26.667 89 -80s-29.333 -80 -88 -80c-26.667 0 -47.667 6.83301 -63 20.5s-23 33.167 -23 58.5z" />
    <glyph glyph-name="j" unicode="j" horiz-adv-x="296" 
d="M18 482l219.001 0.000976562v-470c0 -69.333 -13.833 -118.833 -41.5 -148.5s-66.834 -44.5 -117.501 -44.5c-12 0 -24.5 0.5 -37.5 1.5s-28.5 3.16699 -46.5 6.5l-14 113h5c12 -2.66699 22.333 -4.33398 31 -5.00098s16.667 -1 24 -1c8.66699 0 16 1.16699 22 3.5
s11 6.5 15 12.5s6.83301 14.167 8.5 24.5s2.5 23.833 2.5 40.5v360h-70v107zM62.001 646.001c0 26.667 7.83301 46.833 23.5 60.5s36.167 20.5 61.5 20.5c59.333 0 89 -26.667 89 -80s-29.333 -80 -88 -80c-26.667 0 -47.667 6.83301 -63 20.5s-23 33.167 -23 58.5z" />
    <glyph glyph-name="k" unicode="k" horiz-adv-x="544" 
d="M207 719v-434h3l154 197h165l-167 -204l181 -278h-168l-165 264h-3v-264h-149v719h149z" />
    <glyph glyph-name="l" unicode="l" horiz-adv-x="268" 
d="M4 719h205v-719h-149v612h-56v107z" />
    <glyph glyph-name="m" unicode="m" horiz-adv-x="848" 
d="M629 494c57.333 0 99.335 -16.6699 126.002 -50.0029s40 -78.666 40 -135.999v-308h-149v288c0 28.667 -5 49.834 -15 63.501s-26.333 20.5 -49 20.5c-28.667 0 -49.334 -8.66699 -62.001 -26s-19 -37 -19 -59v-287h-149v288c0 28.667 -4.83301 49.834 -14.5 63.501
s-25.834 20.5 -48.501 20.5c-29.333 0 -50.333 -8.66699 -63 -26s-19 -37 -19 -59v-287h-149v482h135l5 -52l3 -1c11.333 18 28 33.333 50 46s50 19 84 19c34.667 0 63.5 -6.16699 86.5 -18.5s40.833 -29.833 53.5 -52.5c19.333 24 42.333 41.833 69 53.5s55 17.5 85 17.5z
" />
    <glyph glyph-name="n" unicode="n" horiz-adv-x="571" 
d="M343 494c62 0 106.501 -16.6689 133.501 -50.002s40.5 -78.666 40.5 -135.999v-308h-149v288c0 28.667 -5.16699 49.834 -15.5 63.501s-28.833 20.5 -55.5 20.5c-16.667 0 -30.667 -2.33301 -42 -7s-20.5 -11 -27.5 -19s-12.167 -17.167 -15.5 -27.5s-5 -20.833 -5 -31.5
v-287h-149v482h135l5 -54l3 -1c11.333 18.667 28.666 34.5 51.999 47.5s53.333 19.5 90 19.5z" />
    <glyph glyph-name="o" unicode="o" horiz-adv-x="567" 
d="M280 -12c-44 0 -81.667 6.33398 -113 19.001s-57 30.167 -77 52.5s-34.667 48.5 -44 78.5s-14 62.333 -14 97c0 38.667 5.83301 74 17.5 106s28.667 59.333 51 82s49.833 40.167 82.5 52.5s70 18.5 112 18.5c44 0 81.167 -6.5 111.5 -19.5s55 -30.667 74 -53
s32.833 -48.333 41.5 -78s13 -60.834 13 -93.501c0 -39.333 -5.33301 -75 -16 -107s-26.5 -59.5 -47.5 -82.5s-47.5 -40.833 -79.5 -53.5s-69.333 -19 -112 -19zM284 104.001c35.333 0 60.167 12.001 74.5 36.001s21.5 57.667 21.5 101c0 19.333 -1.5 37.166 -4.5 53.499
s-8.16699 30.5 -15.5 42.5s-16.833 21.333 -28.5 28s-26.5 10 -44.5 10c-36 0 -61.667 -11.5 -77 -34.5s-23 -56.5 -23 -100.5s7.66699 -77.667 23 -101s40 -35 74 -35z" />
    <glyph glyph-name="p" unicode="p" horiz-adv-x="568" 
d="M193 482l4 -52.999l4 -1c13.333 20 31.666 36 54.999 48s53 18 89 18c24.667 0 48.5 -4 71.5 -12s43.333 -21.167 61 -39.5s31.834 -42.833 42.501 -73.5s16 -68.334 16 -113.001c0 -40.667 -5 -77.5 -15 -110.5s-24.5 -61.167 -43.5 -84.5s-41.833 -41.333 -68.5 -54
s-57 -19 -91 -19c-22.667 0 -44 2.66699 -64 8s-35.667 12.333 -47 21v-190h-149v655h135zM381 253.001c0 44.667 -7.66699 76 -23 94s-37.666 27 -66.999 27c-25.333 0 -45.666 -6.83301 -60.999 -20.5s-23 -33.167 -23 -58.5v-168c6 -5.33301 15.667 -10.5 29 -15.5
s27.666 -7.5 42.999 -7.5c35.333 0 61.166 12.167 77.499 36.5s24.5 61.833 24.5 112.5z" />
    <glyph glyph-name="q" unicode="q" horiz-adv-x="568" 
d="M510 -173l-149.002 -0.000976562v212l-4 1c-8 -11.333 -21.833 -22.833 -41.5 -34.5s-46.167 -17.5 -79.5 -17.5c-28.667 0 -55.5 4.5 -80.5 13.5s-46.667 23.333 -65 43s-32.666 45 -42.999 76s-15.5 68.833 -15.5 113.5c0 36.667 4.83301 71 14.5 103
s23.834 59.5 42.501 82.5s41.667 41.167 69 54.5s58.666 20 93.999 20c26.667 0 50.334 -3.66699 71.001 -11s37.667 -16.666 51 -27.999l5 38h131v-666zM360.998 350.999c-8.66699 7.33301 -19.168 13.334 -31.501 18.001s-26.166 7 -41.499 7
c-14.667 0 -28.167 -2.5 -40.5 -7.5s-23 -13 -32 -24s-16 -25.5 -21 -43.5s-7.5 -40 -7.5 -66c0 -89.333 31.333 -134 94 -134c25.333 0 45 7.16699 59 21.5s21 34.166 21 59.499v169z" />
    <glyph glyph-name="r" unicode="r" horiz-adv-x="384" 
d="M369 340h-5.00098c-24 4 -45.667 6 -65 6c-28 0 -50.333 -4.83301 -67 -14.5s-25 -25.5 -25 -47.5v-284h-149v482h128l7 -62l2 -1c8.66699 20 24.334 37.5 47.001 52.5s48 22.5 76 22.5c14.667 0 28 -2.33301 40 -7z" />
    <glyph glyph-name="s" unicode="s" horiz-adv-x="461" 
d="M34 141l3.99707 -0.00195312c23.333 -9.33301 50.333 -18 81 -26s61 -12 91 -12s50.333 2.83301 61 8.5s16 14.167 16 25.5s-6.33301 19.666 -19 24.999s-28.334 10.166 -47.001 14.499l-61 14c-22 5 -42.333 12.833 -61 23.5s-34.334 25 -47.001 43s-19 42.333 -19 73
c0 26.667 5.33301 50.334 16 71.001s25.334 37.834 44.001 51.501s41 24 67 31s54.667 10.5 86 10.5c12 0 24.833 -0.666992 38.5 -2s27.5 -3.16602 41.5 -5.49902s27.5 -5 40.5 -8s24.167 -6.16699 33.5 -9.5l12 -120h-5c-23.333 8.66699 -48.666 15.667 -75.999 21
s-51 8 -71 8c-23.333 0 -41.666 -2.66699 -54.999 -8s-20 -14.666 -20 -27.999c0 -12 6 -20.833 18 -26.5s27.167 -10.5 45.5 -14.5l59 -13.5c21 -5 40.667 -12.667 59 -23s33.5 -24.5 45.5 -42.5s18 -42 18 -72c0 -50 -18.167 -89.5 -54.5 -118.5
s-90.166 -43.5 -161.499 -43.5c-17.333 0 -34.666 1 -51.999 3s-33.5 4.66699 -48.5 8s-28.5 7 -40.5 11s-21.667 8 -29 12z" />
    <glyph glyph-name="t" unicode="t" horiz-adv-x="386" 
d="M234 375l-0.00195312 -203.002c0 -27.333 5 -45.166 15 -53.499s24.667 -12.5 44 -12.5c10.667 0 22.834 1.5 36.501 4.5s25.834 6.16699 36.501 9.5h5l-15 -114c-13.333 -5.33301 -31.333 -9.66602 -54 -12.999s-42.667 -5 -60 -5c-52 0 -91.167 12.5 -117.5 37.5
s-39.5 65.833 -39.5 122.5v227h-79v107h79v111l149 33v-144h117l8 -107h-125z" />
    <glyph glyph-name="u" unicode="u" horiz-adv-x="562" 
d="M224 -12c-30.667 0 -56.6689 4.16797 -78.002 12.501s-38.833 20.5 -52.5 36.5s-23.5 35.5 -29.5 58.5s-9 48.833 -9 77.5v309h149v-288c0 -28.667 4.83301 -50 14.5 -64s27.834 -21 54.501 -21c16.667 0 30.334 2.5 41.001 7.5s19 11.5 25 19.5s10.167 17.167 12.5 27.5
s3.5 21.166 3.5 32.499v286h149v-482h-134l-5 53h-3c-11.333 -18 -28 -33.333 -50 -46s-51.333 -19 -88 -19z" />
    <glyph glyph-name="v" unicode="v" horiz-adv-x="516" 
d="M510 482l-144 -482h-211l-150 482h167l89 -348h3l87 348h159z" />
    <glyph glyph-name="w" unicode="w" horiz-adv-x="821" 
d="M490 482l87 -357h3l83 357h152l-138 -482h-201l-64 285h-2l-62 -285h-196l-146 482h159l86 -357h2l86 357h151z" />
    <glyph glyph-name="x" unicode="x" horiz-adv-x="508" 
d="M344 242l149 -242h-162l-79 139l-85 -139h-161l163 245l-149 237h158l81 -145l87 145h155z" />
    <glyph glyph-name="y" unicode="y" horiz-adv-x="503" 
d="M13 482l163.998 0.000976562l83 -356h3l80 356h154l-116 -417c-9.33301 -34.667 -19.5 -67 -30.5 -97s-24.833 -56.167 -41.5 -78.5s-37.167 -39.833 -61.5 -52.5s-54.5 -19 -90.5 -19c-24 0 -45.667 1.83301 -65 5.5s-33.666 7.5 -42.999 11.5l-7 110h5
c14.667 -4.66699 28.834 -7.83398 42.501 -9.50098s27.167 -2.5 40.5 -2.5c14 0 26 1.5 36 4.5s18.5 7.66699 25.5 14s13 14.5 18 24.5s9.83301 22 14.5 36h-71z" />
    <glyph glyph-name="z" unicode="z" horiz-adv-x="469" 
d="M199 122h237l-10 -122h-380l-11 118l233 241h-225l11 123h370l6 -119z" />
    <glyph glyph-name="braceleft" unicode="{" horiz-adv-x="390" 
d="M293 -186c-61.333 8.66699 -104.501 26.499 -129.501 53.499s-37.5 62.167 -37.5 105.5c0 32 2.66699 65.833 8 101.5s8 76.167 8 121.5c0 13.333 -3.83301 21.666 -11.5 24.999s-15.5 5 -23.5 5h-58v122h58c10 0 18.333 2 25 6s10 13.333 10 28
c0 32.667 -2.66699 66.5 -8 101.5s-8 67.833 -8 98.5c0 17.333 2.16699 34.5 6.5 51.5s12.666 32.833 24.999 47.5s29.333 27.167 51 37.5s49.834 17.833 84.501 22.5l46 -110c-15.333 -4 -27.666 -7.83301 -36.999 -11.5s-16.833 -8.16699 -22.5 -13.5
s-9.5 -12.166 -11.5 -20.499s-3 -18.833 -3 -31.5c0 -32.667 2.66699 -64.5 8 -95.5s8 -61.833 8 -92.5c0 -8 -1.33301 -16.167 -4 -24.5s-6.5 -16.333 -11.5 -24s-10.833 -14.334 -17.5 -20.001s-14 -9.5 -22 -11.5c8.66699 -2.66699 16.5 -7 23.5 -13
s12.833 -12.833 17.5 -20.5s8.16699 -15.667 10.5 -24s3.5 -15.5 3.5 -21.5c0 -24.667 -0.833008 -45.167 -2.5 -61.5s-3.5 -31.666 -5.5 -45.999s-3.83301 -29.666 -5.5 -45.999s-2.5 -36.5 -2.5 -60.5c0 -23.333 6.5 -39.333 19.5 -48s31.167 -15.667 54.5 -21l-46 -110v0
z" />
    <glyph glyph-name="bar" unicode="|" horiz-adv-x="291" 
d="M220 758v-911h-145v911h145z" />
    <glyph glyph-name="braceright" unicode="}" horiz-adv-x="390" 
d="M50 -76c23.333 5.33301 41.5059 12.334 54.5059 21.001s19.5 24.667 19.5 48c0 24 -0.833008 44.167 -2.5 60.5s-3.33398 31.666 -5.00098 45.999s-3.33398 29.666 -5.00098 45.999s-2.5 36.833 -2.5 61.5c0 6 1.16699 13.167 3.5 21.5s5.66602 16.333 9.99902 24
s10 14.5 17 20.5s15.167 10.333 24.5 13c-8 2 -15.333 5.83301 -22 11.5s-12.5 12.334 -17.5 20.001s-8.83301 15.667 -11.5 24s-4 16.5 -4 24.5c0 30.667 2.5 61.5 7.5 92.5s7.5 62.833 7.5 95.5c0 12.667 -1 23.167 -3 31.5s-5.83301 15.166 -11.5 20.499
s-13.334 9.83301 -23.001 13.5s-21.834 7.5 -36.501 11.5l46 110c34.667 -4.66699 63 -12.167 85 -22.5s39 -22.833 51 -37.5s20.167 -30.5 24.5 -47.5s6.5 -34.167 6.5 -51.5c0 -30.667 -2.66699 -63.5 -8 -98.5s-8 -68.833 -8 -101.5c0 -14.667 3.5 -24 10.5 -28
s15.5 -6 25.5 -6h57v-122h-57c-8.66699 0 -16.834 -1.66699 -24.501 -5s-11.5 -11.666 -11.5 -24.999c0 -45.333 2.66699 -85.833 8 -121.5s8 -69.5 8 -101.5c0 -43.333 -12.333 -78.5 -37 -105.5s-68 -44.833 -130 -53.5z" />
    <glyph glyph-name="asciitilde" unicode="~" horiz-adv-x="491" 
d="M21 316c22 27.333 42.668 45.835 62.001 55.502s39.666 14.5 60.999 14.5c14 0 29.5 -2.16699 46.5 -6.5s34.333 -9.33301 52 -15s35.334 -10.667 53.001 -15s34.5 -6.5 50.5 -6.5c16.667 0 30.5 4.5 41.5 13.5l33.5 27.5l49 -94c-21.333 -28 -42.333 -46.667 -63 -56
s-40.334 -14 -59.001 -14s-36.834 2.16699 -54.501 6.5s-35 9.16602 -52 14.499s-33.5 10.166 -49.5 14.499s-31.667 6.5 -47 6.5s-28.166 -4 -38.499 -12l-36.5 -29z" />
    <glyph glyph-name="uni00A0" unicode="&#xa0;" horiz-adv-x="191" 
 />
    <glyph glyph-name="exclamdown" unicode="&#xa1;" horiz-adv-x="364" 
d="M97 -200v186l10 282h139l10 -282v-186h-159zM275 427c0 -28.667 -8.83301 -50.333 -26.5 -65s-41.5 -22 -71.5 -22c-28 0 -50.667 7.5 -68 22.5s-26 37.167 -26 66.5c0 28 8.33301 49.333 25 64s39.667 22 69 22c30 0 53.833 -7.33301 71.5 -22s26.5 -36.667 26.5 -66z
" />
    <glyph glyph-name="cent" unicode="&#xa2;" horiz-adv-x="478" 
d="M316 212c19.333 0 40.168 1.99609 62.501 5.99609s44.5 11 66.5 21h5l-11 -117c-14 -6 -28.833 -11 -44.5 -15s-31.5 -7.33301 -47.5 -10v-103h-144v110c-58.667 13.333 -101.834 39.333 -129.501 78s-41.5 90.334 -41.5 155.001c0 24 2.66699 48 8 72
s14.5 46.333 27.5 67s30.5 38.834 52.5 54.501s49.667 27.167 83 34.5v108h144v-103c16 -2 31.333 -4.66699 46 -8s27 -7.66602 37 -12.999l8 -119h-5c-24.667 10.667 -48 17.5 -70 20.5s-43 4.5 -63 4.5c-43.333 0 -74 -10 -92 -30s-27 -50 -27 -90
c0 -17.333 2.16699 -33.333 6.5 -48s11.833 -27.667 22.5 -39s24.5 -20.166 41.5 -26.499s38.5 -9.5 64.5 -9.5z" />
    <glyph glyph-name="sterling" unicode="&#xa3;" horiz-adv-x="557" 
d="M54 393l72.999 -0.000976562c-9.33301 17.333 -18 36.5 -26 57.5s-12 46.833 -12 77.5c0 24.667 4 49.167 12 73.5s21.5 46 40.5 65s44.167 34.5 75.5 46.5s70 18 116 18c42.667 0 78 -2.83301 106 -8.5s51.667 -12.834 71 -21.501l18 -132h-5
c-7.33301 3.33301 -17.166 6.83301 -29.499 10.5s-25.666 7 -39.999 10s-29.166 5.5 -44.499 7.5s-29 3 -41 3c-37.333 0 -66.333 -6.66699 -87 -20s-31 -37.666 -31 -72.999c0 -17.333 3.83301 -34.833 11.5 -52.5s15.167 -38.167 22.5 -61.5h178v-112h-161
c-0.666992 -15.333 -3.33398 -30.833 -8.00098 -46.5s-10.334 -30.167 -17.001 -43.5s-13.667 -25.166 -21 -35.499s-13.666 -17.833 -18.999 -22.5h284v-133h-467v108c21.333 16.667 38.666 33.167 51.999 49.5s23.666 32 30.999 47s12.333 29 15 42
s4.33398 24.5 5.00098 34.5h-112z" />
    <glyph glyph-name="currency" unicode="&#xa4;" horiz-adv-x="651" 
d="M552 -21l-99.999 102c-35.333 -19.333 -78.333 -29 -129 -29s-92.334 8 -125.001 24l-95 -97l-83 80l96 95c-9.33301 18 -16.166 37.667 -20.499 59s-6.5 43.666 -6.5 66.999c0 39.333 6.66699 75 20 107l-99 89l79 86l92 -86c42 28.667 94.667 43 158 43
c30 0 56.667 -3.33301 80 -10s43.666 -15.667 60.999 -27l85 78l79 -86l-93 -83c6 -15.333 10.333 -31 13 -47s4 -32.667 4 -50c0 -51.333 -11.333 -96.666 -34 -135.999l101 -99zM324.001 148c24 0 44.834 3.49707 62.501 10.4971s32 16.667 43 29s19.167 26.833 24.5 43.5
s8 34.667 8 54c0 18.667 -2.16699 36.334 -6.5 53.001s-11.5 31.334 -21.5 44.001s-23.167 22.834 -39.5 30.501s-36.833 11.5 -61.5 11.5s-45.834 -3.33301 -63.501 -10s-32 -16.167 -43 -28.5s-19 -27 -24 -44s-7.5 -35.833 -7.5 -56.5c0 -44.667 11 -78.667 33 -102
s54 -35 96 -35z" />
    <glyph glyph-name="yen" unicode="&#xa5;" horiz-adv-x="577" 
d="M513 330h-142v-85h142v-104h-142v-141h-166v141h-149l9 104h140v85h-149l9 103h85l-159 286h163l136 -269h3l133 269h160l-161 -286h88v-103z" />
    <glyph glyph-name="brokenbar" unicode="&#xa6;" horiz-adv-x="291" 
d="M220 237v-390h-145v390h145zM75 380v378h145v-378h-145z" />
    <glyph glyph-name="section" unicode="&#xa7;" horiz-adv-x="528" 
d="M33 248c0 33.333 8.83301 64.1738 26.5 92.5068s37.5 53.5 59.5 75.5c-15.333 15.333 -26.666 32.166 -33.999 50.499s-11 41.166 -11 68.499c0 51.333 19.667 91.5 59 120.5s93 43.5 161 43.5c28 0 55.5 -2.33301 82.5 -7s51.167 -11.334 72.5 -20.001l19 -123h-4
c-28 11.333 -56 20.5 -84 27.5s-53 10.5 -75 10.5c-56.667 0 -85 -15.667 -85 -47c0 -8 0.833008 -15.167 2.5 -21.5s6.16699 -12.833 13.5 -19.5s18.166 -13.834 32.499 -21.501s34.166 -17.167 59.499 -28.5c30.667 -13.333 56.5 -26.333 77.5 -39
s37.833 -26.167 50.5 -40.5s21.667 -30 27 -47s8 -35.833 8 -56.5c0 -32 -8.33301 -61.833 -25 -89.5s-37.667 -53.834 -63 -78.501c15.333 -14.667 27 -31.334 35 -50.001s12 -41.334 12 -68.001c0 -19.333 -3.5 -38.833 -10.5 -58.5s-19.167 -37.5 -36.5 -53.5
s-40.333 -29 -69 -39s-64.667 -15 -108 -15c-22.667 0 -47.167 2.33301 -73.5 7s-51.5 11.667 -75.5 21l-20 122h5c28 -11.333 55.833 -20.333 83.5 -27s52.834 -10 75.501 -10c32 0 53.833 4.83301 65.5 14.5s17.5 21.834 17.5 36.501c0 8 -1.33301 15 -4 21
s-8 12.333 -16 19s-19.5 13.834 -34.5 21.501s-35.167 17.167 -60.5 28.5c-30 13.333 -55 26.166 -75 38.499s-36 25.5 -48 39.5s-20.5 29.167 -25.5 45.5s-7.5 35.166 -7.5 56.499zM176 265.008c0 -10 1.49805 -18.5029 4.49805 -25.5029s8.33301 -13.833 16 -20.5
s18.334 -13.834 32.001 -21.501s31.5 -16.5 53.5 -26.5l20 -9c12 14.667 22.667 29.5 32 44.5s14 29.167 14 42.5c0 10 -1.33301 18.5 -4 25.5s-8 13.833 -16 20.5s-19.167 13.834 -33.5 21.501s-33.166 16.834 -56.499 27.501l-8.5 3.5
c-2.33301 1 -4.83301 2.16699 -7.5 3.5c-16.667 -19.333 -28.5 -36.166 -35.5 -50.499s-10.5 -26.166 -10.5 -35.499z" />
    <glyph glyph-name="dieresis" unicode="&#xa8;" horiz-adv-x="500" 
d="M67 631c0 23.333 7.16699 41.332 21.5 53.999s32.833 19 55.5 19c26 0 45.833 -6.16699 59.5 -18.5s20.5 -30.166 20.5 -53.499c0 -48 -26.333 -72 -79 -72c-24 0 -43 6.16699 -57 18.5s-21 29.833 -21 52.5zM277 629.999c0 24 7.16504 42.332 21.498 54.999
s32.833 19 55.5 19c26.667 0 46.834 -6.16699 60.501 -18.5s20.5 -30.166 20.5 -53.499c0 -48 -26.667 -72 -80 -72c-23.333 0 -42.166 6 -56.499 18s-21.5 29.333 -21.5 52z" />
    <glyph glyph-name="copyright" unicode="&#xa9;" horiz-adv-x="845" 
d="M423 -25c-52 0 -100.835 7.50098 -146.502 22.501s-85.5 37.333 -119.5 67s-60.833 66.5 -80.5 110.5s-29.5 95.333 -29.5 154c0 56 8.83301 106 26.5 150s42.834 81.333 75.501 112s72.167 54 118.5 70s97.833 24 154.5 24c64.667 0 120.667 -9.5 168 -28.5
s86.333 -44.667 117 -77s53.334 -69.833 68.001 -112.5s22 -87.334 22 -134.001c0 -50 -7.66699 -96.833 -23 -140.5s-38.5 -81.5 -69.5 -113.5s-70 -57.333 -117 -76s-101.833 -28 -164.5 -28zM424.998 85.001c41.333 0 77.168 6.16406 107.501 18.4971
s55.5 29.333 75.5 51s34.833 47.334 44.5 77.001s14.5 61.834 14.5 96.501c0 32 -4.33301 63 -13 93s-22.667 56.333 -42 79s-44.333 40.834 -75 54.501s-68 20.5 -112 20.5c-42 0 -78.333 -6 -109 -18s-56.334 -28.833 -77.001 -50.5s-36 -47.5 -46 -77.5
s-15 -63.333 -15 -100c0 -74 20.667 -133.167 62 -177.5s103 -66.5 185 -66.5zM463 243.998c9.33301 0 22.001 1.33105 38.001 3.99805s30.333 6.33398 43 11.001h3l-7 -92c-7.33301 -2.66699 -15.666 -5 -24.999 -7s-18.833 -3.66699 -28.5 -5s-19 -2.33301 -28 -3
s-16.167 -1 -21.5 -1c-30.667 0 -57 4.5 -79 13.5s-40.167 21.5 -54.5 37.5s-24.833 34.667 -31.5 56s-10 44.333 -10 69c0 22.667 3.33301 44.834 10 66.501s17 41 31 58s32.167 30.5 54.5 40.5s49.166 15 80.499 15c6.66699 0 14.5 -0.333008 23.5 -1s18 -1.5 27 -2.5
s17.5 -2.33301 25.5 -4s14.333 -3.5 19 -5.5l8 -94h-2c-13.333 5.33301 -26.5 8.83301 -39.5 10.5s-24.5 2.5 -34.5 2.5c-28.667 0 -49.834 -7.5 -63.501 -22.5s-20.5 -34.167 -20.5 -57.5c0 -28.667 7 -50.667 21 -66s34.333 -23 61 -23z" />
    <glyph glyph-name="ordfeminine" unicode="&#xaa;" horiz-adv-x="395" 
d="M249 436c-7.33301 -9.33301 -17.667 -18.666 -31 -27.999s-31.666 -14 -54.999 -14c-18.667 0 -36 2.83301 -52 8.5s-29.833 14.834 -41.5 27.501s-20.834 29 -27.501 49s-10 44.333 -10 73c0 22.667 2.66699 44 8 64s13.666 37.667 24.999 53s25.833 27.5 43.5 36.5
s39.167 13.5 64.5 13.5c17.333 0 32.166 -2.5 44.499 -7.5s22.833 -10.833 31.5 -17.5l4 24h86v-215c0 -10.667 2 -17.5 6 -20.5s8.66699 -4.5 14 -4.5c2.66699 0 5.83398 0.166992 9.50098 0.5s6.83398 1.16602 9.50098 2.49902l-3 -78c-4.66699 -2 -12.167 -4 -22.5 -6
s-21.833 -3 -34.5 -3c-16 0 -30.333 3.66699 -43 11s-20.667 17.666 -24 30.999h-2zM237.999 620c-10 10 -24.001 15 -42.001 15c-17.333 0 -31.666 -6 -42.999 -18s-17 -33.667 -17 -65c0 -51.333 18.667 -77 56 -77c30.667 0 46 16.333 46 49v96z" />
    <glyph glyph-name="guillemotleft" unicode="&#xab;" horiz-adv-x="606" 
d="M271 253l139 212h164l-155 -222v-4l154 -223h-163l-139 210v27zM32 253l113 189h164l-129 -203v-3l128 -197h-163l-113 187v27z" />
    <glyph glyph-name="logicalnot" unicode="&#xac;" 
d="M79 347h462v-216h-116v102h-346v114z" />
    <glyph glyph-name="uni00AD" unicode="&#xad;" horiz-adv-x="325" 
d="M30 341h265v-114h-265v114z" />
    <glyph glyph-name="registered" unicode="&#xae;" horiz-adv-x="506" 
d="M255 285c-39.333 0 -72.667 5.49902 -100 16.499s-49.666 25.833 -66.999 44.5s-30 40.167 -38 64.5s-12 49.5 -12 75.5c0 67.333 18.5 119.333 55.5 156s90.5 55 160.5 55c39.333 0 72.5 -5.83301 99.5 -17.5s49 -27 66 -46s29.333 -40.333 37 -64
s11.5 -47.167 11.5 -70.5c0 -31.333 -4.5 -60.166 -13.5 -86.499s-22.333 -49 -40 -68s-39.834 -33.667 -66.501 -44s-57.667 -15.5 -93 -15.5zM252.999 351.999c24.667 0 45.666 3.5 62.999 10.5s31.5 16.667 42.5 29s19 27 24 44s7.5 35.5 7.5 55.5
c0 17.333 -2.16699 34.333 -6.5 51s-11.666 31.5 -21.999 44.5s-24.5 23.5 -42.5 31.5s-40.333 12 -67 12c-48.667 0 -83.5 -13 -104.5 -39s-31.5 -60.333 -31.5 -103c0 -40 10.833 -72.667 32.5 -98s56.5 -38 104.5 -38zM177.998 402.999v186h89
c28 0 46.833 -5.83301 56.5 -17.5s14.5 -26.167 14.5 -43.5c0 -23.333 -9.66699 -41 -29 -53l36 -72h-61l-27 61h-19v-61h-60zM251.998 501.999c7.33301 0 13.833 1.66699 19.5 5s8.5 10 8.5 20s-2.5 16.5 -7.5 19.5s-11.833 4.5 -20.5 4.5h-14v-49h14z" />
    <glyph glyph-name="macron" unicode="&#xaf;" horiz-adv-x="500" 
d="M90 687h320v-111h-320v111z" />
    <glyph glyph-name="degree" unicode="&#xb0;" horiz-adv-x="313" 
d="M10 624c0 16.667 3.16699 32.666 9.5 47.999s15.833 28.833 28.5 40.5s28 20.834 46 27.501s39 10 63 10c47.333 0 83.5 -11.833 108.5 -35.5s37.5 -52.5 37.5 -86.5c0 -34.667 -12.5 -64.167 -37.5 -88.5s-61.167 -36.5 -108.5 -36.5c-48 0 -84.5 11.5 -109.5 34.5
s-37.5 51.833 -37.5 86.5zM102 625.999c0 -15.333 4.66699 -27.333 14 -36s22.333 -13 39 -13c35.333 0 53 16.333 53 49c0 15.333 -4.5 27.5 -13.5 36.5s-22.167 13.5 -39.5 13.5c-16.667 0 -29.667 -4.5 -39 -13.5s-14 -21.167 -14 -36.5z" />
    <glyph glyph-name="plusminus" unicode="&#xb1;" 
d="M369 469v-127h135v-114h-135v-113h-114v113h-139l12 114h127v127h114zM128 114h376v-114h-388z" />
    <glyph glyph-name="uni00B2" unicode="&#xb2;" horiz-adv-x="352" 
d="M34 778c19.333 8.66699 38.8301 15.001 58.4971 19.001s41.167 6 64.5 6c55.333 0 95.833 -12.167 121.5 -36.5s38.5 -57.5 38.5 -99.5c0 -29.333 -8.66699 -59.333 -26 -90s-45.666 -66.667 -84.999 -108l-30 -31h144v-99h-286v77l60 65l47 50.5
c14 15 25.833 29.167 35.5 42.5s17.167 26.166 22.5 38.499s8 25.5 8 39.5c0 23.333 -7.33301 39.833 -22 49.5s-31.667 14.5 -51 14.5c-17.333 0 -33.666 -2.33301 -48.999 -7s-32.666 -12.667 -51.999 -24l-6 1z" />
    <glyph glyph-name="uni00B3" unicode="&#xb3;" horiz-adv-x="368" 
d="M40 686l6.99805 92.002c13.333 7.33301 31.166 13.333 53.499 18s46.166 7 71.499 7c53.333 0 91.5 -10.333 114.5 -31s34.5 -47.334 34.5 -80.001c0 -20.667 -5.66699 -40.334 -17 -59.001s-29 -33.667 -53 -45c24 -8.66699 43.333 -21.667 58 -39s22 -40.333 22 -69
c0 -43.333 -14.333 -78.5 -43 -105.5s-73.667 -40.5 -135 -40.5c-19.333 0 -39.833 2.16699 -61.5 6.5s-40.167 10.166 -55.5 17.499l-3 94c19.333 -7.33301 38 -13.666 56 -18.999s38.333 -8 61 -8c20.667 0 37.834 4.83301 51.501 14.5s20.5 24.167 20.5 43.5
c0 18 -5.66699 32.167 -17 42.5s-30 15.5 -56 15.5c-5.33301 0 -12.666 -0.166992 -21.999 -0.5s-18.333 -1.16602 -27 -2.49902l11 93c5.33301 -0.666992 12 -1 20 -1h19c18 0.666992 32.667 4.16699 44 10.5s17 16.833 17 31.5c0 4.66699 -0.833008 9.5 -2.5 14.5
s-4.66699 9.66699 -9 14s-10.666 8 -18.999 11s-19.5 4.5 -33.5 4.5c-19.333 0 -38.166 -3.33301 -56.499 -10s-33.5 -13.334 -45.5 -20.001h-5z" />
    <glyph glyph-name="acute" unicode="&#xb4;" horiz-adv-x="500" 
d="M273 718h155l-135 -163h-120z" />
    <glyph glyph-name="mu" unicode="&#xb5;" horiz-adv-x="600" 
d="M277 -12c-16 0 -28.667 1.33398 -38 4.00098s-17 5.66699 -23 9l5 -174h-149v655h149v-354c4.66699 -3.33301 13.167 -7.33301 25.5 -12s26.5 -7 42.5 -7c16.667 0 30.334 2.5 41.001 7.5s19.167 11.5 25.5 19.5s10.666 17.167 12.999 27.5s3.5 21.166 3.5 32.499v286
h149v-339c0 -15.333 1.66699 -25.833 5 -31.5s9 -8.5 17 -8.5c11.333 0 22 1.66699 32 5l-5 -106c-7.33301 -3.33301 -17.5 -6.5 -30.5 -9.5s-28.5 -4.5 -46.5 -4.5c-25.333 0 -45.166 5 -59.499 15s-25.833 26.667 -34.5 50h-2
c-4.66699 -7.33301 -10.834 -14.833 -18.501 -22.5s-16.667 -14.667 -27 -21s-21.833 -11.5 -34.5 -15.5s-26 -6 -40 -6z" />
    <glyph glyph-name="paragraph" unicode="&#xb6;" horiz-adv-x="645" 
d="M239 230c-40.667 6.66699 -74.668 17.833 -102.001 33.5s-49.166 34 -65.499 55s-27.833 44 -34.5 69s-10 50.167 -10 75.5c0 88 25.5 152.667 76.5 194s125.167 62 222.5 62h242v-853h-124v730h-81v-730h-124v364z" />
    <glyph glyph-name="periodcentered" unicode="&#xb7;" horiz-adv-x="315" 
d="M62 290c0 28.667 8.5 50.5 25.5 65.5s39.833 22.5 68.5 22.5c32 0 56.167 -7.5 72.5 -22.5s24.5 -36.5 24.5 -64.5c0 -58.667 -32 -88 -96 -88c-30 0 -53.333 7.5 -70 22.5s-25 36.5 -25 64.5z" />
    <glyph glyph-name="cedilla" unicode="&#xb8;" horiz-adv-x="500" 
d="M206 -44c32 4 58.833 4.49805 80.5 1.49805s39 -8.5 52 -16.5s22.333 -18.167 28 -30.5s8.5 -25.833 8.5 -40.5c0 -35.333 -12 -62.333 -36 -81s-58 -28 -102 -28c-14.667 0 -28.667 1 -42 3s-25 4.33301 -35 7l9 66c20 -5.33301 36.333 -7.83301 49 -7.5
s22.5 2.33301 29.5 6s11.833 8.33398 14.5 14.001s4 11.167 4 16.5c0 8.66699 -4.33301 15.834 -13 21.501s-26.667 8.16699 -54 7.5z" />
    <glyph glyph-name="uni00B9" unicode="&#xb9;" horiz-adv-x="323" 
d="M45 432h76v226h-82l9 87h74l5 51h101v-364h68v-93h-251v93z" />
    <glyph glyph-name="ordmasculine" unicode="&#xba;" horiz-adv-x="380" 
d="M188 395c-29.333 0 -53.833 4.16699 -73.5 12.5s-35.667 19.666 -48 33.999s-21.166 31.333 -26.499 51s-8 40.5 -8 62.5c0 50 13.667 90 41 120s68.666 45 123.999 45c28.667 0 52.667 -4.16699 72 -12.5s34.833 -19.666 46.5 -33.999s20 -31 25 -50
s7.5 -39.167 7.5 -60.5c0 -50 -12.667 -90.5 -38 -121.5s-66 -46.5 -122 -46.5zM190 476c20 0 34.335 7.16797 43.002 21.501s13 34.166 13 59.499c0 23.333 -3.83301 42.5 -11.5 57.5s-21.834 22.5 -42.501 22.5c-19.333 0 -33.5 -7 -42.5 -21s-13.5 -33.667 -13.5 -59
c0 -26 4.16699 -46 12.5 -60s22.166 -21 41.499 -21z" />
    <glyph glyph-name="guillemotright" unicode="&#xbb;" horiz-adv-x="606" 
d="M335 226l-139 -210h-163l154 223v4l-155 222h164l139 -212v-27zM574 226l-113 -187h-163l128 197v3l-129 203h164l113 -189v-27z" />
    <glyph glyph-name="onequarter" unicode="&#xbc;" 
d="M55 404h509v-94h-509v94zM187 536h75v144h-81l9 87h73l6 50h101v-281h68v-93h-251v93zM333 158h75v-109h57v-87h-57v-78h-94v78h-196v69l110 240h108l-98 -222h77z" />
    <glyph glyph-name="onehalf" unicode="&#xbd;" 
d="M55 404h509v-94h-509v94zM187 536h75v144h-81l9 87h73l6 50h101v-281h68v-93h-251v93zM175 243c16.667 6.66699 36.1621 12.5039 58.4951 17.5039s48.5 7.5 78.5 7.5c43.333 0 78 -9.33301 104 -28s39 -47 39 -85c0 -14.667 -2.16699 -28.334 -6.5 -41.001
s-10.666 -25 -18.999 -37s-19.166 -24.333 -32.499 -37s-29 -26 -47 -40l-25 -20h129v-95h-285v83l52 42l50.5 41c13.667 11.333 24.834 21.666 33.501 30.999s14.834 18.166 18.501 26.499s5.5 17.5 5.5 27.5c0 17.333 -6.16699 28.666 -18.5 33.999s-26.166 8 -41.499 8
c-17.333 0 -33.333 -2 -48 -6s-30.667 -11 -48 -21h-6z" />
    <glyph glyph-name="threequarters" unicode="&#xbe;" 
d="M55 404h509v-94h-509v94zM333 158h75v-109h57v-87h-57v-78h-94v78h-196v69l110 240h108l-98 -222h77zM164 722l8.00391 80c13.333 6 31.333 11.667 54 17s46.667 8 72 8c54.667 0 93.667 -8.83301 117 -26.5s35 -40.5 35 -68.5c0 -17.333 -5.83301 -34.333 -17.5 -51
s-29.5 -30 -53.5 -40c24 -7.33301 43.5 -17.833 58.5 -31.5s22.5 -33.167 22.5 -58.5c0 -36 -14.333 -65.5 -43 -88.5s-74.667 -34.5 -138 -34.5c-19.333 0 -39.833 2.16699 -61.5 6.5s-40.167 9.16602 -55.5 14.499l-4 85c19.333 -6 38.166 -11.167 56.499 -15.5
s39.166 -6.5 62.499 -6.5c20.667 0 37.667 3.33301 51 10s20 17.667 20 33s-5.5 26.333 -16.5 33s-29.833 10 -56.5 10c-5.33301 0 -12.833 -0.166992 -22.5 -0.5s-18.5 -1.16602 -26.5 -2.49902l11 84c5.33301 -0.666992 12.166 -1 20.499 -1h19.5
c17.333 0.666992 31.666 4 42.999 10s17 15.333 17 28c0 4 -0.666992 7.83301 -2 11.5s-4.33301 7 -9 10s-11 5.5 -19 7.5s-19 3 -33 3c-20 0 -39.333 -2.66699 -58 -8s-34 -11.333 -46 -18h-6z" />
    <glyph glyph-name="questiondown" unicode="&#xbf;" horiz-adv-x="484" 
d="M356 136l-56 -35c-30.667 -19.333 -54.167 -38.833 -70.5 -58.5s-24.5 -41.5 -24.5 -65.5c0 -24.667 7.16699 -43.167 21.5 -55.5s37.833 -18.5 70.5 -18.5c23.333 0 45.5 1.83301 66.5 5.5s40.167 8.16699 57.5 13.5l-18 -116c-14 -5.33301 -33 -9.83301 -57 -13.5
s-55 -5.5 -93 -5.5c-66.667 0 -117.167 15 -151.5 45s-51.5 73.333 -51.5 130c0 36 9.33301 69.333 28 100s48 60 88 88l49 33l7 88h128zM384 431c0 -28.667 -8.66699 -50.5 -26 -65.5s-40 -22.5 -68 -22.5c-32 0 -56.333 7.5 -73 22.5s-25 36.5 -25 64.5
c0 58.667 32.333 88 97 88c29.333 0 52.5 -7.5 69.5 -22.5s25.5 -36.5 25.5 -64.5z" />
    <glyph glyph-name="Agrave" unicode="&#xc0;" horiz-adv-x="701" 
d="M258 719h189l242 -719h-159l-55 168h-252l-53 -168h-159zM253 284h195l-100 305zM429 767h-124l-144 136h174z" />
    <glyph glyph-name="Aacute" unicode="&#xc1;" horiz-adv-x="701" 
d="M258 719h189l242 -719h-159l-55 168h-252l-53 -168h-159zM253 284h195l-100 305zM363 903h175l-145 -136h-124z" />
    <glyph glyph-name="Acircumflex" unicode="&#xc2;" horiz-adv-x="701" 
d="M258 719h189l242 -719h-159l-55 168h-252l-53 -168h-159zM253 284h195l-100 305zM272 915h154l118 -148h-134l-61 65l-61 -65h-125z" />
    <glyph glyph-name="Atilde" unicode="&#xc3;" horiz-adv-x="701" 
d="M258 719h189l242 -719h-159l-55 168h-252l-53 -168h-159zM253 284h195l-100 305zM169 833l24.501 31c7 8.66699 14.167 16 21.5 22s15.333 10.333 24 13s19 4 31 4c12.667 0 26 -1.5 40 -4.5s27.833 -6.5 41.5 -10.5s26.834 -7.5 39.501 -10.5s24 -4.5 34 -4.5
c9.33301 0 17.166 2.83301 23.499 8.5s12.833 14.167 19.5 25.5l66 -61c-14.667 -28.667 -29.334 -49 -44.001 -61s-30 -18 -46 -18c-14 0 -28.833 1.5 -44.5 4.5s-30.834 6.5 -45.501 10.5s-28.834 7.5 -42.501 10.5s-25.5 4.5 -35.5 4.5
c-11.333 0 -20.166 -2.83301 -26.499 -8.5s-14.166 -13.5 -23.499 -23.5z" />
    <glyph glyph-name="Adieresis" unicode="&#xc4;" horiz-adv-x="701" 
d="M258 719h189l242 -719h-159l-55 168h-252l-53 -168h-159zM253 284h195l-100 305zM165 836c0 24 7.16699 42.167 21.5 54.5s32.833 18.5 55.5 18.5c53.333 0 80 -23.667 80 -71c0 -48.667 -26.333 -73 -79 -73c-24 0 -43 6.16699 -57 18.5s-21 29.833 -21 52.5zM375 836
c0 23.333 7.16504 41.333 21.498 54s32.833 19 55.5 19c26.667 0 46.834 -6.16699 60.501 -18.5s20.5 -29.833 20.5 -52.5c0 -48.667 -26.667 -73 -80 -73c-23.333 0 -42.166 6.16699 -56.499 18.5s-21.5 29.833 -21.5 52.5z" />
    <glyph glyph-name="Aring" unicode="&#xc5;" horiz-adv-x="701" 
d="M258 719h189l242 -719h-159l-55 168h-252l-53 -168h-159zM253 284h195l-100 305zM225 860c0 29.333 10.667 54.166 32 74.499s52 30.5 92 30.5s70.667 -10.167 92 -30.5s32 -45.166 32 -74.499s-10.667 -54 -32 -74s-52 -30 -92 -30s-70.667 10 -92 30s-32 44.667 -32 74
zM310 860c0 -24.667 12.667 -37 38 -37s38 12.333 38 37c0 12 -3.33301 21.5 -10 28.5s-16 10.5 -28 10.5s-21.333 -3.5 -28 -10.5s-10 -16.5 -10 -28.5z" />
    <glyph glyph-name="AE" unicode="&#xc6;" horiz-adv-x="946" 
d="M282 719h612v-125h-290v-183h248v-120h-248v-166h290v-125h-444v291h-169l-105 -291h-166zM314 411h136v178h-73z" />
    <glyph glyph-name="Ccedilla" unicode="&#xc7;" horiz-adv-x="612" 
d="M404 118c29.333 0 59.3359 2.99512 90.0029 8.99512s57.667 13.667 81 23h5l-15 -130c-9.33301 -4 -20.833 -7.83301 -34.5 -11.5s-28.834 -7 -45.501 -10s-34.167 -5.5 -52.5 -7.5s-36.166 -3 -53.499 -3c-56 0 -105 8.83301 -147 26.5s-77 42.334 -105 74.001
s-49.167 69.5 -63.5 113.5s-21.5 92.333 -21.5 145c0 53.333 7.33301 103.333 22 150s36.167 87.334 64.5 122.001s63.666 62 105.999 82s91.5 30 147.5 30c40 0 75.167 -3.33301 105.5 -10s53.833 -13 70.5 -19l13 -132h-5c-10 4 -21.833 7.83301 -35.5 11.5
s-27.834 7 -42.501 10s-29.5 5.33301 -44.5 7s-29.167 2.5 -42.5 2.5c-28.667 0 -55.167 -4.66699 -79.5 -14s-45.333 -23.666 -63 -42.999s-31.5 -44.166 -41.5 -74.499s-15 -66.833 -15 -109.5c0 -25.333 2.33301 -52.166 7 -80.499s14.167 -54.5 28.5 -78.5
s34.666 -43.833 60.999 -59.5s61.5 -23.5 105.5 -23.5zM297.003 -44.0049c32 4 58.833 4.49805 80.5 1.49805s39 -8.5 52 -16.5s22.333 -18.167 28 -30.5s8.5 -25.833 8.5 -40.5c0 -35.333 -12 -62.333 -36 -81s-58 -28 -102 -28c-14.667 0 -28.667 1 -42 3
s-25 4.33301 -35 7l9 66c20 -5.33301 36.333 -7.83301 49 -7.5s22.5 2.33301 29.5 6s11.833 8.33398 14.5 14.001s4 11.167 4 16.5c0 8.66699 -4.33301 15.834 -13 21.501s-26.667 8.16699 -54 7.5z" />
    <glyph glyph-name="Egrave" unicode="&#xc8;" horiz-adv-x="574" 
d="M78 719h454v-125h-299v-170h257v-121h-257v-178h299v-125h-454v719zM399 767h-124l-144 136h174z" />
    <glyph glyph-name="Eacute" unicode="&#xc9;" horiz-adv-x="574" 
d="M78 719h454v-125h-299v-170h257v-121h-257v-178h299v-125h-454v719zM323 903h175l-145 -136h-124z" />
    <glyph glyph-name="Ecircumflex" unicode="&#xca;" horiz-adv-x="574" 
d="M78 719h454v-125h-299v-170h257v-121h-257v-178h299v-125h-454v719zM233 915h154l118 -148h-134l-61 65l-61 -65h-125z" />
    <glyph glyph-name="Edieresis" unicode="&#xcb;" horiz-adv-x="574" 
d="M78 719h454v-125h-299v-170h257v-121h-257v-178h299v-125h-454v719zM126 836c0 24 7.16699 42.167 21.5 54.5s32.833 18.5 55.5 18.5c53.333 0 80 -23.667 80 -71c0 -48.667 -26.333 -73 -79 -73c-24 0 -43 6.16699 -57 18.5s-21 29.833 -21 52.5zM336 836
c0 23.333 7.16504 41.333 21.498 54s32.833 19 55.5 19c26.667 0 46.834 -6.16699 60.501 -18.5s20.5 -29.833 20.5 -52.5c0 -48.667 -26.667 -73 -80 -73c-23.333 0 -42.166 6.16699 -56.499 18.5s-21.5 29.833 -21.5 52.5z" />
    <glyph glyph-name="Igrave" unicode="&#xcc;" horiz-adv-x="311" 
d="M233 0h-155v719h155v-719zM235 767h-124l-144 136h174z" />
    <glyph glyph-name="Iacute" unicode="&#xcd;" horiz-adv-x="311" 
d="M233 0h-155v719h155v-719zM169 903h175l-145 -136h-124z" />
    <glyph glyph-name="Icircumflex" unicode="&#xce;" horiz-adv-x="311" 
d="M233 0h-155v719h155v-719zM78 915h154l118 -148h-134l-61 65l-61 -65h-125z" />
    <glyph glyph-name="Idieresis" unicode="&#xcf;" horiz-adv-x="311" 
d="M233 0h-155v719h155v-719zM-29 836c0 24 7.16699 42.167 21.5 54.5s32.833 18.5 55.5 18.5c53.333 0 80 -23.667 80 -71c0 -48.667 -26.333 -73 -79 -73c-24 0 -43 6.16699 -57 18.5s-21 29.833 -21 52.5zM181 836c0 23.333 7.16504 41.333 21.498 54s32.833 19 55.5 19
c26.667 0 46.834 -6.16699 60.501 -18.5s20.5 -29.833 20.5 -52.5c0 -48.667 -26.667 -73 -80 -73c-23.333 0 -42.166 6.16699 -56.499 18.5s-21.5 29.833 -21.5 52.5z" />
    <glyph glyph-name="Eth" unicode="&#xd0;" horiz-adv-x="723" 
d="M4 422l85.001 0.000976562v297h261c44 0 85.833 -6 125.5 -18s74.834 -31.167 105.501 -57.5s55 -60.833 73 -103.5s27 -94.667 27 -156c0 -69.333 -8.5 -128.333 -25.5 -177s-41.833 -88.334 -74.5 -119.001s-72.834 -53 -120.501 -67s-101.834 -21 -162.501 -21h-209
v314h-85v108zM311.001 117.001c26.667 0 52.5 3.5 77.5 10.5s47.333 20 67 39s35.5 45 47.5 78s18 75.5 18 127.5c0 56.667 -7 100.5 -21 131.5s-32.167 53.833 -54.5 68.5s-47.5 23.5 -75.5 26.5s-55.667 4.5 -83 4.5h-44v-181h156v-108h-156v-197h68z" />
    <glyph glyph-name="Ntilde" unicode="&#xd1;" horiz-adv-x="750" 
d="M531 719h141v-719h-190l-260 513h-3v-513h-141v719h198l252 -519h3v519zM195 833l24.501 31c7 8.66699 14.167 16 21.5 22s15.333 10.333 24 13s19 4 31 4c12.667 0 26 -1.5 40 -4.5s27.833 -6.5 41.5 -10.5s26.834 -7.5 39.501 -10.5s24 -4.5 34 -4.5
c9.33301 0 17.166 2.83301 23.499 8.5s12.833 14.167 19.5 25.5l66 -61c-14.667 -28.667 -29.334 -49 -44.001 -61s-30 -18 -46 -18c-14 0 -28.833 1.5 -44.5 4.5s-30.834 6.5 -45.501 10.5s-28.834 7.5 -42.501 10.5s-25.5 4.5 -35.5 4.5
c-11.333 0 -20.166 -2.83301 -26.499 -8.5s-14.166 -13.5 -23.499 -23.5z" />
    <glyph glyph-name="Ograve" unicode="&#xd2;" horiz-adv-x="745" 
d="M368 -12c-59.333 0 -109.666 10.001 -150.999 30.001s-75 46.833 -101 80.5s-44.833 72 -56.5 115s-17.5 87.5 -17.5 133.5c0 54.667 7 105.5 21 152.5s35.333 87.667 64 122s64.167 61.166 106.5 80.499s92.166 29 149.499 29s106.166 -9.83301 146.499 -29.5
s73.333 -46 99 -79s44.334 -71.333 56.001 -115s17.5 -89.5 17.5 -137.5c0 -50.667 -6.16699 -99.167 -18.5 -145.5s-31.833 -87 -58.5 -122s-61.167 -62.833 -103.5 -83.5s-93.5 -31 -153.5 -31zM373 115.001c58.667 0 102.5 21.168 131.5 63.501s43.5 104.833 43.5 187.5
c0 36 -2.83301 68.667 -8.5 98s-15.167 54.333 -28.5 75s-30.833 36.667 -52.5 48s-48.5 17 -80.5 17c-58.667 0 -103.5 -21 -134.5 -63s-46.5 -104 -46.5 -186c0 -82.667 15.167 -143.334 45.5 -182.001s73.833 -58 130.5 -58zM452 767.002h-124l-144 136h174z" />
    <glyph glyph-name="Oacute" unicode="&#xd3;" horiz-adv-x="745" 
d="M368 -12c-59.333 0 -109.666 10.001 -150.999 30.001s-75 46.833 -101 80.5s-44.833 72 -56.5 115s-17.5 87.5 -17.5 133.5c0 54.667 7 105.5 21 152.5s35.333 87.667 64 122s64.167 61.166 106.5 80.499s92.166 29 149.499 29s106.166 -9.83301 146.499 -29.5
s73.333 -46 99 -79s44.334 -71.333 56.001 -115s17.5 -89.5 17.5 -137.5c0 -50.667 -6.16699 -99.167 -18.5 -145.5s-31.833 -87 -58.5 -122s-61.167 -62.833 -103.5 -83.5s-93.5 -31 -153.5 -31zM373 115.001c58.667 0 102.5 21.168 131.5 63.501s43.5 104.833 43.5 187.5
c0 36 -2.83301 68.667 -8.5 98s-15.167 54.333 -28.5 75s-30.833 36.667 -52.5 48s-48.5 17 -80.5 17c-58.667 0 -103.5 -21 -134.5 -63s-46.5 -104 -46.5 -186c0 -82.667 15.167 -143.334 45.5 -182.001s73.833 -58 130.5 -58zM386 903.002h175l-145 -136h-124z" />
    <glyph glyph-name="Ocircumflex" unicode="&#xd4;" horiz-adv-x="745" 
d="M368 -12c-59.333 0 -109.666 10.001 -150.999 30.001s-75 46.833 -101 80.5s-44.833 72 -56.5 115s-17.5 87.5 -17.5 133.5c0 54.667 7 105.5 21 152.5s35.333 87.667 64 122s64.167 61.166 106.5 80.499s92.166 29 149.499 29s106.166 -9.83301 146.499 -29.5
s73.333 -46 99 -79s44.334 -71.333 56.001 -115s17.5 -89.5 17.5 -137.5c0 -50.667 -6.16699 -99.167 -18.5 -145.5s-31.833 -87 -58.5 -122s-61.167 -62.833 -103.5 -83.5s-93.5 -31 -153.5 -31zM373 115.001c58.667 0 102.5 21.168 131.5 63.501s43.5 104.833 43.5 187.5
c0 36 -2.83301 68.667 -8.5 98s-15.167 54.333 -28.5 75s-30.833 36.667 -52.5 48s-48.5 17 -80.5 17c-58.667 0 -103.5 -21 -134.5 -63s-46.5 -104 -46.5 -186c0 -82.667 15.167 -143.334 45.5 -182.001s73.833 -58 130.5 -58zM295 915.002h154l118 -148h-134l-61 65
l-61 -65h-125z" />
    <glyph glyph-name="Otilde" unicode="&#xd5;" horiz-adv-x="745" 
d="M368 -12c-59.333 0 -109.666 10.001 -150.999 30.001s-75 46.833 -101 80.5s-44.833 72 -56.5 115s-17.5 87.5 -17.5 133.5c0 54.667 7 105.5 21 152.5s35.333 87.667 64 122s64.167 61.166 106.5 80.499s92.166 29 149.499 29s106.166 -9.83301 146.499 -29.5
s73.333 -46 99 -79s44.334 -71.333 56.001 -115s17.5 -89.5 17.5 -137.5c0 -50.667 -6.16699 -99.167 -18.5 -145.5s-31.833 -87 -58.5 -122s-61.167 -62.833 -103.5 -83.5s-93.5 -31 -153.5 -31zM373 115.001c58.667 0 102.5 21.168 131.5 63.501s43.5 104.833 43.5 187.5
c0 36 -2.83301 68.667 -8.5 98s-15.167 54.333 -28.5 75s-30.833 36.667 -52.5 48s-48.5 17 -80.5 17c-58.667 0 -103.5 -21 -134.5 -63s-46.5 -104 -46.5 -186c0 -82.667 15.167 -143.334 45.5 -182.001s73.833 -58 130.5 -58zM192 833.002l24.501 31
c7 8.66699 14.167 16 21.5 22s15.333 10.333 24 13s19 4 31 4c12.667 0 26 -1.5 40 -4.5s27.833 -6.5 41.5 -10.5s26.834 -7.5 39.501 -10.5s24 -4.5 34 -4.5c9.33301 0 17.166 2.83301 23.499 8.5s12.833 14.167 19.5 25.5l66 -61c-14.667 -28.667 -29.334 -49 -44.001 -61
s-30 -18 -46 -18c-14 0 -28.833 1.5 -44.5 4.5s-30.834 6.5 -45.501 10.5s-28.834 7.5 -42.501 10.5s-25.5 4.5 -35.5 4.5c-11.333 0 -20.166 -2.83301 -26.499 -8.5s-14.166 -13.5 -23.499 -23.5z" />
    <glyph glyph-name="Odieresis" unicode="&#xd6;" horiz-adv-x="745" 
d="M368 -12c-59.333 0 -109.666 10.001 -150.999 30.001s-75 46.833 -101 80.5s-44.833 72 -56.5 115s-17.5 87.5 -17.5 133.5c0 54.667 7 105.5 21 152.5s35.333 87.667 64 122s64.167 61.166 106.5 80.499s92.166 29 149.499 29s106.166 -9.83301 146.499 -29.5
s73.333 -46 99 -79s44.334 -71.333 56.001 -115s17.5 -89.5 17.5 -137.5c0 -50.667 -6.16699 -99.167 -18.5 -145.5s-31.833 -87 -58.5 -122s-61.167 -62.833 -103.5 -83.5s-93.5 -31 -153.5 -31zM373 115.001c58.667 0 102.5 21.168 131.5 63.501s43.5 104.833 43.5 187.5
c0 36 -2.83301 68.667 -8.5 98s-15.167 54.333 -28.5 75s-30.833 36.667 -52.5 48s-48.5 17 -80.5 17c-58.667 0 -103.5 -21 -134.5 -63s-46.5 -104 -46.5 -186c0 -82.667 15.167 -143.334 45.5 -182.001s73.833 -58 130.5 -58zM188 836.002c0 24 7.16699 42.167 21.5 54.5
s32.833 18.5 55.5 18.5c53.333 0 80 -23.667 80 -71c0 -48.667 -26.333 -73 -79 -73c-24 0 -43 6.16699 -57 18.5s-21 29.833 -21 52.5zM398 836.002c0 23.333 7.16504 41.333 21.498 54s32.833 19 55.5 19c26.667 0 46.834 -6.16699 60.501 -18.5s20.5 -29.833 20.5 -52.5
c0 -48.667 -26.667 -73 -80 -73c-23.333 0 -42.166 6.16699 -56.499 18.5s-21.5 29.833 -21.5 52.5z" />
    <glyph glyph-name="multiply" unicode="&#xd7;" 
d="M494 417l-110 -110l109 -109l-75 -75l-109 109l-109 -110l-75 75l109 110l-108 109l75 75l108 -109l110 110z" />
    <glyph glyph-name="Oslash" unicode="&#xd8;" horiz-adv-x="745" 
d="M34 43l67 76c-21.333 32 -36.5 67.5 -45.5 106.5s-13.5 79.5 -13.5 121.5c0 54.667 7 105.5 21 152.5s35.333 87.667 64 122s64.167 61.166 106.5 80.499s92.166 29 149.499 29c43.333 0 81.5 -5.66699 114.5 -17s62.167 -27 87.5 -47l61 69l81 -70l-73 -83
c16.667 -30 28.834 -63.167 36.501 -99.5s11.5 -74.166 11.5 -113.499c0 -50.667 -6.16699 -99.167 -18.5 -145.5s-31.833 -87 -58.5 -122s-61.167 -62.833 -103.5 -83.5s-93.5 -31 -153.5 -31c-40 0 -75.833 4.66699 -107.5 14s-59.5 22.333 -83.5 39l-63 -72zM197 355
c0 -44.667 4.33301 -82.333 13 -113l282 320c-26.667 28 -64.667 42 -114 42c-58.667 0 -103.5 -21 -134.5 -63s-46.5 -104 -46.5 -186zM373 115.001c58.667 0 102.5 21.167 131.5 63.5s43.5 104.833 43.5 187.5c0 16 -0.666992 31.333 -2 46s-3 28.667 -5 42l-272 -308
c27.333 -20.667 62 -31 104 -31z" />
    <glyph glyph-name="Ugrave" unicode="&#xd9;" horiz-adv-x="704" 
d="M351 -12c-51.333 0 -95.0029 5.66895 -131.003 17.002s-65.167 31 -87.5 59s-38.666 66 -48.999 114s-15.5 109 -15.5 183v358h155v-443c0 -24.667 1.83301 -46.834 5.5 -66.501s10.334 -36.5 20.001 -50.5s23 -24.667 40 -32s39.167 -11 66.5 -11
c26.667 0 48.334 4.16699 65.001 12.5s29.5 19.666 38.5 33.999s15 31 18 50s4.5 39.5 4.5 61.5v445h155v-360c0 -60 -4 -113 -12 -159s-22.667 -84.833 -44 -116.5s-50.5 -55.5 -87.5 -71.5s-84.167 -24 -141.5 -24zM434.997 767.002h-124l-144 136h174z" />
    <glyph glyph-name="Uacute" unicode="&#xda;" horiz-adv-x="704" 
d="M351 -12c-51.333 0 -95.0029 5.66895 -131.003 17.002s-65.167 31 -87.5 59s-38.666 66 -48.999 114s-15.5 109 -15.5 183v358h155v-443c0 -24.667 1.83301 -46.834 5.5 -66.501s10.334 -36.5 20.001 -50.5s23 -24.667 40 -32s39.167 -11 66.5 -11
c26.667 0 48.334 4.16699 65.001 12.5s29.5 19.666 38.5 33.999s15 31 18 50s4.5 39.5 4.5 61.5v445h155v-360c0 -60 -4 -113 -12 -159s-22.667 -84.833 -44 -116.5s-50.5 -55.5 -87.5 -71.5s-84.167 -24 -141.5 -24zM362.997 903.002h175l-145 -136h-124z" />
    <glyph glyph-name="Ucircumflex" unicode="&#xdb;" horiz-adv-x="704" 
d="M351 -12c-51.333 0 -95.0029 5.66895 -131.003 17.002s-65.167 31 -87.5 59s-38.666 66 -48.999 114s-15.5 109 -15.5 183v358h155v-443c0 -24.667 1.83301 -46.834 5.5 -66.501s10.334 -36.5 20.001 -50.5s23 -24.667 40 -32s39.167 -11 66.5 -11
c26.667 0 48.334 4.16699 65.001 12.5s29.5 19.666 38.5 33.999s15 31 18 50s4.5 39.5 4.5 61.5v445h155v-360c0 -60 -4 -113 -12 -159s-22.667 -84.833 -44 -116.5s-50.5 -55.5 -87.5 -71.5s-84.167 -24 -141.5 -24zM272.997 915.002h154l118 -148h-134l-61 65l-61 -65
h-125z" />
    <glyph glyph-name="Udieresis" unicode="&#xdc;" horiz-adv-x="704" 
d="M351 -12c-51.333 0 -95.0029 5.66895 -131.003 17.002s-65.167 31 -87.5 59s-38.666 66 -48.999 114s-15.5 109 -15.5 183v358h155v-443c0 -24.667 1.83301 -46.834 5.5 -66.501s10.334 -36.5 20.001 -50.5s23 -24.667 40 -32s39.167 -11 66.5 -11
c26.667 0 48.334 4.16699 65.001 12.5s29.5 19.666 38.5 33.999s15 31 18 50s4.5 39.5 4.5 61.5v445h155v-360c0 -60 -4 -113 -12 -159s-22.667 -84.833 -44 -116.5s-50.5 -55.5 -87.5 -71.5s-84.167 -24 -141.5 -24zM165.997 836.002c0 24 7.16699 42.167 21.5 54.5
s32.833 18.5 55.5 18.5c53.333 0 80 -23.667 80 -71c0 -48.667 -26.333 -73 -79 -73c-24 0 -43 6.16699 -57 18.5s-21 29.833 -21 52.5zM375.997 836.002c0 23.333 7.16504 41.333 21.498 54s32.833 19 55.5 19c26.667 0 46.834 -6.16699 60.501 -18.5
s20.5 -29.833 20.5 -52.5c0 -48.667 -26.667 -73 -80 -73c-23.333 0 -42.166 6.16699 -56.499 18.5s-21.5 29.833 -21.5 52.5z" />
    <glyph glyph-name="Yacute" unicode="&#xdd;" horiz-adv-x="619" 
d="M-4 719h169l146 -339h3l142 339h167l-238 -481v-238h-154v237zM321 903h175l-145 -136h-124z" />
    <glyph glyph-name="Thorn" unicode="&#xde;" horiz-adv-x="648" 
d="M78 0l-0.00195312 719.002h155v-103h110c52.667 0 96.834 -5.66699 132.501 -17s64.334 -27.5 86.001 -48.5s37 -46.167 46 -75.5s13.5 -62.333 13.5 -99c0 -41.333 -6.66699 -78.333 -20 -111s-32.333 -60.334 -57 -83.001s-54.667 -39.834 -90 -51.501
s-75 -17.5 -119 -17.5h-102v-113h-155zM326.998 238.002c42.667 0 75.667 10.832 99 32.499s35 55.5 35 101.5c0 42.667 -9.83301 73.334 -29.5 92.001s-47.5 28 -83.5 28h-115v-254h94z" />
    <glyph glyph-name="germandbls" unicode="&#xdf;" horiz-adv-x="642" 
d="M207 0l-149.001 0.00390625v494c0 80 21.833 138.833 65.5 176.5s109.834 56.5 198.501 56.5c43.333 0 79.833 -5.83301 109.5 -17.5s53.5 -26.5 71.5 -44.5s30.833 -38.333 38.5 -61s11.5 -45 11.5 -67c0 -17.333 -2 -33.5 -6 -48.5s-10 -29.5 -18 -43.5
s-18.333 -28.167 -31 -42.5s-27.667 -29.5 -45 -45.5l-20 -19c24 -5.33301 46.833 -12 68.5 -20s40.834 -18.667 57.501 -32s30 -30 40 -50s15 -45 15 -75c0 -53.333 -17.5 -95.5 -52.5 -126.5s-82.5 -46.5 -142.5 -46.5c-14 0 -28.333 0.833008 -43 2.5
s-28.5 3.83398 -41.5 6.50098s-24.833 5.5 -35.5 8.5s-19 6.16699 -25 9.5l-11 122h4c23.333 -10 46.333 -17.333 69 -22s43 -7 61 -7c19.333 0 34.833 5.16699 46.5 15.5s17.5 24.833 17.5 43.5c0 25.333 -13.5 43.666 -40.5 54.999s-64.833 17.666 -113.5 18.999l-28 112
l48 51l23 24.5c8.66699 9 16.667 18.667 24 29s13.666 21.666 18.999 33.999s8 25.166 8 38.499c0 15.333 -2.5 28.166 -7.5 38.499s-11.667 18.5 -20 24.5s-17.833 10.333 -28.5 13s-22 4 -34 4c-40.667 0 -68.167 -10 -82.5 -30s-21.5 -51 -21.5 -93v-487z" />
    <glyph glyph-name="agrave" unicode="&#xe0;" horiz-adv-x="528" 
d="M78 468c10.667 3.33301 23.3291 6.50488 37.9961 9.50488s30.167 5.83301 46.5 8.5s33 4.66699 50 6s33.167 2 48.5 2c32 0 60.333 -3 85 -9s45.334 -16.167 62.001 -30.5s29.334 -33.5 38.001 -57.5s13 -54 13 -90v-164c0 -15.333 1.66699 -25.833 5 -31.5
s9 -8.5 17 -8.5c11.333 0 22 1.66699 32 5l-5 -106c-7.33301 -3.33301 -18 -6.5 -32 -9.5s-30.667 -4.5 -50 -4.5c-25.333 0 -46.5 5.66699 -63.5 17s-28.167 27.666 -33.5 48.999c-13.333 -20 -32.166 -36 -56.499 -48s-55.166 -18 -92.499 -18
c-28 0 -51.833 3.83301 -71.5 11.5s-35.667 18.167 -48 31.5s-21.333 28.666 -27 45.999s-8.5 35.666 -8.5 54.999c0 29.333 5 53.666 15 72.999s23.833 34.833 41.5 46.5s38.167 20.167 61.5 25.5s48.333 9 75 11l93 6v24c0 13.333 -1.83301 24 -5.5 32s-9 14 -16 18
s-15.5 6.66699 -25.5 8s-21 2 -33 2c-24 0 -50 -2.83301 -78 -8.5s-53.667 -11.834 -77 -18.501h-5zM234.995 93.0049c24.667 0 43.666 6.33203 56.999 18.999s20 29.667 20 51v44l-61 -4c-21.333 -1.33301 -39.166 -6.16602 -53.499 -14.499s-21.5 -23.166 -21.5 -44.499
c0 -14.667 4 -26.834 12 -36.501s23.667 -14.5 47 -14.5zM340.994 555.004h-119l-136 163h156z" />
    <glyph glyph-name="aacute" unicode="&#xe1;" horiz-adv-x="528" 
d="M78 468c10.667 3.33301 23.3291 6.50488 37.9961 9.50488s30.167 5.83301 46.5 8.5s33 4.66699 50 6s33.167 2 48.5 2c32 0 60.333 -3 85 -9s45.334 -16.167 62.001 -30.5s29.334 -33.5 38.001 -57.5s13 -54 13 -90v-164c0 -15.333 1.66699 -25.833 5 -31.5
s9 -8.5 17 -8.5c11.333 0 22 1.66699 32 5l-5 -106c-7.33301 -3.33301 -18 -6.5 -32 -9.5s-30.667 -4.5 -50 -4.5c-25.333 0 -46.5 5.66699 -63.5 17s-28.167 27.666 -33.5 48.999c-13.333 -20 -32.166 -36 -56.499 -48s-55.166 -18 -92.499 -18
c-28 0 -51.833 3.83301 -71.5 11.5s-35.667 18.167 -48 31.5s-21.333 28.666 -27 45.999s-8.5 35.666 -8.5 54.999c0 29.333 5 53.666 15 72.999s23.833 34.833 41.5 46.5s38.167 20.167 61.5 25.5s48.333 9 75 11l93 6v24c0 13.333 -1.83301 24 -5.5 32s-9 14 -16 18
s-15.5 6.66699 -25.5 8s-21 2 -33 2c-24 0 -50 -2.83301 -78 -8.5s-53.667 -11.834 -77 -18.501h-5zM234.995 93.0049c24.667 0 43.666 6.33203 56.999 18.999s20 29.667 20 51v44l-61 -4c-21.333 -1.33301 -39.166 -6.16602 -53.499 -14.499s-21.5 -23.166 -21.5 -44.499
c0 -14.667 4 -26.834 12 -36.501s23.667 -14.5 47 -14.5zM274.994 718.004h155l-135 -163h-120z" />
    <glyph glyph-name="acircumflex" unicode="&#xe2;" horiz-adv-x="528" 
d="M78 468c10.667 3.33301 23.3291 6.50488 37.9961 9.50488s30.167 5.83301 46.5 8.5s33 4.66699 50 6s33.167 2 48.5 2c32 0 60.333 -3 85 -9s45.334 -16.167 62.001 -30.5s29.334 -33.5 38.001 -57.5s13 -54 13 -90v-164c0 -15.333 1.66699 -25.833 5 -31.5
s9 -8.5 17 -8.5c11.333 0 22 1.66699 32 5l-5 -106c-7.33301 -3.33301 -18 -6.5 -32 -9.5s-30.667 -4.5 -50 -4.5c-25.333 0 -46.5 5.66699 -63.5 17s-28.167 27.666 -33.5 48.999c-13.333 -20 -32.166 -36 -56.499 -48s-55.166 -18 -92.499 -18
c-28 0 -51.833 3.83301 -71.5 11.5s-35.667 18.167 -48 31.5s-21.333 28.666 -27 45.999s-8.5 35.666 -8.5 54.999c0 29.333 5 53.666 15 72.999s23.833 34.833 41.5 46.5s38.167 20.167 61.5 25.5s48.333 9 75 11l93 6v24c0 13.333 -1.83301 24 -5.5 32s-9 14 -16 18
s-15.5 6.66699 -25.5 8s-21 2 -33 2c-24 0 -50 -2.83301 -78 -8.5s-53.667 -11.834 -77 -18.501h-5zM234.995 93.0049c24.667 0 43.666 6.33203 56.999 18.999s20 29.667 20 51v44l-61 -4c-21.333 -1.33301 -39.166 -6.16602 -53.499 -14.499s-21.5 -23.166 -21.5 -44.499
c0 -14.667 4 -26.834 12 -36.501s23.667 -14.5 47 -14.5zM190.994 718.004h142l108 -163h-114l-65 78l-65 -78h-114z" />
    <glyph glyph-name="atilde" unicode="&#xe3;" horiz-adv-x="528" 
d="M78 468c10.667 3.33301 23.3291 6.50488 37.9961 9.50488s30.167 5.83301 46.5 8.5s33 4.66699 50 6s33.167 2 48.5 2c32 0 60.333 -3 85 -9s45.334 -16.167 62.001 -30.5s29.334 -33.5 38.001 -57.5s13 -54 13 -90v-164c0 -15.333 1.66699 -25.833 5 -31.5
s9 -8.5 17 -8.5c11.333 0 22 1.66699 32 5l-5 -106c-7.33301 -3.33301 -18 -6.5 -32 -9.5s-30.667 -4.5 -50 -4.5c-25.333 0 -46.5 5.66699 -63.5 17s-28.167 27.666 -33.5 48.999c-13.333 -20 -32.166 -36 -56.499 -48s-55.166 -18 -92.499 -18
c-28 0 -51.833 3.83301 -71.5 11.5s-35.667 18.167 -48 31.5s-21.333 28.666 -27 45.999s-8.5 35.666 -8.5 54.999c0 29.333 5 53.666 15 72.999s23.833 34.833 41.5 46.5s38.167 20.167 61.5 25.5s48.333 9 75 11l93 6v24c0 13.333 -1.83301 24 -5.5 32s-9 14 -16 18
s-15.5 6.66699 -25.5 8s-21 2 -33 2c-24 0 -50 -2.83301 -78 -8.5s-53.667 -11.834 -77 -18.501h-5zM234.995 93.0049c24.667 0 43.666 6.33203 56.999 18.999s20 29.667 20 51v44l-61 -4c-21.333 -1.33301 -39.166 -6.16602 -53.499 -14.499s-21.5 -23.166 -21.5 -44.499
c0 -14.667 4 -26.834 12 -36.501s23.667 -14.5 47 -14.5zM75.9941 627.004l24.499 30.999c7 8.66699 14.167 15.834 21.5 21.501s15.166 10 23.499 13s18.5 4.5 30.5 4.5c13.333 0 27 -1.5 41 -4.5s27.667 -6.5 41 -10.5s26.333 -7.5 39 -10.5s24 -4.5 34 -4.5
s18.167 2.83301 24.5 8.5s12.833 14.167 19.5 25.5l66 -61c-14.667 -28.667 -29.5 -49.167 -44.5 -61.5s-30.167 -18.5 -45.5 -18.5c-14.667 0 -29.667 1.5 -45 4.5s-30.5 6.5 -45.5 10.5s-29.167 7.5 -42.5 10.5s-25 4.5 -35 4.5c-11.333 0 -20.166 -2.83301 -26.499 -8.5
s-14.166 -13.167 -23.499 -22.5z" />
    <glyph glyph-name="adieresis" unicode="&#xe4;" horiz-adv-x="528" 
d="M78 468c10.667 3.33301 23.3291 6.50488 37.9961 9.50488s30.167 5.83301 46.5 8.5s33 4.66699 50 6s33.167 2 48.5 2c32 0 60.333 -3 85 -9s45.334 -16.167 62.001 -30.5s29.334 -33.5 38.001 -57.5s13 -54 13 -90v-164c0 -15.333 1.66699 -25.833 5 -31.5
s9 -8.5 17 -8.5c11.333 0 22 1.66699 32 5l-5 -106c-7.33301 -3.33301 -18 -6.5 -32 -9.5s-30.667 -4.5 -50 -4.5c-25.333 0 -46.5 5.66699 -63.5 17s-28.167 27.666 -33.5 48.999c-13.333 -20 -32.166 -36 -56.499 -48s-55.166 -18 -92.499 -18
c-28 0 -51.833 3.83301 -71.5 11.5s-35.667 18.167 -48 31.5s-21.333 28.666 -27 45.999s-8.5 35.666 -8.5 54.999c0 29.333 5 53.666 15 72.999s23.833 34.833 41.5 46.5s38.167 20.167 61.5 25.5s48.333 9 75 11l93 6v24c0 13.333 -1.83301 24 -5.5 32s-9 14 -16 18
s-15.5 6.66699 -25.5 8s-21 2 -33 2c-24 0 -50 -2.83301 -78 -8.5s-53.667 -11.834 -77 -18.501h-5zM234.995 93.0049c24.667 0 43.666 6.33203 56.999 18.999s20 29.667 20 51v44l-61 -4c-21.333 -1.33301 -39.166 -6.16602 -53.499 -14.499s-21.5 -23.166 -21.5 -44.499
c0 -14.667 4 -26.834 12 -36.501s23.667 -14.5 47 -14.5zM78.9941 631.004c0 23.333 7.16699 41.332 21.5 53.999s32.833 19 55.5 19c26 0 45.833 -6.16699 59.5 -18.5s20.5 -30.166 20.5 -53.499c0 -48 -26.333 -72 -79 -72c-24 0 -43 6.16699 -57 18.5
s-21 29.833 -21 52.5zM288.994 630.003c0 24 7.16504 42.332 21.498 54.999s32.833 19 55.5 19c26.667 0 46.834 -6.16699 60.501 -18.5s20.5 -30.166 20.5 -53.499c0 -48 -26.667 -72 -80 -72c-23.333 0 -42.166 6 -56.499 18s-21.5 29.333 -21.5 52z" />
    <glyph glyph-name="aring" unicode="&#xe5;" horiz-adv-x="528" 
d="M78 468c10.667 3.33301 23.3291 6.50488 37.9961 9.50488s30.167 5.83301 46.5 8.5s33 4.66699 50 6s33.167 2 48.5 2c32 0 60.333 -3 85 -9s45.334 -16.167 62.001 -30.5s29.334 -33.5 38.001 -57.5s13 -54 13 -90v-164c0 -15.333 1.66699 -25.833 5 -31.5
s9 -8.5 17 -8.5c11.333 0 22 1.66699 32 5l-5 -106c-7.33301 -3.33301 -18 -6.5 -32 -9.5s-30.667 -4.5 -50 -4.5c-25.333 0 -46.5 5.66699 -63.5 17s-28.167 27.666 -33.5 48.999c-13.333 -20 -32.166 -36 -56.499 -48s-55.166 -18 -92.499 -18
c-28 0 -51.833 3.83301 -71.5 11.5s-35.667 18.167 -48 31.5s-21.333 28.666 -27 45.999s-8.5 35.666 -8.5 54.999c0 29.333 5 53.666 15 72.999s23.833 34.833 41.5 46.5s38.167 20.167 61.5 25.5s48.333 9 75 11l93 6v24c0 13.333 -1.83301 24 -5.5 32s-9 14 -16 18
s-15.5 6.66699 -25.5 8s-21 2 -33 2c-24 0 -50 -2.83301 -78 -8.5s-53.667 -11.834 -77 -18.501h-5zM234.995 93.0049c24.667 0 43.666 6.33203 56.999 18.999s20 29.667 20 51v44l-61 -4c-21.333 -1.33301 -39.166 -6.16602 -53.499 -14.499s-21.5 -23.166 -21.5 -44.499
c0 -14.667 4 -26.834 12 -36.501s23.667 -14.5 47 -14.5zM137.994 632.004c0 29.333 10.667 54.166 32 74.499s52 30.5 92 30.5s70.667 -10.167 92 -30.5s32 -45.166 32 -74.499s-10.667 -54 -32 -74s-52 -30 -92 -30s-70.667 10 -92 30s-32 44.667 -32 74zM222.994 632.004
c0 -24.667 12.667 -37 38 -37s38 12.333 38 37c0 25.333 -12.667 38 -38 38s-38 -12.667 -38 -38zM248.994 907.004h175l-145 -136h-124z" />
    <glyph glyph-name="ae" unicode="&#xe6;" horiz-adv-x="798" 
d="M468 203c2.66699 -32.667 14.5 -56.8281 35.5 -72.4951s50.167 -23.5 87.5 -23.5c28 0 55.167 2.66699 81.5 8s50.166 12.666 71.499 21.999h4l-13 -118c-19.333 -7.33301 -41.833 -14.333 -67.5 -21s-57.167 -10 -94.5 -10c-48 0 -90.5 7.16699 -127.5 21.5
s-66.167 36.5 -87.5 66.5l-15.5 -21.5c-7 -9.66699 -17.167 -19.5 -30.5 -29.5s-30.333 -18.667 -51 -26s-46.334 -11 -77.001 -11c-30 0 -55.167 3.83301 -75.5 11.5s-36.666 18 -48.999 31s-21.166 28.5 -26.499 46.5s-8 37 -8 57c0 26.667 4.66699 49.5 14 68.5
s22.5 34.5 39.5 46.5s37.333 21 61 27s49.834 10 78.501 12l93 6v11c0 8 -0.333008 16.333 -1 25s-3 16.5 -7 23.5s-10.667 12.833 -20 17.5s-23 7 -41 7c-28.667 0 -57.834 -2.83301 -87.501 -8.5s-55.167 -11.834 -76.5 -18.501h-7l7 117
c10.667 3.33301 23.667 6.66602 39 9.99902s31.166 6.16602 47.499 8.49902s32.5 4.16602 48.5 5.49902s30.333 2 43 2c39.333 0 70.833 -3.83301 94.5 -11.5s43.5 -22.167 59.5 -43.5c8 10 17.5 18.5 28.5 25.5s22.833 12.667 35.5 17s25.667 7.5 39 9.5s26.333 3 39 3
c72 0 125.667 -19.833 161 -59.5s53 -94.5 53 -164.5c0 -15.333 -0.166992 -28 -0.5 -38s-1.16602 -19.667 -2.49902 -29h-295zM550 388.006c-30 0 -51.333 -9.49902 -64 -28.499s-19 -40.5 -19 -64.5h156c0 12.667 -0.833008 24.667 -2.5 36s-5.16699 21.166 -10.5 29.499
s-12.833 15 -22.5 20s-22.167 7.5 -37.5 7.5zM234 93.0068c16 0 29.001 2.33105 39.001 6.99805s17.833 10.334 23.5 17.001s9.66699 14 12 22s3.5 15.667 3.5 23v45l-57 -3c-18.667 -1.33301 -33.334 -4.16602 -44.001 -8.49902s-18.5 -9.66602 -23.5 -15.999
s-8.16699 -12.833 -9.5 -19.5s-2 -12.334 -2 -17.001c0 -16 4.5 -28.333 13.5 -37s23.833 -13 44.5 -13z" />
    <glyph glyph-name="ccedilla" unicode="&#xe7;" horiz-adv-x="458" 
d="M304 106c20.667 0 41.666 2.16504 62.999 6.49805s40.666 10.5 57.999 18.5h5l-11 -116c-9.33301 -4.66699 -20.166 -8.66699 -32.499 -12s-24.833 -6.16602 -37.5 -8.49902s-25 -4 -37 -5s-22 -1.5 -30 -1.5c-46 0 -84.833 6.5 -116.5 19.5s-57.5 31 -77.5 54
s-34.333 49.833 -43 80.5s-13 64 -13 100c0 38 5.5 72.5 16.5 103.5s27.167 57.5 48.5 79.5s47.833 39 79.5 51s68.167 18 109.5 18c10 0 21 -0.5 33 -1.5s24.167 -2.66699 36.5 -5s24 -5.16602 35 -8.49902s20.5 -7 28.5 -11l7 -119h-4
c-19.333 8.66699 -39.666 15.167 -60.999 19.5s-41.666 6.5 -60.999 6.5c-17.333 0 -33.333 -2 -48 -6s-27.167 -11 -37.5 -21s-18.5 -23.167 -24.5 -39.5s-9 -36.5 -9 -60.5c0 -52 11.167 -88.667 33.5 -110s52.166 -32 89.499 -32zM202.999 -44.002
c32 4 58.833 4.49805 80.5 1.49805s39 -8.5 52 -16.5s22.333 -18.167 28 -30.5s8.5 -25.833 8.5 -40.5c0 -35.333 -12 -62.333 -36 -81s-58 -28 -102 -28c-14.667 0 -28.667 1 -42 3s-25 4.33301 -35 7l9 66c20 -5.33301 36.333 -7.83301 49 -7.5s22.5 2.33301 29.5 6
s11.833 8.33398 14.5 14.001s4 11.167 4 16.5c0 8.66699 -4.33301 15.834 -13 21.501s-26.667 8.16699 -54 7.5z" />
    <glyph glyph-name="egrave" unicode="&#xe8;" horiz-adv-x="518" 
d="M189 203c0.666992 -13.333 3.33203 -25.833 7.99902 -37.5s12 -21.834 22 -30.501s22.833 -15.5 38.5 -20.5s35.167 -7.5 58.5 -7.5c12.667 0 25.834 0.833008 39.501 2.5s27.167 4 40.5 7s26 6.16699 38 9.5s22 7 30 11h5l-13 -117
c-15.333 -7.33301 -37.5 -14.5 -66.5 -21.5s-61.5 -10.5 -97.5 -10.5c-47.333 0 -87.333 6.33301 -120 19s-59.5 30.167 -80.5 52.5s-36.167 48.833 -45.5 79.5s-14 64.334 -14 101.001c0 43.333 6.33301 81 19 113s29.834 58.5 51.501 79.5s47.167 36.5 76.5 46.5
s60.666 15 93.999 15c38.667 0 71.5 -5.66699 98.5 -17s49 -27 66 -47s29.333 -43.667 37 -71s11.5 -57 11.5 -89c0 -9.33301 -0.166992 -20.5 -0.5 -33.5s-0.833008 -24.167 -1.5 -33.5h-295zM270.998 388c-24.667 0 -44.5 -7.83203 -59.5 -23.499
s-22.833 -38.834 -23.5 -69.501h156c0.666992 30 -4.5 53 -15.5 69s-30.167 24 -57.5 24zM360.998 555.001h-119l-136 163h156z" />
    <glyph glyph-name="eacute" unicode="&#xe9;" horiz-adv-x="518" 
d="M189 203c0.666992 -13.333 3.33203 -25.833 7.99902 -37.5s12 -21.834 22 -30.501s22.833 -15.5 38.5 -20.5s35.167 -7.5 58.5 -7.5c12.667 0 25.834 0.833008 39.501 2.5s27.167 4 40.5 7s26 6.16699 38 9.5s22 7 30 11h5l-13 -117
c-15.333 -7.33301 -37.5 -14.5 -66.5 -21.5s-61.5 -10.5 -97.5 -10.5c-47.333 0 -87.333 6.33301 -120 19s-59.5 30.167 -80.5 52.5s-36.167 48.833 -45.5 79.5s-14 64.334 -14 101.001c0 43.333 6.33301 81 19 113s29.834 58.5 51.501 79.5s47.167 36.5 76.5 46.5
s60.666 15 93.999 15c38.667 0 71.5 -5.66699 98.5 -17s49 -27 66 -47s29.333 -43.667 37 -71s11.5 -57 11.5 -89c0 -9.33301 -0.166992 -20.5 -0.5 -33.5s-0.833008 -24.167 -1.5 -33.5h-295zM270.998 388c-24.667 0 -44.5 -7.83203 -59.5 -23.499
s-22.833 -38.834 -23.5 -69.501h156c0.666992 30 -4.5 53 -15.5 69s-30.167 24 -57.5 24zM294.998 718.001h155l-135 -163h-120z" />
    <glyph glyph-name="ecircumflex" unicode="&#xea;" horiz-adv-x="518" 
d="M189 203c0.666992 -13.333 3.33203 -25.833 7.99902 -37.5s12 -21.834 22 -30.501s22.833 -15.5 38.5 -20.5s35.167 -7.5 58.5 -7.5c12.667 0 25.834 0.833008 39.501 2.5s27.167 4 40.5 7s26 6.16699 38 9.5s22 7 30 11h5l-13 -117
c-15.333 -7.33301 -37.5 -14.5 -66.5 -21.5s-61.5 -10.5 -97.5 -10.5c-47.333 0 -87.333 6.33301 -120 19s-59.5 30.167 -80.5 52.5s-36.167 48.833 -45.5 79.5s-14 64.334 -14 101.001c0 43.333 6.33301 81 19 113s29.834 58.5 51.501 79.5s47.167 36.5 76.5 46.5
s60.666 15 93.999 15c38.667 0 71.5 -5.66699 98.5 -17s49 -27 66 -47s29.333 -43.667 37 -71s11.5 -57 11.5 -89c0 -9.33301 -0.166992 -20.5 -0.5 -33.5s-0.833008 -24.167 -1.5 -33.5h-295zM270.998 388c-24.667 0 -44.5 -7.83203 -59.5 -23.499
s-22.833 -38.834 -23.5 -69.501h156c0.666992 30 -4.5 53 -15.5 69s-30.167 24 -57.5 24zM201.998 718.001h142l108 -163h-114l-65 78l-65 -78h-114z" />
    <glyph glyph-name="edieresis" unicode="&#xeb;" horiz-adv-x="518" 
d="M189 203c0.666992 -13.333 3.33203 -25.833 7.99902 -37.5s12 -21.834 22 -30.501s22.833 -15.5 38.5 -20.5s35.167 -7.5 58.5 -7.5c12.667 0 25.834 0.833008 39.501 2.5s27.167 4 40.5 7s26 6.16699 38 9.5s22 7 30 11h5l-13 -117
c-15.333 -7.33301 -37.5 -14.5 -66.5 -21.5s-61.5 -10.5 -97.5 -10.5c-47.333 0 -87.333 6.33301 -120 19s-59.5 30.167 -80.5 52.5s-36.167 48.833 -45.5 79.5s-14 64.334 -14 101.001c0 43.333 6.33301 81 19 113s29.834 58.5 51.501 79.5s47.167 36.5 76.5 46.5
s60.666 15 93.999 15c38.667 0 71.5 -5.66699 98.5 -17s49 -27 66 -47s29.333 -43.667 37 -71s11.5 -57 11.5 -89c0 -9.33301 -0.166992 -20.5 -0.5 -33.5s-0.833008 -24.167 -1.5 -33.5h-295zM270.998 388c-24.667 0 -44.5 -7.83203 -59.5 -23.499
s-22.833 -38.834 -23.5 -69.501h156c0.666992 30 -4.5 53 -15.5 69s-30.167 24 -57.5 24zM89.998 631.001c0 23.333 7.16699 41.332 21.5 53.999s32.833 19 55.5 19c26 0 45.833 -6.16699 59.5 -18.5s20.5 -30.166 20.5 -53.499c0 -48 -26.333 -72 -79 -72
c-24 0 -43 6.16699 -57 18.5s-21 29.833 -21 52.5zM299.998 630c0 24 7.16504 42.332 21.498 54.999s32.833 19 55.5 19c26.667 0 46.834 -6.16699 60.501 -18.5s20.5 -30.166 20.5 -53.499c0 -48 -26.667 -72 -80 -72c-23.333 0 -42.166 6 -56.499 18
s-21.5 29.333 -21.5 52z" />
    <glyph glyph-name="igrave" unicode="&#xec;" horiz-adv-x="265" 
d="M210 555h-119l-136 163h156zM207 482v-482h-149v482h149z" />
    <glyph glyph-name="iacute" unicode="&#xed;" horiz-adv-x="265" 
d="M155 718h155l-135 -163h-120zM207 482v-482h-149v482h149z" />
    <glyph glyph-name="icircumflex" unicode="&#xee;" horiz-adv-x="265" 
d="M207 482v-482h-149v482h149zM61 718h142l108 -163h-114l-65 78l-65 -78h-114z" />
    <glyph glyph-name="idieresis" unicode="&#xef;" horiz-adv-x="265" 
d="M-52 631c0 23.333 7.16699 41.332 21.5 53.999s32.833 19 55.5 19c26 0 45.833 -6.16699 59.5 -18.5s20.5 -30.166 20.5 -53.499c0 -48 -26.333 -72 -79 -72c-24 0 -43 6.16699 -57 18.5s-21 29.833 -21 52.5zM158 629.999c0 24 7.16504 42.332 21.498 54.999
s32.833 19 55.5 19c26.667 0 46.834 -6.16699 60.501 -18.5s20.5 -30.166 20.5 -53.499c0 -48 -26.667 -72 -80 -72c-23.333 0 -42.166 6 -56.499 18s-21.5 29.333 -21.5 52zM206.998 481.998v-482h-149v482h149z" />
    <glyph glyph-name="eth" unicode="&#xf0;" horiz-adv-x="572" 
d="M184 766c54 -14.667 102.004 -34.335 144.004 -59.002l98 88l89 -96l-85 -77c38 -42.667 65.667 -90 83 -142s26 -105.667 26 -161c0 -49.333 -5 -94.166 -15 -134.499s-25.667 -75.166 -47 -104.499s-48.666 -52 -81.999 -68s-73.333 -24 -120 -24
c-78.667 0 -138.834 21.333 -180.501 64s-62.5 105 -62.5 187c0 29.333 4.33301 59 13 89s22.167 57 40.5 81s41.666 43.667 69.999 59s62.166 23 101.499 23c49.333 0 87.666 -15.333 114.999 -46l6 2c-15.333 42 -44.833 77.333 -88.5 106s-98.834 54 -165.501 76z
M187.004 240.999c0 -26 2.33496 -47.8301 7.00195 -65.4971s11.167 -31.834 19.5 -42.501s18.333 -18.167 30 -22.5s24.5 -6.5 38.5 -6.5c22.667 0 40.667 5 54 15s23.5 22.5 30.5 37.5s11.5 31 13.5 48s3 32.5 3 46.5c0 25.333 -2.83301 46 -8.5 62s-13 28.667 -22 38
s-19.333 15.666 -31 18.999s-23.5 5 -35.5 5c-18.667 0 -34.334 -3.33301 -47.001 -10s-22.834 -15.834 -30.501 -27.501s-13.167 -25.667 -16.5 -42s-5 -34.5 -5 -54.5z" />
    <glyph glyph-name="ntilde" unicode="&#xf1;" horiz-adv-x="571" 
d="M343 494c62 0 106.501 -16.6689 133.501 -50.002s40.5 -78.666 40.5 -135.999v-308h-149v288c0 28.667 -5.16699 49.834 -15.5 63.501s-28.833 20.5 -55.5 20.5c-16.667 0 -30.667 -2.33301 -42 -7s-20.5 -11 -27.5 -19s-12.167 -17.167 -15.5 -27.5s-5 -20.833 -5 -31.5
v-287h-149v482h135l5 -54l3 -1c11.333 18.667 28.666 34.5 51.999 47.5s53.333 19.5 90 19.5zM106.001 626.998l24.499 30.999c7 8.66699 14.167 15.834 21.5 21.501s15.166 10 23.499 13s18.5 4.5 30.5 4.5c13.333 0 27 -1.5 41 -4.5s27.667 -6.5 41 -10.5
s26.333 -7.5 39 -10.5s24 -4.5 34 -4.5s18.167 2.83301 24.5 8.5s12.833 14.167 19.5 25.5l66 -61c-14.667 -28.667 -29.5 -49.167 -44.5 -61.5s-30.167 -18.5 -45.5 -18.5c-14.667 0 -29.667 1.5 -45 4.5s-30.5 6.5 -45.5 10.5s-29.167 7.5 -42.5 10.5s-25 4.5 -35 4.5
c-11.333 0 -20.166 -2.83301 -26.499 -8.5s-14.166 -13.167 -23.499 -22.5z" />
    <glyph glyph-name="ograve" unicode="&#xf2;" horiz-adv-x="567" 
d="M280 -12c-44 0 -81.667 6.33398 -113 19.001s-57 30.167 -77 52.5s-34.667 48.5 -44 78.5s-14 62.333 -14 97c0 38.667 5.83301 74 17.5 106s28.667 59.333 51 82s49.833 40.167 82.5 52.5s70 18.5 112 18.5c44 0 81.167 -6.5 111.5 -19.5s55 -30.667 74 -53
s32.833 -48.333 41.5 -78s13 -60.834 13 -93.501c0 -39.333 -5.33301 -75 -16 -107s-26.5 -59.5 -47.5 -82.5s-47.5 -40.833 -79.5 -53.5s-69.333 -19 -112 -19zM284 104.001c35.333 0 60.167 12.001 74.5 36.001s21.5 57.667 21.5 101c0 19.333 -1.5 37.166 -4.5 53.499
s-8.16699 30.5 -15.5 42.5s-16.833 21.333 -28.5 28s-26.5 10 -44.5 10c-36 0 -61.667 -11.5 -77 -34.5s-23 -56.5 -23 -100.5s7.66699 -77.667 23 -101s40 -35 74 -35zM369.001 555.002h-119l-136 163h156z" />
    <glyph glyph-name="oacute" unicode="&#xf3;" horiz-adv-x="567" 
d="M280 -12c-44 0 -81.667 6.33398 -113 19.001s-57 30.167 -77 52.5s-34.667 48.5 -44 78.5s-14 62.333 -14 97c0 38.667 5.83301 74 17.5 106s28.667 59.333 51 82s49.833 40.167 82.5 52.5s70 18.5 112 18.5c44 0 81.167 -6.5 111.5 -19.5s55 -30.667 74 -53
s32.833 -48.333 41.5 -78s13 -60.834 13 -93.501c0 -39.333 -5.33301 -75 -16 -107s-26.5 -59.5 -47.5 -82.5s-47.5 -40.833 -79.5 -53.5s-69.333 -19 -112 -19zM284 104.001c35.333 0 60.167 12.001 74.5 36.001s21.5 57.667 21.5 101c0 19.333 -1.5 37.166 -4.5 53.499
s-8.16699 30.5 -15.5 42.5s-16.833 21.333 -28.5 28s-26.5 10 -44.5 10c-36 0 -61.667 -11.5 -77 -34.5s-23 -56.5 -23 -100.5s7.66699 -77.667 23 -101s40 -35 74 -35zM304.001 718.002h155l-135 -163h-120z" />
    <glyph glyph-name="ocircumflex" unicode="&#xf4;" horiz-adv-x="567" 
d="M280 -12c-44 0 -81.667 6.33398 -113 19.001s-57 30.167 -77 52.5s-34.667 48.5 -44 78.5s-14 62.333 -14 97c0 38.667 5.83301 74 17.5 106s28.667 59.333 51 82s49.833 40.167 82.5 52.5s70 18.5 112 18.5c44 0 81.167 -6.5 111.5 -19.5s55 -30.667 74 -53
s32.833 -48.333 41.5 -78s13 -60.834 13 -93.501c0 -39.333 -5.33301 -75 -16 -107s-26.5 -59.5 -47.5 -82.5s-47.5 -40.833 -79.5 -53.5s-69.333 -19 -112 -19zM284 104.001c35.333 0 60.167 12.001 74.5 36.001s21.5 57.667 21.5 101c0 19.333 -1.5 37.166 -4.5 53.499
s-8.16699 30.5 -15.5 42.5s-16.833 21.333 -28.5 28s-26.5 10 -44.5 10c-36 0 -61.667 -11.5 -77 -34.5s-23 -56.5 -23 -100.5s7.66699 -77.667 23 -101s40 -35 74 -35zM214.001 718.002h142l108 -163h-114l-65 78l-65 -78h-114z" />
    <glyph glyph-name="otilde" unicode="&#xf5;" horiz-adv-x="567" 
d="M280 -12c-44 0 -81.667 6.33398 -113 19.001s-57 30.167 -77 52.5s-34.667 48.5 -44 78.5s-14 62.333 -14 97c0 38.667 5.83301 74 17.5 106s28.667 59.333 51 82s49.833 40.167 82.5 52.5s70 18.5 112 18.5c44 0 81.167 -6.5 111.5 -19.5s55 -30.667 74 -53
s32.833 -48.333 41.5 -78s13 -60.834 13 -93.501c0 -39.333 -5.33301 -75 -16 -107s-26.5 -59.5 -47.5 -82.5s-47.5 -40.833 -79.5 -53.5s-69.333 -19 -112 -19zM284 104.001c35.333 0 60.167 12.001 74.5 36.001s21.5 57.667 21.5 101c0 19.333 -1.5 37.166 -4.5 53.499
s-8.16699 30.5 -15.5 42.5s-16.833 21.333 -28.5 28s-26.5 10 -44.5 10c-36 0 -61.667 -11.5 -77 -34.5s-23 -56.5 -23 -100.5s7.66699 -77.667 23 -101s40 -35 74 -35zM104.001 627.002l24.499 30.999c7 8.66699 14.167 15.834 21.5 21.501s15.166 10 23.499 13
s18.5 4.5 30.5 4.5c13.333 0 27 -1.5 41 -4.5s27.667 -6.5 41 -10.5s26.333 -7.5 39 -10.5s24 -4.5 34 -4.5s18.167 2.83301 24.5 8.5s12.833 14.167 19.5 25.5l66 -61c-14.667 -28.667 -29.5 -49.167 -44.5 -61.5s-30.167 -18.5 -45.5 -18.5c-14.667 0 -29.667 1.5 -45 4.5
s-30.5 6.5 -45.5 10.5s-29.167 7.5 -42.5 10.5s-25 4.5 -35 4.5c-11.333 0 -20.166 -2.83301 -26.499 -8.5s-14.166 -13.167 -23.499 -22.5z" />
    <glyph glyph-name="odieresis" unicode="&#xf6;" horiz-adv-x="567" 
d="M280 -12c-44 0 -81.667 6.33398 -113 19.001s-57 30.167 -77 52.5s-34.667 48.5 -44 78.5s-14 62.333 -14 97c0 38.667 5.83301 74 17.5 106s28.667 59.333 51 82s49.833 40.167 82.5 52.5s70 18.5 112 18.5c44 0 81.167 -6.5 111.5 -19.5s55 -30.667 74 -53
s32.833 -48.333 41.5 -78s13 -60.834 13 -93.501c0 -39.333 -5.33301 -75 -16 -107s-26.5 -59.5 -47.5 -82.5s-47.5 -40.833 -79.5 -53.5s-69.333 -19 -112 -19zM284 104.001c35.333 0 60.167 12.001 74.5 36.001s21.5 57.667 21.5 101c0 19.333 -1.5 37.166 -4.5 53.499
s-8.16699 30.5 -15.5 42.5s-16.833 21.333 -28.5 28s-26.5 10 -44.5 10c-36 0 -61.667 -11.5 -77 -34.5s-23 -56.5 -23 -100.5s7.66699 -77.667 23 -101s40 -35 74 -35zM100.001 631.002c0 23.333 7.16699 41.332 21.5 53.999s32.833 19 55.5 19
c26 0 45.833 -6.16699 59.5 -18.5s20.5 -30.166 20.5 -53.499c0 -48 -26.333 -72 -79 -72c-24 0 -43 6.16699 -57 18.5s-21 29.833 -21 52.5zM310.001 630.001c0 24 7.16504 42.332 21.498 54.999s32.833 19 55.5 19c26.667 0 46.834 -6.16699 60.501 -18.5
s20.5 -30.166 20.5 -53.499c0 -48 -26.667 -72 -80 -72c-23.333 0 -42.166 6 -56.499 18s-21.5 29.333 -21.5 52z" />
    <glyph glyph-name="divide" unicode="&#xf7;" 
d="M129 342h374v-114h-386zM245 455c0 22.667 5.83301 39.833 17.5 51.5s27.167 17.5 46.5 17.5c44.667 0 67 -23 67 -69s-22 -69 -66 -69c-20 0 -35.833 6 -47.5 18s-17.5 29 -17.5 51zM245 113.999c0 22.667 5.83301 40 17.5 52s27.167 18 46.5 18c22 0 38.667 -6 50 -18
s17 -29 17 -51c0 -46 -22 -69 -66 -69c-20 0 -35.833 5.83301 -47.5 17.5s-17.5 28.5 -17.5 50.5z" />
    <glyph glyph-name="oslash" unicode="&#xf8;" horiz-adv-x="567" 
d="M280 -12c-43.333 0 -81.333 6.33301 -114 19l-54 -71l-79 62l51 68c-18 22 -31.167 47.333 -39.5 76s-12.5 59.667 -12.5 93c0 38.667 5.83301 74 17.5 106s28.667 59.333 51 82s49.833 40.167 82.5 52.5s70 18.5 112 18.5c19.333 0 37.5 -1.33301 54.5 -4
s32.5 -6.66699 46.5 -12l52 68l80 -59l-49 -65c19.333 -22 33.5 -47.833 42.5 -77.5s13.5 -61.167 13.5 -94.5c0 -39.333 -5.33301 -75 -16 -107s-26.5 -59.5 -47.5 -82.5s-47.5 -40.833 -79.5 -53.5s-69.333 -19 -112 -19zM284 96c37.333 0 64.167 12.667 80.5 38
s24.5 61 24.5 107c0 10 -0.333008 19.5 -1 28.5s-2 17.833 -4 26.5l-145 -192c14 -5.33301 29 -8 45 -8zM178.001 240c0 -16.667 0.999023 -32 2.99902 -46l140 184c-11.333 3.33301 -22.666 5 -33.999 5c-38 0 -65.667 -12.333 -83 -37s-26 -60 -26 -106z" />
    <glyph glyph-name="ugrave" unicode="&#xf9;" horiz-adv-x="562" 
d="M224 -12c-30.667 0 -56.6689 4.16797 -78.002 12.501s-38.833 20.5 -52.5 36.5s-23.5 35.5 -29.5 58.5s-9 48.833 -9 77.5v309h149v-288c0 -28.667 4.83301 -50 14.5 -64s27.834 -21 54.501 -21c16.667 0 30.334 2.5 41.001 7.5s19 11.5 25 19.5s10.167 17.167 12.5 27.5
s3.5 21.166 3.5 32.499v286h149v-482h-134l-5 53h-3c-11.333 -18 -28 -33.333 -50 -46s-51.333 -19 -88 -19zM359.998 555.001h-119l-136 163h156z" />
    <glyph glyph-name="uacute" unicode="&#xfa;" horiz-adv-x="562" 
d="M224 -12c-30.667 0 -56.6689 4.16797 -78.002 12.501s-38.833 20.5 -52.5 36.5s-23.5 35.5 -29.5 58.5s-9 48.833 -9 77.5v309h149v-288c0 -28.667 4.83301 -50 14.5 -64s27.834 -21 54.501 -21c16.667 0 30.334 2.5 41.001 7.5s19 11.5 25 19.5s10.167 17.167 12.5 27.5
s3.5 21.166 3.5 32.499v286h149v-482h-134l-5 53h-3c-11.333 -18 -28 -33.333 -50 -46s-51.333 -19 -88 -19zM301.998 718.001h155l-135 -163h-120z" />
    <glyph glyph-name="ucircumflex" unicode="&#xfb;" horiz-adv-x="562" 
d="M224 -12c-30.667 0 -56.6689 4.16797 -78.002 12.501s-38.833 20.5 -52.5 36.5s-23.5 35.5 -29.5 58.5s-9 48.833 -9 77.5v309h149v-288c0 -28.667 4.83301 -50 14.5 -64s27.834 -21 54.501 -21c16.667 0 30.334 2.5 41.001 7.5s19 11.5 25 19.5s10.167 17.167 12.5 27.5
s3.5 21.166 3.5 32.499v286h149v-482h-134l-5 53h-3c-11.333 -18 -28 -33.333 -50 -46s-51.333 -19 -88 -19zM208.998 718.001h142l108 -163h-114l-65 78l-65 -78h-114z" />
    <glyph glyph-name="udieresis" unicode="&#xfc;" horiz-adv-x="562" 
d="M224 -12c-30.667 0 -56.6689 4.16797 -78.002 12.501s-38.833 20.5 -52.5 36.5s-23.5 35.5 -29.5 58.5s-9 48.833 -9 77.5v309h149v-288c0 -28.667 4.83301 -50 14.5 -64s27.834 -21 54.501 -21c16.667 0 30.334 2.5 41.001 7.5s19 11.5 25 19.5s10.167 17.167 12.5 27.5
s3.5 21.166 3.5 32.499v286h149v-482h-134l-5 53h-3c-11.333 -18 -28 -33.333 -50 -46s-51.333 -19 -88 -19zM96.998 631.001c0 23.333 7.16699 41.332 21.5 53.999s32.833 19 55.5 19c26 0 45.833 -6.16699 59.5 -18.5s20.5 -30.166 20.5 -53.499
c0 -48 -26.333 -72 -79 -72c-24 0 -43 6.16699 -57 18.5s-21 29.833 -21 52.5zM306.998 630c0 24 7.16504 42.332 21.498 54.999s32.833 19 55.5 19c26.667 0 46.834 -6.16699 60.501 -18.5s20.5 -30.166 20.5 -53.499c0 -48 -26.667 -72 -80 -72
c-23.333 0 -42.166 6 -56.499 18s-21.5 29.333 -21.5 52z" />
    <glyph glyph-name="yacute" unicode="&#xfd;" horiz-adv-x="503" 
d="M13 482l163.998 0.000976562l83 -356h3l80 356h154l-116 -417c-9.33301 -34.667 -19.5 -67 -30.5 -97s-24.833 -56.167 -41.5 -78.5s-37.167 -39.833 -61.5 -52.5s-54.5 -19 -90.5 -19c-24 0 -45.667 1.83301 -65 5.5s-33.666 7.5 -42.999 11.5l-7 110h5
c14.667 -4.66699 28.834 -7.83398 42.501 -9.50098s27.167 -2.5 40.5 -2.5c14 0 26 1.5 36 4.5s18.5 7.66699 25.5 14s13 14.5 18 24.5s9.83301 22 14.5 36h-71zM283.998 718.001h155l-135 -163h-120z" />
    <glyph glyph-name="thorn" unicode="&#xfe;" horiz-adv-x="568" 
d="M207 719l-0.000976562 -276.999l4 -1c13.333 16.667 31.5 29.667 54.5 39s49.5 14 79.5 14c24.667 0 48.5 -4 71.5 -12s43.333 -21.167 61 -39.5s31.834 -42.833 42.501 -73.5s16 -68.334 16 -113.001c0 -40.667 -5 -77.5 -15 -110.5s-24.5 -61.167 -43.5 -84.5
s-41.833 -41.333 -68.5 -54s-57 -19 -91 -19c-22.667 0 -44 2.66699 -64 8s-35.667 12.333 -47 21v-190h-149v892h149zM380.999 255.001c0 45.333 -7.66699 77.167 -23 95.5s-37.666 27.5 -66.999 27.5c-25.333 0 -45.666 -6.83301 -60.999 -20.5s-23 -34.167 -23 -61.5
v-169c6 -5.33301 15.667 -10.5 29 -15.5s27.666 -7.5 42.999 -7.5c35.333 0 61.166 12.5 77.499 37.5s24.5 62.833 24.5 113.5z" />
    <glyph glyph-name="ydieresis" unicode="&#xff;" horiz-adv-x="503" 
d="M13 482l163.998 0.000976562l83 -356h3l80 356h154l-116 -417c-9.33301 -34.667 -19.5 -67 -30.5 -97s-24.833 -56.167 -41.5 -78.5s-37.167 -39.833 -61.5 -52.5s-54.5 -19 -90.5 -19c-24 0 -45.667 1.83301 -65 5.5s-33.666 7.5 -42.999 11.5l-7 110h5
c14.667 -4.66699 28.834 -7.83398 42.501 -9.50098s27.167 -2.5 40.5 -2.5c14 0 26 1.5 36 4.5s18.5 7.66699 25.5 14s13 14.5 18 24.5s9.83301 22 14.5 36h-71zM77.998 631.001c0 23.333 7.16699 41.332 21.5 53.999s32.833 19 55.5 19c26 0 45.833 -6.16699 59.5 -18.5
s20.5 -30.166 20.5 -53.499c0 -48 -26.333 -72 -79 -72c-24 0 -43 6.16699 -57 18.5s-21 29.833 -21 52.5zM287.998 630c0 24 7.16504 42.332 21.498 54.999s32.833 19 55.5 19c26.667 0 46.834 -6.16699 60.501 -18.5s20.5 -30.166 20.5 -53.499c0 -48 -26.667 -72 -80 -72
c-23.333 0 -42.166 6 -56.499 18s-21.5 29.333 -21.5 52z" />
    <glyph glyph-name="dotlessi" unicode="&#x131;" horiz-adv-x="265" 
d="M207 482v-482h-149v482h149z" />
    <glyph glyph-name="OE" unicode="&#x152;" horiz-adv-x="1034" 
d="M556 719l425.998 -0.000976562v-125h-290v-170h248v-121h-248v-178h290v-125h-426v79c-19.333 -29.333 -46.166 -51.833 -80.499 -67.5s-74.166 -23.5 -119.499 -23.5c-57.333 0 -105.833 10.167 -145.5 30.5s-72 47.5 -97 81.5s-43.167 72.833 -54.5 116.5
s-17 88.834 -17 135.501c0 53.333 6.83301 103 20.5 149s34.167 86 61.5 120s61.333 60.833 102 80.5s88 29.5 142 29.5c25.333 0 47.833 -2.83301 67.5 -8.5s37.167 -13 52.5 -22s28.5 -19.167 39.5 -30.5s20.5 -23 28.5 -35v84zM372.998 114.999
c26 0 50.167 4.66699 72.5 14s41.833 23.833 58.5 43.5s29.667 44.667 39 75s14 66.5 14 108.5c0 84 -14.5 146.333 -43.5 187s-74.167 61 -135.5 61c-54 0 -97.667 -20 -131 -60s-50 -102.333 -50 -187c0 -44 4.16699 -81.333 12.5 -112s20 -55.667 35 -75
s33.333 -33.333 55 -42s46.167 -13 73.5 -13z" />
    <glyph glyph-name="oe" unicode="&#x153;" horiz-adv-x="856" 
d="M527 203c0.666992 -13.333 3.33301 -25.8311 8 -37.498s12 -21.834 22 -30.501s22.833 -15.5 38.5 -20.5s35.167 -7.5 58.5 -7.5c12.667 0 25.834 0.833008 39.501 2.5s27.167 4 40.5 7s26 6.16699 38 9.5s22 7 30 11h5l-13 -117
c-15.333 -7.33301 -37.5 -14.5 -66.5 -21.5s-61.833 -10.5 -98.5 -10.5c-44.667 0 -82 7.16699 -112 21.5s-53.667 34.166 -71 59.499c-19.333 -26 -44.333 -46 -75 -60s-67 -21 -109 -21c-40 0 -74.333 6.33301 -103 19s-52.5 30.167 -71.5 52.5s-33 48.5 -42 78.5
s-13.5 62.333 -13.5 97c0 38.667 5.66699 74 17 106s27.5 59.333 48.5 82s46.333 40.167 76 52.5s62.834 18.5 99.501 18.5c42 0 77.667 -7.33301 107 -22s53 -34 71 -58c20 27.333 44.667 47.5 74 60.5s61.666 19.5 96.999 19.5c36 0 66.667 -5.66699 92 -17
s46.166 -27 62.499 -47s28.333 -43.667 36 -71s11.5 -57 11.5 -89c0 -9.33301 -0.166992 -20.5 -0.5 -33.5s-0.833008 -24.167 -1.5 -33.5h-295zM283.999 104.002c35.333 0 60.167 12.001 74.5 36.001s21.5 57.667 21.5 101c0 19.333 -1.5 37.166 -4.5 53.499
s-8.16699 30.5 -15.5 42.5s-16.833 21.333 -28.5 28s-26.5 10 -44.5 10c-36 0 -61.667 -11.5 -77 -34.5s-23 -56.5 -23 -100.5s7.66699 -77.667 23 -101s40 -35 74 -35zM609 388.003c-24.667 0 -44.5 -8 -59.5 -24s-22.833 -39 -23.5 -69h156c0.666992 30 -4.5 53 -15.5 69
s-30.167 24 -57.5 24z" />
    <glyph glyph-name="Scaron" unicode="&#x160;" horiz-adv-x="507" 
d="M31 152l4.99805 -0.000976562c12.667 -6 27 -11.667 43 -17s32.5 -9.66602 49.5 -12.999s33.5 -6 49.5 -8s30.333 -3 43 -3c34.667 0 62.834 6.66699 84.501 20s32.5 35.666 32.5 66.999c0 23.333 -7.66699 41.666 -23 54.999s-34.5 24.833 -57.5 34.5
s-47.833 19.5 -74.5 29.5s-51.5 23 -74.5 39s-42.167 36.833 -57.5 62.5s-23 59.5 -23 101.5c0 26 4.5 51.5 13.5 76.5s23.333 47.5 43 67.5s45 36.167 76 48.5s68.5 18.5 112.5 18.5c14.667 0 30 -0.833008 46 -2.5s31.5 -3.83398 46.5 -6.50098
s29.167 -5.83398 42.5 -9.50098s25 -7.5 35 -11.5l9 -123h-4c-23.333 9.33301 -49.5 17 -78.5 23s-55.833 9 -80.5 9c-40 0 -69.167 -6.66699 -87.5 -20s-27.5 -32.666 -27.5 -57.999c0 -22 7.66699 -39.333 23 -52s34.5 -23.834 57.5 -33.501s48 -19.5 75 -29.5
s52 -23.167 75 -39.5s42.167 -37.5 57.5 -63.5s23 -59.667 23 -101c0 -24 -4 -49.167 -12 -75.5s-21.667 -50.666 -41 -72.999s-45.333 -40.666 -78 -54.999s-73.334 -21.5 -122.001 -21.5c-17.333 0 -35.666 1.16699 -54.999 3.5s-37.833 5.33301 -55.5 9
s-33.667 7.83398 -48 12.501s-25.166 9.33398 -32.499 14.001zM328.998 914.999h125l-110 -148h-153l-118 148h134l61 -66z" />
    <glyph glyph-name="scaron" unicode="&#x161;" horiz-adv-x="461" 
d="M34 141l3.99707 -0.00195312c23.333 -9.33301 50.333 -18 81 -26s61 -12 91 -12s50.333 2.83301 61 8.5s16 14.167 16 25.5s-6.33301 19.666 -19 24.999s-28.334 10.166 -47.001 14.499l-61 14c-22 5 -42.333 12.833 -61 23.5s-34.334 25 -47.001 43s-19 42.333 -19 73
c0 26.667 5.33301 50.334 16 71.001s25.334 37.834 44.001 51.501s41 24 67 31s54.667 10.5 86 10.5c12 0 24.833 -0.666992 38.5 -2s27.5 -3.16602 41.5 -5.49902s27.5 -5 40.5 -8s24.167 -6.16699 33.5 -9.5l12 -120h-5c-23.333 8.66699 -48.666 15.667 -75.999 21
s-51 8 -71 8c-23.333 0 -41.666 -2.66699 -54.999 -8s-20 -14.666 -20 -27.999c0 -12 6 -20.833 18 -26.5s27.167 -10.5 45.5 -14.5l59 -13.5c21 -5 40.667 -12.667 59 -23s33.5 -24.5 45.5 -42.5s18 -42 18 -72c0 -50 -18.167 -89.5 -54.5 -118.5
s-90.166 -43.5 -161.499 -43.5c-17.333 0 -34.666 1 -51.999 3s-33.5 4.66699 -48.5 8s-28.5 7 -40.5 11s-21.667 8 -29 12zM64.9971 717.998h114l65 -79l65 79h114l-108 -163h-142z" />
    <glyph glyph-name="Ydieresis" unicode="&#x178;" horiz-adv-x="619" 
d="M-4 719h169l146 -339h3l142 339h167l-238 -481v-238h-154v237zM127 836c0 24 7.16699 42.167 21.5 54.5s32.833 18.5 55.5 18.5c53.333 0 80 -23.667 80 -71c0 -48.667 -26.333 -73 -79 -73c-24 0 -43 6.16699 -57 18.5s-21 29.833 -21 52.5zM337 836
c0 23.333 7.16504 41.333 21.498 54s32.833 19 55.5 19c26.667 0 46.834 -6.16699 60.501 -18.5s20.5 -29.833 20.5 -52.5c0 -48.667 -26.667 -73 -80 -73c-23.333 0 -42.166 6.16699 -56.499 18.5s-21.5 29.833 -21.5 52.5z" />
    <glyph glyph-name="Zcaron" unicode="&#x17d;" horiz-adv-x="576" 
d="M53 719h485v-125l-325 -466h331v-128h-508v122l326 465h-309v132zM360 915h125l-110 -148h-153l-118 148h134l61 -66z" />
    <glyph glyph-name="zcaron" unicode="&#x17e;" horiz-adv-x="469" 
d="M199 122h237l-10 -122h-380l-11 118l233 241h-225l11 123h370l6 -119zM58 718h114l65 -79l65 79h114l-108 -163h-142z" />
    <glyph glyph-name="florin" unicode="&#x192;" horiz-adv-x="602" 
d="M227 311h-94.999l22 107h94l32 156c6.66699 34 17.5 61.167 32.5 81.5s31.5 35.833 49.5 46.5s36.833 17.667 56.5 21s37.834 5 54.501 5c24 0 45 -1.66699 63 -5s31.667 -6.66602 41 -9.99902l-9 -118h-3c-10.667 4 -22.334 7 -35.001 9s-24.334 3 -35.001 3
c-24 0 -40.667 -6.33301 -50 -19s-16.333 -30 -21 -52l-25 -118h123l-22 -107h-122l-70 -337c-6 -28 -14.833 -51.5 -26.5 -70.5s-25.834 -34.333 -42.501 -46s-35.167 -20 -55.5 -25s-41.833 -7.5 -64.5 -7.5c-27.333 0 -49.666 1.66699 -66.999 5
s-30.333 6.66602 -39 9.99902l8 117h5c8 -3.33301 18.5 -6 31.5 -8s24.833 -3 35.5 -3c24 0 40.833 6 50.5 18s17.167 29.667 22.5 53z" />
    <glyph glyph-name="uni0237" unicode="&#x237;" horiz-adv-x="302" 
d="M24 482l219.001 0.000976562v-470c0 -69.333 -13.833 -118.833 -41.5 -148.5s-66.834 -44.5 -117.501 -44.5c-12 0 -24.5 0.5 -37.5 1.5s-28.5 3.16699 -46.5 6.5l-14 113h5c12 -2.66699 22.333 -4.33398 31 -5.00098s16.667 -1 24 -1c8.66699 0 16 1.16699 22 3.5
s11 6.5 15 12.5s6.83301 14.167 8.5 24.5s2.5 23.833 2.5 40.5v360h-70v107z" />
    <glyph glyph-name="circumflex" unicode="&#x2c6;" horiz-adv-x="500" 
d="M179 718h142l108 -163h-114l-65 78l-65 -78h-114z" />
    <glyph glyph-name="tilde" unicode="&#x2dc;" horiz-adv-x="500" 
d="M65 626l24.499 30.999c7 8.66699 14.167 15.834 21.5 21.501s15.166 10 23.499 13s18.5 4.5 30.5 4.5c13.333 0 27 -1.5 41 -4.5s27.667 -6.5 41 -10.5s26.333 -7.5 39 -10.5s24 -4.5 34 -4.5s18.167 2.83301 24.5 8.5s12.833 14.167 19.5 25.5l66 -61
c-14.667 -28.667 -29.5 -49.167 -44.5 -61.5s-30.167 -18.5 -45.5 -18.5c-14.667 0 -29.667 1.5 -45 4.5s-30.5 6.5 -45.5 10.5s-29.167 7.5 -42.5 10.5s-25 4.5 -35 4.5c-11.333 0 -20.166 -2.83301 -26.499 -8.5s-14.166 -13.167 -23.499 -22.5z" />
    <glyph glyph-name="uni2009" unicode="&#x2009;" horiz-adv-x="50" 
 />
    <glyph glyph-name="endash" unicode="&#x2013;" horiz-adv-x="425" 
d="M30 331h365v-114h-365v114z" />
    <glyph glyph-name="emdash" unicode="&#x2014;" horiz-adv-x="791" 
d="M30 217v114h731v-114h-731z" />
    <glyph glyph-name="quoteleft" unicode="&#x2018;" horiz-adv-x="256" 
d="M166 505h-151l116 269h115z" />
    <glyph glyph-name="quoteright" unicode="&#x2019;" horiz-adv-x="254" 
d="M110 774h151l-116 -269h-115z" />
    <glyph glyph-name="quotesinglbase" unicode="&#x201a;" horiz-adv-x="277" 
d="M110 141h151l-116 -269h-115z" />
    <glyph glyph-name="quotedblleft" unicode="&#x201c;" horiz-adv-x="449" 
d="M166 505h-151l116 269h115zM359 505h-151l116 269h115z" />
    <glyph glyph-name="quotedblright" unicode="&#x201d;" horiz-adv-x="447" 
d="M110 774h151l-116 -269h-115zM303 774h151l-116 -269h-115z" />
    <glyph glyph-name="quotedblbase" unicode="&#x201e;" horiz-adv-x="471" 
d="M110 141h151l-116 -269h-115zM304 141h151l-116 -269h-115z" />
    <glyph glyph-name="dagger" unicode="&#x2020;" horiz-adv-x="427" 
d="M175 146l-15 211l16 165l-134 -14l12 97l119 -14l-13 147h103l-13 -145l135 14l-13 -103l-122 17l15 -162l-15 -213h-75z" />
    <glyph glyph-name="daggerdbl" unicode="&#x2021;" horiz-adv-x="430" 
d="M266 443l-15 -99l134 14l-11 -97l-120 14l13 -129h-102l13 127l-136 -14l13 103l122 -14l-13 95l15 97l-134 -14l11 97l120 -14l-13 129h102l-13 -127l136 14l-13 -103l-122 14z" />
    <glyph glyph-name="bullet" unicode="&#x2022;" horiz-adv-x="363" 
d="M54 309c0 38 11.334 67.166 34.001 87.499s53 30.5 91 30.5c42.667 0 75 -10 97 -30s33 -49 33 -87c0 -39.333 -11 -68.666 -33 -87.999s-54 -29 -96 -29c-38.667 0 -69.334 10 -92.001 30s-34 48.667 -34 86z" />
    <glyph glyph-name="ellipsis" unicode="&#x2026;" horiz-adv-x="946" 
d="M62 76c0 28.667 8.5 50.5 25.5 65.5s39.833 22.5 68.5 22.5c32 0 56.167 -7.5 72.5 -22.5s24.5 -36.5 24.5 -64.5c0 -58.667 -32 -88 -96 -88c-30 0 -53.333 7.5 -70 22.5s-25 36.5 -25 64.5zM377 76c0 28.667 8.66699 50.5 26 65.5s40 22.5 68 22.5
c32 0 56.333 -7.5 73 -22.5s25 -36.5 25 -64.5c0 -58.667 -32.333 -88 -97 -88c-29.333 0 -52.5 7.5 -69.5 22.5s-25.5 36.5 -25.5 64.5zM693 76c0 28.667 8.5 50.5 25.5 65.5s39.5 22.5 67.5 22.5c32 0 56.333 -7.5 73 -22.5s25 -36.5 25 -64.5
c0 -58.667 -32.333 -88 -97 -88c-29.333 0 -52.333 7.5 -69 22.5s-25 36.5 -25 64.5z" />
    <glyph glyph-name="perthousand" unicode="&#x2030;" horiz-adv-x="1092" 
d="M627 700l90 -92l-551 -547l-86 94zM217 423c-29.333 0 -53.998 3.99902 -73.998 11.999s-36 19 -48 33s-20.5 30.167 -25.5 48.5s-7.5 37.833 -7.5 58.5c0 46.667 14.333 84 43 112s69.667 42 123 42c27.333 0 50.666 -3.83301 69.999 -11.5s35 -18 47 -31
s20.667 -28.667 26 -47s8 -37.833 8 -58.5c0 -22 -3 -42.667 -9 -62s-15.5 -36.166 -28.5 -50.499s-29.833 -25.5 -50.5 -33.5s-45.334 -12 -74.001 -12zM220.002 505.999c14.667 0 26.334 5.66797 35.001 17.001s13 28.666 13 51.999c0 46 -15.667 69 -47 69
c-14.667 0 -26.834 -5.33301 -36.501 -16s-14.5 -28.334 -14.5 -53.001c0 -25.333 4.5 -43.166 13.5 -53.499s21.167 -15.5 36.5 -15.5zM527.002 -11c-30 0 -55 4.00098 -75 12.001s-36 19 -48 33s-20.5 30.167 -25.5 48.5s-7.5 37.833 -7.5 58.5c0 46 14 83.167 42 111.5
s69.667 42.5 125 42.5c27.333 0 50.666 -3.83301 69.999 -11.5s35 -18.167 47 -31.5s20.667 -29 26 -47s8 -37.667 8 -59s-3 -41.333 -9 -60s-15.5 -35.334 -28.5 -50.001s-29.667 -26.167 -50 -34.5s-45.166 -12.5 -74.499 -12.5zM529.002 72.001
c14.667 0 26.334 5.49902 35.001 16.499s13 28.833 13 53.5c0 46 -15.667 69 -47 69c-14.667 0 -26.834 -5.66699 -36.501 -17s-14.5 -29 -14.5 -53c0 -25.333 4.5 -43.166 13.5 -53.499s21.167 -15.5 36.5 -15.5zM878.002 -11c-29.333 0 -53.833 3.99707 -73.5 11.9971
s-35.5 19 -47.5 33s-20.5 30.167 -25.5 48.5s-7.5 37.833 -7.5 58.5c0 46 14 83.167 42 111.5s69.667 42.5 125 42.5c27.333 0 50.5 -3.66699 69.5 -11s34.5 -17.666 46.5 -30.999s20.833 -29 26.5 -47s8.5 -37.333 8.5 -58c0 -22 -3 -42.667 -9 -62
s-15.5 -36.166 -28.5 -50.499s-30 -25.666 -51 -33.999s-46.167 -12.5 -75.5 -12.5zM882.002 71.9971c14 0 25.5 5.50098 34.5 16.501s13.5 28.5 13.5 52.5c0 24.667 -3.83301 42.5 -11.5 53.5s-19.167 16.5 -34.5 16.5c-14.667 0 -27 -5.16699 -37 -15.5
s-15 -28.5 -15 -54.5c0 -26.667 4.83301 -44.834 14.5 -54.501s21.5 -14.5 35.5 -14.5z" />
    <glyph glyph-name="guilsinglleft" unicode="&#x2039;" horiz-adv-x="348" 
d="M32 256l120 215h164l-135 -231v-4l135 -232h-163l-121 212v40z" />
    <glyph glyph-name="guilsinglright" unicode="&#x203a;" horiz-adv-x="348" 
d="M317 216l-121 -212h-163l135 232v4l-135 231h164l120 -215v-40z" />
    <glyph glyph-name="Euro" unicode="&#x20ac;" horiz-adv-x="635" 
d="M39 489l88.002 -0.000976562c12 49.333 29.5 89.666 52.5 120.999s49 56 78 74s59.333 30.333 91 37s61.834 10 90.501 10c33.333 0 62.5 -2.5 87.5 -7.5s44.833 -10.5 59.5 -16.5l18 -132h-5c-17.333 6.66699 -38.5 12.667 -63.5 18s-54.5 8 -88.5 8
c-42 0 -76 -9 -102 -27s-45 -46.333 -57 -85h217v-103h-233v-31v-21.5c0 -7 0.333008 -13.833 1 -20.5h232v-103h-212c11.333 -29.333 29.666 -52 54.999 -68s60.666 -24 105.999 -24c34 0 63 2.83301 87 8.5s45.667 11.834 65 18.501h5l-17 -131c-8 -4 -18 -7.5 -30 -10.5
s-24.833 -5.66699 -38.5 -8s-27.334 -4.16602 -41.001 -5.49902s-26.167 -2 -37.5 -2c-50 0 -93 6.33301 -129 19s-66.5 29.5 -91.5 50.5s-45.167 44.667 -60.5 71s-27 53.5 -35 81.5h-110l8 103h84c-0.666992 5.33301 -1 10.833 -1 16.5v16.5v20.5
c0 6.33301 0.333008 12.833 1 19.5h-82z" />
    <glyph glyph-name="trademark" unicode="&#x2122;" horiz-adv-x="786" 
d="M19 719h279v-88h-91v-234h-94v234h-94v88zM717 397h-89v193h-1l-53 -165h-101l-47 166h-1v-194h-90v322h133l58 -200h1l57 200h133v-322z" />
    <glyph glyph-name=".null" horiz-adv-x="0" 
 />
    <glyph glyph-name="nonmarkingreturn" horiz-adv-x="333" 
 />
    </font>
</defs>
</svg>
